M48
METRIC,LZ,000.000
;FILE_FORMAT=3:3
;TYPE=PLATED
;Layer: PTH_Through
;EasyEDA v6.5.46, 2026-07-24 11:31:18
;10
;Gerber Generator version 0.2
;Holesize 1 = 0.310 mm
T01C0.310
;Holesize 2 = 0.400 mm
T02C0.400
;Holesize 3 = 0.500 mm
T03C0.500
;Holesize 4 = 0.800 mm
T04C0.800
;Holesize 5 = 0.801 mm
T05C0.801
;Holesize 6 = 0.901 mm
T06C0.901
;Holesize 7 = 0.915 mm
T07C0.915
;Holesize 8 = 1.000 mm
T08C1.000
;Holesize 9 = 1.001 mm
T09C1.001
;Holesize 10 = 1.201 mm
T10C1.201
;Holesize 11 = 1.450 mm
T11C1.450
;Holesize 12 = 1.501 mm
T12C1.501
;Holesize 13 = 1.600 mm
T13C1.600
;Holesize 14 = 3.200 mm
T14C3.200
;Holesize 15 = 3.300 mm
T15C3.300
;Holesize 16 = 4.000 mm
T16C4.000
%
G05
G90
T01
X-088930Y002230
X-088920Y001501
T02
X-065866Y-026064
X-065866Y-024804
X-064616Y-026064
X-064616Y-024814
X-103345Y-058046
X-101770Y-058694
X-104895Y-058681
X-105606Y-060307
X-101148Y-060256
X-104895Y-061780
X-103345Y-062440
X-101783Y-061793
X008643Y-057983
X010218Y-058630
X007094Y-058618
X006383Y-060243
X010840Y-060192
X007094Y-061716
X008643Y-062377
X010205Y-061729
X008605Y009124
X010180Y008476
X007056Y008489
X006345Y006864
X010802Y006914
X007056Y005390
X008605Y004730
X010167Y005378
X-103485Y008896
X-101910Y008248
X-105034Y008261
X-105746Y006635
X-101288Y006686
X-105034Y005162
X-103485Y004501
X-101923Y005149
X-052607Y-060457
X-053627Y-060447
X-088017Y-013997
X-089057Y-014837
X-069077Y-011847
X-068037Y-011857
X-066897Y-011867
X-065667Y-011887
X-064587Y-011877
X-078267Y-047197
X-071547Y-036317
X-020277Y-018847
X-020277Y004343
X-040397Y-025987
X-040575Y-032758
X-029717Y-041107
X-020287Y-034967
X-021067Y-026607
X-028927Y-018647
X-030457Y-018647
X-065667Y-021107
X-057456Y-024088
X-060737Y-024377
X-059917Y-008637
X-059927Y-023877
X-104564Y-055198
X-106453Y-018834
X-100174Y-013237
X-099374Y-013237
X-099374Y-012368
X-100174Y-012368
X-103054Y-010817
X-103044Y-010018
X011536Y-051637
X011536Y-050037
X011536Y-048617
X-012464Y-041857
X-010964Y-041857
X-009464Y-041857
X-007964Y-041857
X-006464Y-041857
X-050564Y009283
X-052064Y009283
X-049064Y009283
X-059564Y009283
X-047564Y009283
X-053564Y009283
X-055064Y009283
X-046064Y009283
X-081967Y010163
X-080467Y010163
X011536Y-047217
X011536Y-046017
X011516Y-044857
X011536Y-043527
X011366Y-055957
X011356Y-057457
X005536Y-062948
X004036Y-062937
X002536Y-062927
X001036Y-062937
X-000464Y-062937
X-001964Y-062948
X-003464Y-062957
X-004964Y-062948
X-006464Y-062948
X-007964Y-062957
X-009464Y-062957
X-010964Y-062957
X-012464Y-062957
X-013964Y-062957
X-015464Y-062957
X-016964Y-062967
X-103064Y-056187
X-101564Y-057307
X-100364Y-058458
X-106444Y-055358
X-106464Y-053857
X-106464Y-052358
X-106464Y-050857
X-106464Y-049358
X-106464Y-047857
X-104664Y001342
X-106164Y001342
X-027764Y009298
X-030577Y009273
X-032564Y009288
X-035564Y009298
X-022364Y-019708
X-004964Y-041857
X-001964Y-041857
X-000464Y-041857
X001036Y-041857
X011536Y-041857
X010036Y-041857
X008536Y-041857
X004036Y-041857
X002536Y-041857
X-102264Y001342
X-100564Y001342
X-098864Y001342
X-106164Y002843
X-104664Y002843
X-102464Y003243
X-100664Y004243
X-099664Y005843
X-099464Y007442
X-106464Y-031358
X-106464Y-032857
X-106464Y-034358
X-106464Y-035857
X-106464Y-037358
X-106464Y-038857
X-106464Y-040358
X-106464Y-041857
X-106464Y-043358
X-106464Y-044857
X-106464Y-046358
X-106364Y-056657
X-106364Y-057957
X-099164Y-059557
X-098264Y-060557
X-097364Y-061457
X-096464Y-062358
X-100964Y-063358
X-099464Y-063358
X-097964Y-063358
X-096464Y-063358
X-094964Y-063358
X-093464Y-063358
X-091964Y-063358
X-090464Y-063358
X-088964Y-063358
X-087464Y-063358
X-085964Y-063358
X-084464Y-063358
X-082964Y-063358
X-081464Y-063358
X-079964Y-063358
X-078464Y-063358
X-076964Y-063358
X-075464Y-063358
X-073964Y-063358
X-072464Y-063358
X-070964Y-063358
X-069464Y-063358
X-067964Y-063358
X-066464Y-063358
X-064964Y-063358
X-063464Y-063358
X-061964Y-063358
X-060464Y-063358
X-058964Y-063358
X-057464Y-063358
X-055964Y-063358
X-054464Y-063358
X-052964Y-063358
X-051464Y-063358
X-049964Y-063358
X-048464Y-063358
X-046964Y-063358
X-045464Y-063358
X-043964Y-063358
X-042464Y-063358
X-040964Y-063358
X-039464Y-063358
X-037964Y-063358
X-036464Y-063358
X-034957Y-063358
X-033457Y-063358
X-031957Y-063358
X-030457Y-063358
X-028957Y-063358
X-027417Y-063359
X-025847Y-063347
X-024464Y-062957
X-022964Y-062957
X-021464Y-062957
X-019964Y-062957
X-018464Y-062957
X-099467Y010163
X-097967Y010163
X-096467Y010163
X-094967Y010163
X-089467Y010163
X-087967Y010163
X-086467Y010163
X-083467Y010163
X-084967Y010163
X-078967Y010163
X-077387Y010143
X-075927Y010133
X-074687Y010153
X-072967Y010163
X-071467Y010163
X-069967Y010163
X-068467Y010163
X-066967Y010163
X-065467Y010163
X-063967Y010163
X-062467Y010163
X-058064Y009283
X-056564Y009283
X-044564Y009283
X-043064Y009288
X-041564Y009288
X-040064Y009288
X-038564Y009288
X-037064Y009288
X-025247Y009323
X-022664Y009288
X-021164Y009288
X-019364Y009288
X-017864Y009288
X-016364Y009288
X-014864Y009288
X-013364Y009288
X-011864Y009288
X-010364Y009288
X-008864Y009288
X-007364Y009288
X-005864Y009288
X-004364Y009288
X-002864Y009288
X-001364Y009288
X000136Y009288
X001636Y009288
X003136Y009288
X004636Y009288
X-025866Y-018414
X-025786Y-017264
X-026606Y-016524
X-027546Y-015804
X-024636Y-018204
X-106464Y-029857
X-106464Y-028358
X-106464Y-026358
X-106464Y-024857
X-106363Y-013064
X-106443Y-018144
X-106553Y-013824
X-099553Y-007464
X-104963Y-016144
X-038810Y-022149
X-094086Y-032454
X-040996Y-022914
X-104146Y-032414
X-041796Y-023694
X-104186Y-035004
X-042626Y-024474
X-094056Y-035014
X-043422Y-025258
X-094056Y-037584
X-042626Y-025944
X-104186Y-037524
X-041946Y-026694
X-043396Y-027454
X-104176Y-040064
X-044216Y-028244
X-093676Y-040754
X-044956Y-029034
X-044186Y-029774
X-043506Y-030644
X-045006Y-031364
X-090186Y-058954
X-092766Y-053544
X-091236Y-051324
X-044166Y-032034
X-072396Y-059084
X-043496Y-032834
X-071326Y-051254
X-042726Y-033604
X-067296Y-048904
X-094086Y-029934
X-094086Y-027394
X-094056Y-024894
X-094086Y-022334
X-045776Y-034984
X-037596Y-021174
X-045768Y-037527
X-035266Y-018514
X-036386Y-019584
X-036936Y-018674
X-033856Y-015154
X-087186Y-018554
X-033236Y-014554
X-079606Y-013464
X-032576Y-013954
X-031966Y-013294
X-099466Y-018304
X-031376Y-012654
X-056086Y-036104
X-005239Y-047337
X-005236Y-048444
X-050366Y-042604
X-005215Y-049535
X-007606Y-052754
X-005196Y-053934
X-005189Y-055027
X-045756Y-040054
X-005166Y-056124
X-051616Y-040034
X-053656Y-035944
X-056726Y-037524
X-056006Y-042604
X-050846Y-021284
X-074966Y-049034
X-069826Y-045014
X-026706Y-044984
X-068656Y-045694
X-025966Y-045694
X-072126Y-024584
X-072116Y-026684
X-075176Y-025914
X-073566Y-031704
X-091667Y-005777
X-091667Y-003097
X-088187Y003323
X-087527Y003303
X-088947Y000733
X-088957Y000103
X-072057Y-006757
X-074327Y-006797
X-074327Y-005817
X-074327Y-004707
X-074327Y-003647
X-072067Y-005837
X-072067Y-004707
X-072077Y-003627
X-072047Y-002657
X-074327Y-002667
X-102637Y-012197
X-089997Y-006867
X-098257Y-008057
X-104077Y-007837
X-104027Y-047287
X-009987Y-058887
X-026457Y-058877
X-064777Y-058807
X-017597Y-057937
X-066337Y-056797
X-015047Y-057287
X-060747Y-007997
X-014017Y-045807
X-015837Y-050907
X-015837Y-008637
X-014007Y-007987
X-058897Y-023907
X-011707Y-050947
X-019397Y-055467
T03
X-082557Y-047197
X-052360Y-048694
X-062517Y-048777
X-020310Y-043744
X-020260Y-013224
T04
X-088447Y006673G85X-088447Y006673
X-085907Y006673G85X-085907Y006673
X-090987Y006673G85X-090987Y006673
X-059166Y-060304G85X-059166Y-060304
X-056626Y-060304G85X-056626Y-060304
X-061706Y-060304G85X-061706Y-060304
T05
X-094757Y-018407
T06
X-004727Y-009287
X-013657Y006183
T07
X-090816Y-048399
X-088276Y-048399
T08
X-034027Y005743G85X-034027Y005743
X-034027Y003203G85X-034027Y003203
X-026407Y005743G85X-026407Y005743
X-023867Y003203G85X-023867Y003203
X-026407Y003203G85X-026407Y003203
X-028947Y003203G85X-028947Y003203
X-023867Y005743G85X-023867Y005743
X-028947Y005743G85X-028947Y005743
X-031487Y003203G85X-031487Y003203
X-031487Y005743G85X-031487Y005743
T09
X-091456Y-017046
T10
X-091456Y-011787
T11
X-092556Y-020241G85X-092559Y-020237
X-082587Y-010453G85X-082587Y-010453
X-087304Y-027713G85X-087304Y-027713
X-079606Y-020015G85X-079606Y-020015
X-079830Y-032967G85X-079830Y-032967
X-071083Y-034332G85X-071083Y-034332
X-089800Y-042754G85X-089800Y-042754
T12
X-105088Y-004465G85X-105083Y-004465
X-097976Y-004465G85X-097971Y-004465
T13
X-089376Y-023421
X-083012Y-029785
T14
X-096800Y-015997
X-096800Y-015997
T15
X-103310Y-060269G85X-103305Y-060269
X008679Y-060205G85X008684Y-060205
X008641Y006902G85X008646Y006902
X-103449Y006673G85X-103444Y006673
T16
X-075587Y-015997
X-075587Y-037210
X-075587Y-015997
X-075587Y-037210
M30
