G04 Layer: TopPasteMaskLayer*
G04 EasyEDA v6.5.46, 2026-07-24 11:31:18*
G04 Gerber Generator version 0.2*
G04 Scale: 100 percent, Rotated: No, Reflected: No *
G04 Dimensions in millimeters *
G04 leading zeros omitted , absolute positions ,4 integer and 5 decimal *
%FSLAX45Y45*%
%MOMM*%

%ADD10C,0.8000*%
%ADD11C,1.0000*%
%ADD12R,0.6000X0.5000*%
%ADD13R,1.1000X0.9000*%
%ADD14R,1.5240X1.2000*%
%ADD15R,6.0000X7.6200*%
%ADD16R,0.9000X1.1000*%
%ADD17R,0.7000X2.0000*%
%ADD18R,0.0114X2.0000*%
%ADD19R,0.2000X0.6850*%
%ADD20R,1.4000X1.3000*%
%ADD21R,3.0000X3.0000*%
%ADD22R,1.0000X0.2800*%
%ADD23R,0.2800X1.0000*%
%ADD24R,1.5000X1.2000*%
%ADD25R,1.5000X0.7000*%
%ADD26R,1.4500X1.7500*%
%ADD27R,2.3000X1.3000*%
%ADD28R,1.6000X0.2700*%
%ADD29R,0.2700X1.6000*%
%ADD30R,0.5000X0.6000*%
%ADD31R,1.0842X1.1842*%
%ADD32O,2.032X0.6096*%
%ADD33R,1.2000X1.5240*%
%ADD34R,0.9144X1.2700*%
%ADD35R,2.5000X1.5000*%
%ADD36R,1.6000X0.7000*%
%ADD37R,2.2000X2.5000*%
%ADD38R,1.6000X2.5000*%
%ADD39R,3.2000X1.0000*%
%ADD40R,1.0000X3.2000*%
%ADD41O,1.2500102X0.2999994*%
%ADD42O,2.999994X1.9999959999999999*%
%ADD43R,3.2000X4.2000*%
%ADD44R,0.7000X0.2500*%
%ADD45R,0.2500X0.7000*%
%ADD46R,1.6000X1.6000*%
%ADD47R,0.7000X0.7000*%
%ADD48O,3.4999676X1.1999976*%
%ADD49R,4.0000X1.2000*%

%LPD*%
D10*
G01*
X-2505405Y-4190745D03*
G01*
X-2428417Y-4109745D03*
G01*
X-2345410Y-4019753D03*
D11*
G01*
X-9423679Y-6102705D03*
G01*
X-9817354Y843026D03*
G01*
X409447Y823976D03*
G01*
X335534Y-6195313D03*
G01*
X-3420033Y-4118863D03*
G01*
X-2770047Y-4235551D03*
D12*
G01*
X-10512806Y-2024887D03*
G01*
X-10512806Y-2116328D03*
D13*
G01*
X-5586602Y-4871465D03*
G01*
X-5410606Y-4871465D03*
D14*
G01*
X-10216134Y-4825745D03*
G01*
X-9987534Y-4825745D03*
D15*
G01*
X19989Y0D03*
G01*
X-8282863Y0D03*
D16*
G01*
X-6777558Y-3170428D03*
G01*
X-6777558Y-2994405D03*
D17*
G01*
X-996543Y-5095697D03*
G01*
X-2266543Y-5545683D03*
G01*
X-1250543Y-5095697D03*
G01*
X-2012543Y-5545683D03*
G01*
X-1250543Y-5545683D03*
G01*
X-2012543Y-5095697D03*
G01*
X-1504543Y-5545683D03*
G01*
X-1758543Y-5095697D03*
G01*
X-1504543Y-5095697D03*
G01*
X-1758543Y-5545683D03*
G01*
X-996543Y-5545683D03*
G01*
X-2266543Y-5095697D03*
D19*
G01*
X-9120682Y-90423D03*
G01*
X-9080677Y-90423D03*
G01*
X-9040672Y-90423D03*
G01*
X-9000667Y-90423D03*
G01*
X-8960662Y-90423D03*
G01*
X-8960662Y153060D03*
G01*
X-9000667Y153060D03*
G01*
X-9040672Y153060D03*
G01*
X-9080677Y153060D03*
G01*
X-9120682Y153060D03*
D20*
G01*
X-9040672Y31318D03*
D21*
G01*
X-6527571Y-2543403D03*
D22*
G01*
X-6277559Y-2393416D03*
G01*
X-6277559Y-2443403D03*
G01*
X-6277559Y-2493416D03*
G01*
X-6277559Y-2693415D03*
G01*
X-6277559Y-2643403D03*
G01*
X-6277559Y-2593416D03*
G01*
X-6277559Y-2543403D03*
G01*
X-6777558Y-2393416D03*
G01*
X-6777558Y-2443403D03*
G01*
X-6777558Y-2493416D03*
G01*
X-6777558Y-2693415D03*
G01*
X-6777558Y-2643403D03*
G01*
X-6777558Y-2593416D03*
G01*
X-6777558Y-2543403D03*
D23*
G01*
X-6377559Y-2793415D03*
G01*
X-6427571Y-2793415D03*
G01*
X-6477558Y-2793415D03*
G01*
X-6677558Y-2793415D03*
G01*
X-6627571Y-2793415D03*
G01*
X-6577558Y-2793415D03*
G01*
X-6527571Y-2793415D03*
G01*
X-6377559Y-2293416D03*
G01*
X-6427571Y-2293416D03*
G01*
X-6477558Y-2293416D03*
G01*
X-6677558Y-2293416D03*
G01*
X-6627571Y-2293416D03*
G01*
X-6577558Y-2293416D03*
G01*
X-6527571Y-2293416D03*
D12*
G01*
X-10268280Y-1332712D03*
G01*
X-10268280Y-1424152D03*
D24*
G01*
X-323900Y-5733237D03*
D25*
G01*
X-384860Y-5063312D03*
G01*
X-384860Y-5173167D03*
G01*
X-384860Y-5283022D03*
G01*
X-384860Y-5392877D03*
G01*
X-384860Y-5502732D03*
G01*
X-384860Y-5612587D03*
G01*
X-384860Y-4733747D03*
G01*
X-384860Y-4843602D03*
G01*
X-384860Y-4953457D03*
D26*
G01*
X-326440Y-4263847D03*
D27*
G01*
X633679Y-4173677D03*
G01*
X638759Y-5731967D03*
D28*
G01*
X-3881043Y-3075838D03*
G01*
X-3881043Y-3025825D03*
G01*
X-3881043Y-2975838D03*
G01*
X-3881043Y-2925826D03*
G01*
X-3881043Y-2875838D03*
G01*
X-3881043Y-2825826D03*
G01*
X-3881043Y-2775838D03*
G01*
X-3881043Y-2725826D03*
G01*
X-3881043Y-2675839D03*
G01*
X-3881043Y-2625826D03*
G01*
X-3881043Y-2575839D03*
G01*
X-3881043Y-2525826D03*
G01*
X-3881043Y-2475839D03*
G01*
X-3881043Y-2425827D03*
G01*
X-3881043Y-2375839D03*
G01*
X-3881043Y-2325827D03*
D29*
G01*
X-2870047Y-2116836D03*
G01*
X-2920034Y-2116836D03*
G01*
X-2970047Y-2116836D03*
G01*
X-3020034Y-2116836D03*
G01*
X-3070047Y-2116836D03*
G01*
X-3120034Y-2116836D03*
G01*
X-3170047Y-2116836D03*
G01*
X-3220034Y-2116836D03*
G01*
X-3270046Y-2116836D03*
G01*
X-3320034Y-2116836D03*
G01*
X-3370046Y-2116836D03*
G01*
X-3420033Y-2116836D03*
G01*
X-3470046Y-2116836D03*
G01*
X-3520033Y-2116836D03*
G01*
X-3570046Y-2116836D03*
G01*
X-3620033Y-2116836D03*
G01*
X-3670045Y-3735831D03*
G01*
X-3620033Y-3735831D03*
G01*
X-3570046Y-3735831D03*
G01*
X-3520033Y-3735831D03*
G01*
X-3470046Y-3735831D03*
G01*
X-3420033Y-3735831D03*
G01*
X-3370046Y-3735831D03*
G01*
X-3320034Y-3735831D03*
G01*
X-3270046Y-3735831D03*
G01*
X-3220034Y-3735831D03*
G01*
X-3170047Y-3735831D03*
G01*
X-3120034Y-3735831D03*
G01*
X-3070047Y-3735831D03*
G01*
X-3020034Y-3735831D03*
G01*
X-2970047Y-3735831D03*
G01*
X-2920034Y-3735831D03*
D28*
G01*
X-3881043Y-3525824D03*
D29*
G01*
X-2820034Y-2116836D03*
G01*
X-2770047Y-2116836D03*
G01*
X-2720035Y-2116836D03*
G01*
X-2670047Y-2116836D03*
G01*
X-2620035Y-2116836D03*
G01*
X-2570048Y-2116836D03*
G01*
X-2520035Y-2116836D03*
G01*
X-2470048Y-2116836D03*
G01*
X-3670045Y-2116836D03*
D28*
G01*
X-3881043Y-3475837D03*
G01*
X-3881043Y-3425825D03*
G01*
X-3881043Y-3375837D03*
G01*
X-3881043Y-3325825D03*
G01*
X-3881043Y-3275837D03*
G01*
X-3881043Y-3225825D03*
G01*
X-3881043Y-3175838D03*
G01*
X-3881043Y-3125825D03*
D29*
G01*
X-2520035Y-3735831D03*
G01*
X-2570048Y-3735831D03*
G01*
X-2620035Y-3735831D03*
G01*
X-2670047Y-3735831D03*
G01*
X-2720035Y-3735831D03*
G01*
X-2770047Y-3735831D03*
G01*
X-2820034Y-3735831D03*
G01*
X-2870047Y-3735831D03*
G01*
X-2470048Y-3735831D03*
D28*
G01*
X-2260041Y-3275837D03*
G01*
X-2260041Y-3325825D03*
G01*
X-2260041Y-3375837D03*
G01*
X-2260041Y-3425825D03*
G01*
X-2260041Y-3475837D03*
G01*
X-2260041Y-3525824D03*
G01*
X-2260041Y-3225825D03*
G01*
X-2260041Y-2925826D03*
G01*
X-2260041Y-2975838D03*
G01*
X-2260041Y-3025825D03*
G01*
X-2260041Y-3075838D03*
G01*
X-2260041Y-3125825D03*
G01*
X-2260041Y-3175838D03*
G01*
X-2260041Y-2875838D03*
G01*
X-2260041Y-2575839D03*
G01*
X-2260041Y-2625826D03*
G01*
X-2260041Y-2675839D03*
G01*
X-2260041Y-2725826D03*
G01*
X-2260041Y-2775838D03*
G01*
X-2260041Y-2825826D03*
G01*
X-2260041Y-2525826D03*
G01*
X-2260041Y-2325827D03*
G01*
X-2260041Y-2375839D03*
G01*
X-2260041Y-2425827D03*
G01*
X-2260041Y-2475839D03*
D30*
G01*
X-8908948Y321310D03*
G01*
X-9000388Y321310D03*
D31*
G01*
X-10108184Y-5157139D03*
G01*
X-9918954Y-5399709D03*
G01*
X-9918954Y-5157139D03*
G01*
X-10108184Y-5399709D03*
D32*
G01*
X-6467957Y-1346911D03*
G01*
X-5909157Y-1473911D03*
G01*
X-5909157Y-1346911D03*
G01*
X-5909157Y-1727911D03*
G01*
X-6467957Y-1727911D03*
G01*
X-6467957Y-1473911D03*
G01*
X-6467957Y-1600911D03*
G01*
X-5909157Y-1600911D03*
D33*
G01*
X-8730665Y150317D03*
G01*
X-8730665Y-78282D03*
D12*
G01*
X-9828402Y-901014D03*
G01*
X-9828428Y-992454D03*
G01*
X-9955402Y-986459D03*
G01*
X-9955402Y-895019D03*
G01*
X-5870575Y-2818688D03*
G01*
X-5870575Y-2910128D03*
D30*
G01*
X-757275Y-5177409D03*
G01*
X-665835Y-5177409D03*
G01*
X-668858Y-5047411D03*
G01*
X-760298Y-5047411D03*
G01*
X-5993384Y-2564688D03*
G01*
X-5901943Y-2564688D03*
G01*
X-5981293Y-2291410D03*
G01*
X-5889853Y-2291410D03*
G01*
X-7324852Y-2667406D03*
G01*
X-7416291Y-2667406D03*
G01*
X-7415174Y-2393137D03*
G01*
X-7323734Y-2393137D03*
G01*
X-7416165Y-2265146D03*
G01*
X-7324725Y-2265146D03*
D12*
G01*
X-9412681Y-308965D03*
G01*
X-9412681Y-400405D03*
G01*
X-9412681Y-573963D03*
G01*
X-9412681Y-665403D03*
G01*
X-5739561Y-2725699D03*
G01*
X-5739561Y-2817139D03*
G01*
X-5745556Y-2592146D03*
G01*
X-5745556Y-2500706D03*
D30*
G01*
X-6470954Y-1893696D03*
G01*
X-6562394Y-1893696D03*
G01*
X-5999276Y-1900428D03*
G01*
X-5907836Y-1900428D03*
G01*
X-7323836Y-2532405D03*
G01*
X-7415275Y-2532405D03*
G01*
X-2053590Y-2047798D03*
G01*
X-2145029Y-2047798D03*
D12*
G01*
X-2028545Y-3305606D03*
G01*
X-2028545Y-3397046D03*
D30*
G01*
X-1885264Y-4221327D03*
G01*
X-1793824Y-4221327D03*
G01*
X-2060829Y-4227321D03*
G01*
X-2152268Y-4227321D03*
D12*
G01*
X-10307574Y-5249138D03*
G01*
X-10307574Y-5157698D03*
D13*
G01*
X-9755555Y-4805426D03*
G01*
X-9579559Y-4805426D03*
D12*
G01*
X-9794697Y-5631154D03*
G01*
X-9794697Y-5722594D03*
G01*
X-10478668Y-2486405D03*
G01*
X-10478668Y-2394965D03*
D34*
G01*
X-2053539Y-4046321D03*
G01*
X-1957019Y-3823131D03*
G01*
X-1863039Y-4046321D03*
D35*
G01*
X-4076572Y-1977415D03*
G01*
X-4076572Y-1257427D03*
D36*
G01*
X-3826560Y-1680921D03*
G01*
X-3826560Y-1553921D03*
D16*
G01*
X-10509300Y-4439818D03*
G01*
X-10509300Y-4263821D03*
D13*
G01*
X-2830575Y-1322425D03*
G01*
X-3006572Y-1322425D03*
D12*
G01*
X-3215716Y-4110151D03*
G01*
X-3215716Y-4201591D03*
D30*
G01*
X-2030958Y-4491685D03*
G01*
X-2122398Y-4491685D03*
G01*
X-2959404Y-1506702D03*
G01*
X-2867964Y-1506702D03*
D13*
G01*
X-7237679Y-1999691D03*
G01*
X-7061682Y-1999691D03*
D30*
G01*
X-7132396Y-2172690D03*
G01*
X-7040956Y-2172690D03*
D33*
G01*
X-9389414Y-950137D03*
G01*
X-9389414Y-1178737D03*
G01*
X-10466273Y-1452016D03*
G01*
X-10466273Y-1223416D03*
D13*
G01*
X-850569Y-4732426D03*
G01*
X-674573Y-4732426D03*
D30*
G01*
X-669848Y-4914417D03*
G01*
X-761288Y-4914417D03*
D12*
G01*
X-5999556Y-2911144D03*
G01*
X-5999556Y-2819704D03*
D16*
G01*
X-6170675Y-3213684D03*
G01*
X-6170675Y-3037687D03*
D12*
G01*
X-6338671Y-3019983D03*
G01*
X-6338671Y-3111423D03*
D16*
G01*
X-6993559Y-3170428D03*
G01*
X-6993559Y-2994405D03*
G01*
X-7203668Y-3172688D03*
G01*
X-7203668Y-2996692D03*
D12*
G01*
X-9272676Y-309981D03*
G01*
X-9272676Y-401421D03*
G01*
X-9275673Y-573963D03*
G01*
X-9275673Y-665403D03*
D30*
G01*
X-5998387Y-2695702D03*
G01*
X-5906947Y-2695702D03*
G01*
X-6690944Y-1891690D03*
G01*
X-6782384Y-1891690D03*
D12*
G01*
X-6739559Y-1569135D03*
G01*
X-6739559Y-1477695D03*
G01*
X-5586679Y-1600403D03*
G01*
X-5586679Y-1508963D03*
G01*
X-9756571Y-4995697D03*
G01*
X-9756571Y-5087137D03*
D37*
G01*
X-10558043Y-784301D03*
G01*
X-10549153Y-115011D03*
D38*
G01*
X-10217683Y-776681D03*
G01*
X-9826523Y-98501D03*
G01*
X-9649993Y-776681D03*
G01*
X-9596653Y-98501D03*
D39*
G01*
X-10191013Y-4516831D03*
G01*
X-9638563Y-4516831D03*
G01*
X-10191013Y-4262958D03*
G01*
X-9638563Y-4262958D03*
G01*
X-10191013Y-4009085D03*
G01*
X-9638563Y-4009085D03*
G01*
X-10191013Y-3755212D03*
G01*
X-9638563Y-3755212D03*
G01*
X-10191013Y-3501339D03*
G01*
X-9638563Y-3501339D03*
G01*
X-10191013Y-3247466D03*
G01*
X-10191013Y-2993593D03*
G01*
X-10191013Y-2485847D03*
G01*
X-10191013Y-2739720D03*
G01*
X-10191013Y-2231974D03*
G01*
X-10191013Y-1978101D03*
G01*
X-9638563Y-3247466D03*
G01*
X-9638563Y-2993593D03*
G01*
X-9638563Y-2739720D03*
G01*
X-9638563Y-2485847D03*
G01*
X-9638563Y-2231974D03*
G01*
X-9638563Y-1978101D03*
D40*
G01*
X-6476263Y-5126431D03*
G01*
X-6476263Y-5678881D03*
G01*
X-6730136Y-5678881D03*
G01*
X-6730136Y-5126431D03*
G01*
X-6988073Y-5678881D03*
G01*
X-7241946Y-5678881D03*
G01*
X-7495819Y-5678881D03*
G01*
X-7749692Y-5678881D03*
G01*
X-8003565Y-5678881D03*
G01*
X-8257438Y-5678881D03*
G01*
X-6988073Y-5126431D03*
G01*
X-7241946Y-5126431D03*
G01*
X-7749692Y-5126431D03*
G01*
X-7495819Y-5126431D03*
G01*
X-8003565Y-5126431D03*
G01*
X-8257438Y-5126431D03*
G01*
X-8511311Y-5678881D03*
G01*
X-8511311Y-5126431D03*
G01*
X-8765184Y-5678881D03*
G01*
X-8765184Y-5126431D03*
G01*
X-9019057Y-5678881D03*
G01*
X-9019057Y-5126431D03*
G01*
X-9272930Y-5678881D03*
G01*
X-9272930Y-5126431D03*
G01*
X-9526803Y-5678881D03*
G01*
X-9526803Y-5126431D03*
D39*
G01*
X-5358663Y-4514291D03*
G01*
X-4806213Y-4514291D03*
G01*
X-5358663Y-4260418D03*
G01*
X-4806213Y-4260418D03*
G01*
X-5358663Y-4006545D03*
G01*
X-4806213Y-4006545D03*
G01*
X-5358663Y-3752672D03*
G01*
X-4806213Y-3752672D03*
G01*
X-5358663Y-3498799D03*
G01*
X-4806213Y-3498799D03*
G01*
X-5358663Y-3244926D03*
G01*
X-5358663Y-2991053D03*
G01*
X-5358663Y-2483307D03*
G01*
X-5358663Y-2737180D03*
G01*
X-5358663Y-2229434D03*
G01*
X-5358663Y-1975561D03*
G01*
X-4806213Y-3244926D03*
G01*
X-4806213Y-2991053D03*
G01*
X-4806213Y-2737180D03*
G01*
X-4806213Y-2483307D03*
G01*
X-4806213Y-2229434D03*
G01*
X-4806213Y-1975561D03*
D41*
G01*
X-1781073Y-3627831D03*
G01*
X-1781073Y-3577615D03*
G01*
X-1781073Y-3527399D03*
G01*
X-1781073Y-3477183D03*
G01*
X-1781073Y-3426968D03*
G01*
X-1781073Y-3376777D03*
G01*
X-1781073Y-3326561D03*
G01*
X-1781073Y-3276345D03*
G01*
X-1781073Y-3226130D03*
G01*
X-1781073Y-3175914D03*
G01*
X-1781073Y-3125698D03*
G01*
X-1781073Y-3075482D03*
G01*
X-1781073Y-3025267D03*
G01*
X-1781073Y-2975051D03*
G01*
X-1781073Y-2924835D03*
G01*
X-1781073Y-2874619D03*
G01*
X-1781073Y-2824403D03*
G01*
X-1781073Y-2774187D03*
G01*
X-1781073Y-2723997D03*
G01*
X-1781073Y-2673781D03*
G01*
X-1781073Y-2623565D03*
G01*
X-1781073Y-2573350D03*
G01*
X-1781073Y-2523134D03*
G01*
X-1781073Y-2472918D03*
G01*
X-1781073Y-2422702D03*
G01*
X-1781073Y-2372487D03*
G01*
X-1781073Y-2322271D03*
G01*
X-1781073Y-2272055D03*
G01*
X-1781073Y-2221839D03*
G01*
X-1781073Y-2171623D03*
G01*
X-1781073Y-2121407D03*
G01*
X-1781073Y-2071217D03*
G01*
X-1781073Y-2021001D03*
G01*
X-1781073Y-1970786D03*
G01*
X-1781073Y-1920570D03*
G01*
X-1781073Y-1870354D03*
G01*
X-1781073Y-1820138D03*
G01*
X-1781073Y-1769922D03*
G01*
X-1781073Y-1719706D03*
G01*
X-1781073Y-1669491D03*
D42*
G01*
X-1553743Y-1515821D03*
G01*
X-1547393Y-3778961D03*
D12*
G01*
X-3069716Y-4203598D03*
G01*
X-3069691Y-4112158D03*
D13*
G01*
X-6209563Y-5752414D03*
G01*
X-6033566Y-5752414D03*
G01*
X-6030569Y-5533415D03*
G01*
X-5854572Y-5533415D03*
D43*
G01*
X-2649448Y-5542356D03*
G01*
X-5529452Y-5542356D03*
D44*
G01*
X-9837420Y-1353743D03*
G01*
X-9837420Y-1303731D03*
G01*
X-9837420Y-1253744D03*
G01*
X-9837420Y-1203731D03*
D45*
G01*
X-9902418Y-1138732D03*
G01*
X-9952405Y-1138732D03*
G01*
X-10002418Y-1138732D03*
G01*
X-10052405Y-1138732D03*
D44*
G01*
X-10117404Y-1203731D03*
G01*
X-10117404Y-1253744D03*
G01*
X-10117404Y-1303731D03*
G01*
X-10117404Y-1353743D03*
D45*
G01*
X-10052405Y-1418742D03*
G01*
X-10002418Y-1418742D03*
G01*
X-9952405Y-1418742D03*
G01*
X-9902418Y-1418742D03*
D46*
G01*
X-9977424Y-1278737D03*
D30*
G01*
X-9330690Y-1385747D03*
G01*
X-9422129Y-1385747D03*
D12*
G01*
X-10053421Y-1616024D03*
G01*
X-10053421Y-1707464D03*
D30*
G01*
X-10533989Y-1751431D03*
G01*
X-10442549Y-1751431D03*
G01*
X-9338690Y-1523745D03*
G01*
X-9430131Y-1523745D03*
G01*
X-9585706Y-1000734D03*
G01*
X-9677145Y-1000734D03*
G01*
X-10417708Y-1006754D03*
G01*
X-10509148Y-1006754D03*
D12*
G01*
X-9926421Y-1615033D03*
G01*
X-9926421Y-1706473D03*
G01*
X-9275673Y90576D03*
G01*
X-9275673Y182016D03*
D47*
G01*
X-10646282Y-1050417D03*
G01*
X-10646282Y-1204087D03*
G01*
X-10646282Y-1629435D03*
G01*
X-10646282Y-1475765D03*
D48*
G01*
X-484682Y-508685D03*
D49*
G01*
X-1114679Y-928700D03*
G01*
X-1114679Y-288696D03*
D48*
G01*
X-484682Y-708685D03*
M02*
