G04 Layer: BottomSilkscreenLayer*
G04 EasyEDA v6.5.46, 2026-07-24 11:31:18*
G04 Gerber Generator version 0.2*
G04 Scale: 100 percent, Rotated: No, Reflected: No *
G04 Dimensions in millimeters *
G04 leading zeros omitted , absolute positions ,4 integer and 5 decimal *
%FSLAX45Y45*%
%MOMM*%

%ADD10C,0.1200*%
%ADD11C,0.3000*%
%ADD12C,0.2540*%

%LPD*%
G36*
X-4878324Y-6001359D02*
G01*
X-4878324Y-6026759D01*
X-4467402Y-6026759D01*
X-4467402Y-6101689D01*
X-4276394Y-6101689D01*
X-4269790Y-6101892D01*
X-4263593Y-6102502D01*
X-4257852Y-6103569D01*
X-4252518Y-6105093D01*
X-4247591Y-6107023D01*
X-4243120Y-6109360D01*
X-4239056Y-6112103D01*
X-4235450Y-6115304D01*
X-4232249Y-6118961D01*
X-4229455Y-6123025D01*
X-4227118Y-6127496D01*
X-4225188Y-6132372D01*
X-4223715Y-6137706D01*
X-4222648Y-6143498D01*
X-4221988Y-6149644D01*
X-4221784Y-6156299D01*
X-4221784Y-6176873D01*
X-4194606Y-6176873D01*
X-4194606Y-6081369D01*
X-4194403Y-6074714D01*
X-4193743Y-6068568D01*
X-4192676Y-6062776D01*
X-4191203Y-6057442D01*
X-4189272Y-6052566D01*
X-4186936Y-6048095D01*
X-4184142Y-6044031D01*
X-4180941Y-6040374D01*
X-4177334Y-6037173D01*
X-4173270Y-6034430D01*
X-4168800Y-6032093D01*
X-4163872Y-6030163D01*
X-4158538Y-6028639D01*
X-4152798Y-6027572D01*
X-4146600Y-6026962D01*
X-4139996Y-6026759D01*
X-3812590Y-6026759D01*
X-3812590Y-6101689D01*
X-3635298Y-6101689D01*
X-3629304Y-6101232D01*
X-3625037Y-6100013D01*
X-3622446Y-6097930D01*
X-3621582Y-6095085D01*
X-3621582Y-6026759D01*
X-3566972Y-6026759D01*
X-3566972Y-6101689D01*
X-3567836Y-6109360D01*
X-3570427Y-6116523D01*
X-3574694Y-6123076D01*
X-3580688Y-6129121D01*
X-3574694Y-6135014D01*
X-3570427Y-6141466D01*
X-3567836Y-6148578D01*
X-3566972Y-6156299D01*
X-3566972Y-6176873D01*
X-3567176Y-6183477D01*
X-3567836Y-6189675D01*
X-3568903Y-6195415D01*
X-3570376Y-6200749D01*
X-3572306Y-6205626D01*
X-3574643Y-6210147D01*
X-3577437Y-6214160D01*
X-3580637Y-6217818D01*
X-3584244Y-6221018D01*
X-3588308Y-6223762D01*
X-3592779Y-6226149D01*
X-3597706Y-6228029D01*
X-3603040Y-6229553D01*
X-3608781Y-6230620D01*
X-3614978Y-6231229D01*
X-3621582Y-6231483D01*
X-3539794Y-6231483D01*
X-3539794Y-6176873D01*
X-3430574Y-6176873D01*
X-3430574Y-6026759D01*
X-3171494Y-6026759D01*
X-3148126Y-6067653D01*
X-3030778Y-6067653D01*
X-3007664Y-6026759D01*
X-2516428Y-6026759D01*
X-2493314Y-6067653D01*
X-2375966Y-6067653D01*
X-2352852Y-6026759D01*
X-2284526Y-6026759D01*
X-2369542Y-6176873D01*
X-2257348Y-6176873D01*
X-2257348Y-6081115D01*
X-2257145Y-6074511D01*
X-2256485Y-6068364D01*
X-2255418Y-6062624D01*
X-2253945Y-6057290D01*
X-2252014Y-6052413D01*
X-2249678Y-6047994D01*
X-2246884Y-6043930D01*
X-2243683Y-6040323D01*
X-2240076Y-6037122D01*
X-2236012Y-6034379D01*
X-2231542Y-6032042D01*
X-2226614Y-6030112D01*
X-2221280Y-6028639D01*
X-2215540Y-6027572D01*
X-2209342Y-6026962D01*
X-2202738Y-6026759D01*
X-1957120Y-6026759D01*
X-1902510Y-6027013D01*
X-1902510Y-6101689D01*
X-1837740Y-6101689D01*
X-1752650Y-6026759D01*
X-1684324Y-6026759D01*
X-1800402Y-6129121D01*
X-1684324Y-6231483D01*
X-1752650Y-6231483D01*
X-1837740Y-6156299D01*
X-1902510Y-6156299D01*
X-1902510Y-6231483D01*
X-1957120Y-6231483D01*
X-1957120Y-6026759D01*
X-1984552Y-6026759D01*
X-1984552Y-6081369D01*
X-2189022Y-6081369D01*
X-2195017Y-6082182D01*
X-2199335Y-6084773D01*
X-2201875Y-6089040D01*
X-2202738Y-6095085D01*
X-2202738Y-6163157D01*
X-2201875Y-6169152D01*
X-2199335Y-6173419D01*
X-2195017Y-6176010D01*
X-2189022Y-6176873D01*
X-1984552Y-6176873D01*
X-1984552Y-6231483D01*
X-2202738Y-6231483D01*
X-2209342Y-6231229D01*
X-2215540Y-6230620D01*
X-2221280Y-6229553D01*
X-2226614Y-6228029D01*
X-2231542Y-6226149D01*
X-2236012Y-6223762D01*
X-2240076Y-6221018D01*
X-2243683Y-6217818D01*
X-2246884Y-6214160D01*
X-2249678Y-6210147D01*
X-2252014Y-6205626D01*
X-2253945Y-6200749D01*
X-2255418Y-6195415D01*
X-2256485Y-6189675D01*
X-2257145Y-6183477D01*
X-2257348Y-6176873D01*
X-2369542Y-6176873D01*
X-2377998Y-6191351D01*
X-2382672Y-6198311D01*
X-2387447Y-6204610D01*
X-2392324Y-6210249D01*
X-2397252Y-6215227D01*
X-2402332Y-6219545D01*
X-2407462Y-6223152D01*
X-2412695Y-6226149D01*
X-2418080Y-6228486D01*
X-2423515Y-6230112D01*
X-2429002Y-6231128D01*
X-2434640Y-6231483D01*
X-2440330Y-6231128D01*
X-2445867Y-6230112D01*
X-2451354Y-6228486D01*
X-2456738Y-6226149D01*
X-2461971Y-6223152D01*
X-2467152Y-6219545D01*
X-2472232Y-6215227D01*
X-2477211Y-6210249D01*
X-2482088Y-6204610D01*
X-2486863Y-6198311D01*
X-2491536Y-6191351D01*
X-2496108Y-6183731D01*
X-2584754Y-6026759D01*
X-2857550Y-6026759D01*
X-2857550Y-6101689D01*
X-2666542Y-6101689D01*
X-2659938Y-6101892D01*
X-2653741Y-6102502D01*
X-2648000Y-6103569D01*
X-2642666Y-6105093D01*
X-2637739Y-6107023D01*
X-2633268Y-6109360D01*
X-2629204Y-6112103D01*
X-2625598Y-6115304D01*
X-2622397Y-6118961D01*
X-2619603Y-6123025D01*
X-2617266Y-6127496D01*
X-2615336Y-6132372D01*
X-2613863Y-6137706D01*
X-2612796Y-6143498D01*
X-2612136Y-6149644D01*
X-2611932Y-6156299D01*
X-2611932Y-6176873D01*
X-2612136Y-6183477D01*
X-2612796Y-6189675D01*
X-2613863Y-6195415D01*
X-2615336Y-6200749D01*
X-2617266Y-6205626D01*
X-2619603Y-6210147D01*
X-2622397Y-6214160D01*
X-2625598Y-6217818D01*
X-2629204Y-6221018D01*
X-2633268Y-6223762D01*
X-2637739Y-6226149D01*
X-2642666Y-6228029D01*
X-2648000Y-6229553D01*
X-2653741Y-6230620D01*
X-2659938Y-6231229D01*
X-2666542Y-6231483D01*
X-2912160Y-6231483D01*
X-2912160Y-6026759D01*
X-2939592Y-6026759D01*
X-3028238Y-6183731D01*
X-3032810Y-6191351D01*
X-3037484Y-6198311D01*
X-3042259Y-6204610D01*
X-3047136Y-6210249D01*
X-3052064Y-6215227D01*
X-3057144Y-6219545D01*
X-3062274Y-6223152D01*
X-3067507Y-6226149D01*
X-3072892Y-6228486D01*
X-3078327Y-6230112D01*
X-3083814Y-6231128D01*
X-3089452Y-6231483D01*
X-3095142Y-6231128D01*
X-3100679Y-6230112D01*
X-3106166Y-6228486D01*
X-3111550Y-6226149D01*
X-3116783Y-6223152D01*
X-3121964Y-6219545D01*
X-3127044Y-6215227D01*
X-3132023Y-6210249D01*
X-3136900Y-6204610D01*
X-3141675Y-6198311D01*
X-3146348Y-6191351D01*
X-3150920Y-6183731D01*
X-3239566Y-6026759D01*
X-3430574Y-6026759D01*
X-3375964Y-6027013D01*
X-3375964Y-6176873D01*
X-3266998Y-6176873D01*
X-3266998Y-6231483D01*
X-3867200Y-6231483D01*
X-3867200Y-6026759D01*
X-3948988Y-6026759D01*
X-3942384Y-6026962D01*
X-3936187Y-6027572D01*
X-3930446Y-6028639D01*
X-3925112Y-6030112D01*
X-3920185Y-6032042D01*
X-3915714Y-6034379D01*
X-3911650Y-6037122D01*
X-3908044Y-6040323D01*
X-3904843Y-6043930D01*
X-3902049Y-6047994D01*
X-3899712Y-6052413D01*
X-3897782Y-6057290D01*
X-3896309Y-6062624D01*
X-3895242Y-6068364D01*
X-3894582Y-6074511D01*
X-3894378Y-6081115D01*
X-3894378Y-6176873D01*
X-3894582Y-6183477D01*
X-3895242Y-6189675D01*
X-3896309Y-6195415D01*
X-3897782Y-6200749D01*
X-3899712Y-6205626D01*
X-3902049Y-6210147D01*
X-3904843Y-6214160D01*
X-3908044Y-6217818D01*
X-3911650Y-6221018D01*
X-3915714Y-6223762D01*
X-3920185Y-6226149D01*
X-3925112Y-6228029D01*
X-3930446Y-6229553D01*
X-3936187Y-6230620D01*
X-3942384Y-6231229D01*
X-3948988Y-6231483D01*
X-4139996Y-6231483D01*
X-4146600Y-6231229D01*
X-4152798Y-6230620D01*
X-4158538Y-6229553D01*
X-4163872Y-6228029D01*
X-4168800Y-6226149D01*
X-4173270Y-6223762D01*
X-4177334Y-6221018D01*
X-4180941Y-6217818D01*
X-4184142Y-6214160D01*
X-4186936Y-6210147D01*
X-4189272Y-6205626D01*
X-4191203Y-6200749D01*
X-4192676Y-6195415D01*
X-4193743Y-6189675D01*
X-4194403Y-6183477D01*
X-4194606Y-6176873D01*
X-4221784Y-6176873D01*
X-4221988Y-6183477D01*
X-4222648Y-6189675D01*
X-4223715Y-6195415D01*
X-4225188Y-6200749D01*
X-4227118Y-6205626D01*
X-4229455Y-6210147D01*
X-4232249Y-6214160D01*
X-4235450Y-6217818D01*
X-4239056Y-6221018D01*
X-4243120Y-6223762D01*
X-4247591Y-6226149D01*
X-4252518Y-6228029D01*
X-4257852Y-6229553D01*
X-4263593Y-6230620D01*
X-4269790Y-6231229D01*
X-4276394Y-6231483D01*
X-4522012Y-6231483D01*
X-4522012Y-6026759D01*
X-4878324Y-6026759D01*
X-4878324Y-6256782D01*
X-1391920Y-6256782D01*
X-1328064Y-6129070D01*
X-1391920Y-6001359D01*
G37*
G36*
X-4126280Y-6081369D02*
G01*
X-4132275Y-6082182D01*
X-4136593Y-6084773D01*
X-4139133Y-6089040D01*
X-4139996Y-6095085D01*
X-4139996Y-6163157D01*
X-4139133Y-6169152D01*
X-4136593Y-6173419D01*
X-4132275Y-6176010D01*
X-4126280Y-6176873D01*
X-3962704Y-6176873D01*
X-3956710Y-6176010D01*
X-3952443Y-6173419D01*
X-3949852Y-6169152D01*
X-3948988Y-6163157D01*
X-3948988Y-6095085D01*
X-3949852Y-6089040D01*
X-3952443Y-6084773D01*
X-3956710Y-6082182D01*
X-3962704Y-6081369D01*
G37*
G36*
X-3117138Y-6122263D02*
G01*
X-3089452Y-6171285D01*
X-3061766Y-6122263D01*
G37*
G36*
X-2462326Y-6122263D02*
G01*
X-2434640Y-6171285D01*
X-2406954Y-6122263D01*
G37*
G36*
X-4467402Y-6156299D02*
G01*
X-4467402Y-6176873D01*
X-4290110Y-6176873D01*
X-4284116Y-6176416D01*
X-4279849Y-6175146D01*
X-4277258Y-6173012D01*
X-4276394Y-6170015D01*
X-4276394Y-6163157D01*
X-4277258Y-6160160D01*
X-4279849Y-6157976D01*
X-4284116Y-6156706D01*
X-4290110Y-6156299D01*
G37*
G36*
X-3812590Y-6156299D02*
G01*
X-3812590Y-6176873D01*
X-3635298Y-6176873D01*
X-3629304Y-6176416D01*
X-3625037Y-6175146D01*
X-3622446Y-6173012D01*
X-3621582Y-6170015D01*
X-3621582Y-6163157D01*
X-3622446Y-6160160D01*
X-3625037Y-6157976D01*
X-3629304Y-6156706D01*
X-3635298Y-6156299D01*
G37*
G36*
X-2857550Y-6156299D02*
G01*
X-2857550Y-6176873D01*
X-2680258Y-6176873D01*
X-2674264Y-6176416D01*
X-2669997Y-6175146D01*
X-2667406Y-6173012D01*
X-2666542Y-6170015D01*
X-2666542Y-6163157D01*
X-2667406Y-6160160D01*
X-2669997Y-6157976D01*
X-2674264Y-6156706D01*
X-2680258Y-6156299D01*
G37*
G36*
X-9146133Y505053D02*
G01*
X-9152382Y504850D01*
X-9158528Y504190D01*
X-9164523Y503174D01*
X-9170416Y501802D01*
X-9176105Y500024D01*
X-9181642Y497890D01*
X-9187027Y495401D01*
X-9192209Y492607D01*
X-9197187Y489458D01*
X-9201912Y486054D01*
X-9206433Y482295D01*
X-9210700Y478332D01*
X-9214662Y474065D01*
X-9218371Y469544D01*
X-9221825Y464820D01*
X-9224924Y459841D01*
X-9227769Y454659D01*
X-9230258Y449326D01*
X-9232392Y443738D01*
X-9234170Y438048D01*
X-9235541Y432155D01*
X-9236557Y426161D01*
X-9237218Y420014D01*
X-9237421Y413766D01*
X-9237218Y407517D01*
X-9236557Y401370D01*
X-9235541Y395376D01*
X-9234170Y389534D01*
X-9232392Y383794D01*
X-9230258Y378256D01*
X-9227769Y372872D01*
X-9224924Y367690D01*
X-9222464Y363778D01*
X-9146184Y363778D01*
X-9146184Y465124D01*
X-9145270Y471271D01*
X-9142679Y475640D01*
X-9138310Y478231D01*
X-9132214Y479094D01*
X-9126169Y478282D01*
X-9121902Y475792D01*
X-9119311Y471678D01*
X-9118498Y465886D01*
X-9118447Y434136D01*
X-9117990Y431850D01*
X-9116720Y431495D01*
X-9114434Y431342D01*
X-9087764Y431342D01*
X-9080144Y430631D01*
X-9073337Y428498D01*
X-9067292Y424942D01*
X-9062110Y419912D01*
X-9057604Y413308D01*
X-9049156Y413308D01*
X-9048648Y429818D01*
X-9047988Y436372D01*
X-9047124Y441756D01*
X-9045854Y446481D01*
X-9044127Y451002D01*
X-9041892Y455269D01*
X-9039250Y459282D01*
X-9035542Y464007D01*
X-9031376Y468071D01*
X-9026702Y471525D01*
X-9021572Y474370D01*
X-9015933Y476554D01*
X-9009786Y478129D01*
X-9003182Y479043D01*
X-8996070Y479348D01*
X-8989009Y479043D01*
X-8982405Y478028D01*
X-8976207Y476351D01*
X-8970416Y474014D01*
X-8964980Y471220D01*
X-8960256Y467817D01*
X-8956090Y463854D01*
X-8952636Y459282D01*
X-8950045Y455066D01*
X-8947912Y450748D01*
X-8946235Y446278D01*
X-8945016Y441756D01*
X-8944102Y436676D01*
X-8943492Y430580D01*
X-8943086Y423468D01*
X-8943086Y406146D01*
X-8943492Y398068D01*
X-8944102Y391160D01*
X-8945016Y385368D01*
X-8946235Y380339D01*
X-8947912Y375666D01*
X-8950045Y371348D01*
X-8952636Y367334D01*
X-8956344Y362661D01*
X-8958084Y360984D01*
X-8938666Y360984D01*
X-8938412Y364540D01*
X-8914790Y462838D01*
X-8912910Y468426D01*
X-8910980Y472490D01*
X-8908491Y475234D01*
X-8905138Y477316D01*
X-8903106Y478231D01*
X-8898686Y479247D01*
X-8893505Y479247D01*
X-8891016Y478790D01*
X-8888679Y478078D01*
X-8884666Y475945D01*
X-8883091Y474624D01*
X-8881770Y473049D01*
X-8879992Y469595D01*
X-8878722Y465531D01*
X-8866784Y405688D01*
X-8865006Y399338D01*
X-8852306Y463092D01*
X-8850833Y468833D01*
X-8849969Y471017D01*
X-8849004Y472744D01*
X-8847836Y474218D01*
X-8846464Y475488D01*
X-8842908Y477570D01*
X-8840927Y478383D01*
X-8838844Y478942D01*
X-8834272Y479348D01*
X-8828989Y478840D01*
X-8824620Y477316D01*
X-8821115Y474776D01*
X-8818118Y470560D01*
X-8816594Y466445D01*
X-8791702Y363982D01*
X-8791600Y361746D01*
X-8784234Y361746D01*
X-8784183Y466750D01*
X-8783929Y470052D01*
X-8783370Y472135D01*
X-8782100Y473913D01*
X-8780221Y475488D01*
X-8778189Y476504D01*
X-8775903Y477062D01*
X-8772601Y477316D01*
X-8707526Y477316D01*
X-8701633Y476605D01*
X-8697417Y474421D01*
X-8694877Y470763D01*
X-8694064Y465632D01*
X-8694267Y462737D01*
X-8694877Y460248D01*
X-8695893Y458266D01*
X-8697366Y456742D01*
X-8699449Y455676D01*
X-8702192Y454863D01*
X-8705545Y454406D01*
X-8709558Y454202D01*
X-8754262Y454202D01*
X-8755481Y453999D01*
X-8756345Y453390D01*
X-8756853Y452374D01*
X-8757056Y450900D01*
X-8757056Y427024D01*
X-8756802Y425602D01*
X-8756091Y424586D01*
X-8754872Y423926D01*
X-8753246Y423722D01*
X-8714130Y423722D01*
X-8708237Y423011D01*
X-8704021Y420878D01*
X-8701481Y417322D01*
X-8700668Y412292D01*
X-8701582Y406958D01*
X-8704376Y403148D01*
X-8709050Y400862D01*
X-8715654Y400100D01*
X-8754516Y400050D01*
X-8755888Y399694D01*
X-8756497Y399034D01*
X-8756751Y397865D01*
X-8756802Y374954D01*
X-8756548Y373735D01*
X-8755938Y372872D01*
X-8754922Y372364D01*
X-8753500Y372160D01*
X-8710828Y372160D01*
X-8707018Y372008D01*
X-8703818Y371551D01*
X-8701176Y370738D01*
X-8699144Y369620D01*
X-8697671Y368046D01*
X-8696655Y366014D01*
X-8696045Y363575D01*
X-8695896Y361492D01*
X-8683650Y361492D01*
X-8683650Y465632D01*
X-8682736Y471881D01*
X-8680145Y476300D01*
X-8675776Y478993D01*
X-8669680Y479856D01*
X-8663889Y479043D01*
X-8659774Y476504D01*
X-8657285Y472287D01*
X-8656472Y466394D01*
X-8656472Y431342D01*
X-8656218Y429818D01*
X-8655608Y428701D01*
X-8654592Y428040D01*
X-8653170Y427786D01*
X-8641537Y427837D01*
X-8640165Y428091D01*
X-8639302Y428650D01*
X-8638540Y429768D01*
X-8617102Y471728D01*
X-8614816Y475284D01*
X-8612073Y477824D01*
X-8608822Y479348D01*
X-8605164Y479856D01*
X-8602319Y479653D01*
X-8599728Y478942D01*
X-8597392Y477723D01*
X-8595258Y476046D01*
X-8593480Y474116D01*
X-8592210Y471982D01*
X-8591448Y469798D01*
X-8591194Y467410D01*
X-8591296Y465734D01*
X-8592464Y462026D01*
X-8612530Y424230D01*
X-8612784Y423468D01*
X-8612022Y422452D01*
X-8609990Y421944D01*
X-8605621Y419557D01*
X-8601760Y416559D01*
X-8598408Y413054D01*
X-8595512Y408990D01*
X-8593175Y404520D01*
X-8591499Y399694D01*
X-8590483Y394462D01*
X-8590178Y388924D01*
X-8590940Y379526D01*
X-8593328Y371144D01*
X-8597290Y363778D01*
X-8602878Y357428D01*
X-8605520Y355244D01*
X-8608212Y353364D01*
X-8610854Y351942D01*
X-8613546Y350824D01*
X-8616442Y350062D01*
X-8619794Y349504D01*
X-8628024Y349046D01*
X-8671864Y349097D01*
X-8677046Y349554D01*
X-8679129Y350520D01*
X-8680856Y351840D01*
X-8682278Y353517D01*
X-8683142Y355396D01*
X-8683498Y357936D01*
X-8683650Y361492D01*
X-8695896Y361492D01*
X-8695842Y360730D01*
X-8696807Y355650D01*
X-8699703Y351993D01*
X-8704529Y349808D01*
X-8711336Y349046D01*
X-8773566Y349097D01*
X-8778392Y349554D01*
X-8780170Y350520D01*
X-8781948Y351840D01*
X-8782913Y353618D01*
X-8783624Y355854D01*
X-8784082Y358597D01*
X-8784234Y361746D01*
X-8791600Y361746D01*
X-8791803Y358343D01*
X-8792514Y355854D01*
X-8793734Y353618D01*
X-8795410Y351586D01*
X-8797544Y349961D01*
X-8799880Y348742D01*
X-8802471Y348030D01*
X-8805316Y347776D01*
X-8810345Y348488D01*
X-8814308Y350672D01*
X-8817203Y354228D01*
X-8819032Y359206D01*
X-8832240Y424992D01*
X-8833510Y434390D01*
X-8834780Y424992D01*
X-8846972Y363270D01*
X-8849207Y356311D01*
X-8852966Y351282D01*
X-8858250Y348284D01*
X-8865006Y347268D01*
X-8871864Y348284D01*
X-8877198Y351282D01*
X-8881008Y356311D01*
X-8883294Y363270D01*
X-8895486Y424992D01*
X-8896756Y434390D01*
X-8898026Y424992D01*
X-8911488Y359206D01*
X-8913063Y354228D01*
X-8915857Y350672D01*
X-8919819Y348488D01*
X-8924950Y347776D01*
X-8927846Y348030D01*
X-8930436Y348742D01*
X-8932773Y349961D01*
X-8934856Y351586D01*
X-8936482Y353517D01*
X-8937701Y355752D01*
X-8938412Y358241D01*
X-8938666Y360984D01*
X-8958084Y360984D01*
X-8960561Y358597D01*
X-8965285Y355142D01*
X-8970467Y352298D01*
X-8976106Y350113D01*
X-8982303Y348538D01*
X-8988907Y347624D01*
X-8996070Y347268D01*
X-9003233Y347624D01*
X-9009888Y348538D01*
X-9016034Y350113D01*
X-9021724Y352298D01*
X-9026855Y355142D01*
X-9031478Y358597D01*
X-9035592Y362661D01*
X-9039250Y367334D01*
X-9042044Y371805D01*
X-9044330Y376326D01*
X-9046108Y380847D01*
X-9047378Y385368D01*
X-9048140Y390652D01*
X-9048699Y397052D01*
X-9049156Y413308D01*
X-9057604Y413308D01*
X-9054846Y406857D01*
X-9053017Y398881D01*
X-9052458Y389940D01*
X-9053271Y379730D01*
X-9055760Y370840D01*
X-9059875Y363321D01*
X-9065666Y357174D01*
X-9068206Y355092D01*
X-9070848Y353314D01*
X-9073540Y351891D01*
X-9076334Y350824D01*
X-9079331Y350062D01*
X-9082735Y349504D01*
X-9090812Y349046D01*
X-9131706Y349097D01*
X-9138056Y349554D01*
X-9140647Y350520D01*
X-9142882Y351840D01*
X-9144508Y353771D01*
X-9145422Y355904D01*
X-9145981Y358902D01*
X-9146184Y363778D01*
X-9222464Y363778D01*
X-9218371Y357987D01*
X-9214662Y353466D01*
X-9210700Y349250D01*
X-9206433Y345236D01*
X-9201912Y341528D01*
X-9197187Y338074D01*
X-9192209Y334975D01*
X-9187027Y332130D01*
X-9181642Y329692D01*
X-9176105Y327558D01*
X-9170416Y325780D01*
X-9164523Y324358D01*
X-9158528Y323342D01*
X-9152382Y322732D01*
X-9146133Y322478D01*
X-8590178Y322478D01*
X-8583930Y322732D01*
X-8577783Y323342D01*
X-8571738Y324358D01*
X-8565896Y325780D01*
X-8560155Y327558D01*
X-8554618Y329692D01*
X-8549284Y332130D01*
X-8544102Y334975D01*
X-8539124Y338074D01*
X-8534400Y341528D01*
X-8529878Y345236D01*
X-8525611Y349250D01*
X-8521598Y353466D01*
X-8517890Y357987D01*
X-8514486Y362762D01*
X-8511336Y367690D01*
X-8508542Y372872D01*
X-8506053Y378256D01*
X-8503920Y383794D01*
X-8502142Y389534D01*
X-8500719Y395376D01*
X-8499703Y401370D01*
X-8499094Y407517D01*
X-8498890Y413766D01*
X-8499094Y420014D01*
X-8499703Y426161D01*
X-8500719Y432155D01*
X-8502142Y438048D01*
X-8503920Y443738D01*
X-8506053Y449326D01*
X-8508542Y454659D01*
X-8511336Y459841D01*
X-8514486Y464820D01*
X-8517890Y469544D01*
X-8521598Y474065D01*
X-8525611Y478332D01*
X-8529878Y482295D01*
X-8534400Y486054D01*
X-8539124Y489458D01*
X-8544102Y492607D01*
X-8549284Y495401D01*
X-8554618Y497890D01*
X-8560155Y500024D01*
X-8565896Y501802D01*
X-8571738Y503174D01*
X-8577783Y504190D01*
X-8583930Y504850D01*
X-8590178Y505053D01*
G37*
G36*
X-8996070Y455726D02*
G01*
X-9003131Y455015D01*
X-9009075Y452780D01*
X-9013901Y449021D01*
X-9017660Y443788D01*
X-9019692Y438658D01*
X-9020708Y433882D01*
X-9021267Y426364D01*
X-9021470Y413308D01*
X-9021267Y401116D01*
X-9020708Y393496D01*
X-9019540Y388061D01*
X-9017660Y382828D01*
X-9016034Y380288D01*
X-9014104Y378002D01*
X-9011716Y375970D01*
X-9009024Y374192D01*
X-9005976Y372770D01*
X-9002826Y371754D01*
X-8999524Y371094D01*
X-8996070Y370890D01*
X-8988958Y371652D01*
X-8983014Y373888D01*
X-8978188Y377647D01*
X-8974480Y382828D01*
X-8972245Y388010D01*
X-8971534Y390398D01*
X-8970924Y395833D01*
X-8970670Y406146D01*
X-8970822Y425602D01*
X-8971432Y433374D01*
X-8971889Y436067D01*
X-8973566Y441401D01*
X-8974734Y444042D01*
X-8976258Y446684D01*
X-8978188Y449021D01*
X-8980474Y451002D01*
X-8983116Y452678D01*
X-8986012Y454050D01*
X-8989110Y454964D01*
X-8992463Y455574D01*
G37*
G36*
X-9115196Y408228D02*
G01*
X-9117990Y407720D01*
X-9118498Y406704D01*
X-9118447Y375056D01*
X-9117736Y372922D01*
X-9116618Y372364D01*
X-9114942Y372160D01*
X-9097670Y372160D01*
X-9093301Y372465D01*
X-9089593Y373278D01*
X-9086545Y374599D01*
X-9084208Y376478D01*
X-9082278Y378866D01*
X-9080957Y381965D01*
X-9080144Y385724D01*
X-9079890Y390194D01*
X-9080906Y398119D01*
X-9084106Y403758D01*
X-9089440Y407111D01*
X-9096908Y408228D01*
G37*
G36*
X-8654440Y404164D02*
G01*
X-8655812Y403910D01*
X-8656320Y403453D01*
X-8656472Y376732D01*
X-8656218Y374751D01*
X-8655608Y373329D01*
X-8654592Y372465D01*
X-8653170Y372160D01*
X-8636152Y372160D01*
X-8628227Y373227D01*
X-8622588Y376326D01*
X-8619236Y381457D01*
X-8618118Y388670D01*
X-8619236Y395478D01*
X-8622690Y400304D01*
X-8628380Y403199D01*
X-8636406Y404164D01*
G37*
G36*
X-6342380Y-5667044D02*
G01*
X-6348628Y-5667298D01*
X-6354775Y-5667908D01*
X-6360769Y-5668924D01*
X-6366611Y-5670346D01*
X-6372352Y-5672124D01*
X-6377889Y-5674258D01*
X-6383274Y-5676696D01*
X-6388455Y-5679541D01*
X-6393383Y-5682640D01*
X-6398158Y-5686094D01*
X-6402628Y-5689803D01*
X-6406896Y-5693816D01*
X-6410909Y-5698032D01*
X-6414617Y-5702554D01*
X-6418072Y-5707329D01*
X-6421170Y-5712256D01*
X-6424015Y-5717438D01*
X-6426454Y-5722823D01*
X-6428587Y-5728360D01*
X-6430365Y-5734100D01*
X-6431788Y-5739942D01*
X-6432804Y-5745937D01*
X-6433413Y-5752084D01*
X-6433667Y-5758332D01*
X-6433413Y-5764580D01*
X-6432804Y-5770727D01*
X-6431788Y-5776722D01*
X-6430365Y-5782614D01*
X-6428587Y-5788304D01*
X-6426454Y-5793892D01*
X-6424015Y-5799226D01*
X-6422509Y-5801969D01*
X-6342380Y-5801969D01*
X-6342380Y-5708243D01*
X-6341567Y-5701690D01*
X-6339027Y-5697016D01*
X-6334810Y-5694172D01*
X-6328918Y-5693257D01*
X-6323482Y-5694222D01*
X-6319621Y-5697067D01*
X-6317284Y-5701842D01*
X-6316472Y-5708497D01*
X-6316472Y-5763615D01*
X-6316218Y-5768695D01*
X-6297676Y-5705957D01*
X-6296507Y-5702655D01*
X-6295237Y-5699912D01*
X-6293815Y-5697728D01*
X-6292342Y-5696051D01*
X-6290564Y-5694832D01*
X-6288430Y-5693968D01*
X-6285992Y-5693410D01*
X-6283198Y-5693257D01*
X-6280353Y-5693410D01*
X-6277864Y-5693968D01*
X-6275781Y-5694832D01*
X-6274054Y-5696051D01*
X-6272479Y-5697626D01*
X-6271107Y-5699810D01*
X-6269837Y-5702554D01*
X-6251448Y-5763615D01*
X-6250178Y-5768695D01*
X-6249924Y-5763615D01*
X-6249924Y-5708497D01*
X-6249111Y-5701842D01*
X-6246723Y-5697067D01*
X-6242659Y-5694222D01*
X-6236970Y-5693257D01*
X-6231331Y-5694172D01*
X-6227267Y-5697016D01*
X-6224828Y-5701690D01*
X-6224016Y-5708243D01*
X-6224117Y-5805779D01*
X-6224403Y-5809335D01*
X-6208522Y-5809335D01*
X-6208522Y-5708497D01*
X-6207709Y-5701690D01*
X-6205169Y-5696864D01*
X-6200952Y-5693968D01*
X-6195060Y-5693003D01*
X-6191961Y-5693257D01*
X-6189218Y-5694019D01*
X-6186881Y-5695289D01*
X-6184900Y-5697067D01*
X-6183376Y-5699404D01*
X-6182258Y-5702147D01*
X-6181598Y-5705246D01*
X-6181344Y-5708751D01*
X-6181344Y-5757265D01*
X-6169406Y-5757265D01*
X-6169304Y-5748680D01*
X-6168898Y-5741263D01*
X-6168288Y-5734964D01*
X-6167374Y-5729833D01*
X-6166154Y-5725312D01*
X-6164529Y-5720994D01*
X-6162497Y-5716828D01*
X-6160008Y-5712815D01*
X-6156350Y-5708243D01*
X-6152235Y-5704230D01*
X-6147612Y-5700877D01*
X-6142482Y-5698134D01*
X-6136944Y-5696000D01*
X-6130899Y-5694476D01*
X-6124346Y-5693562D01*
X-6117336Y-5693257D01*
X-6109665Y-5693664D01*
X-6102911Y-5694781D01*
X-5933440Y-5694781D01*
X-5933440Y-5810351D01*
X-5814568Y-5810351D01*
X-5814466Y-5703519D01*
X-5814060Y-5700877D01*
X-5813196Y-5699099D01*
X-5811520Y-5697321D01*
X-5809640Y-5696051D01*
X-5807456Y-5695289D01*
X-5804814Y-5694883D01*
X-5737860Y-5694781D01*
X-5731967Y-5695492D01*
X-5727801Y-5697677D01*
X-5725261Y-5701334D01*
X-5724697Y-5704687D01*
X-5723128Y-5704687D01*
X-5722874Y-5702350D01*
X-5722112Y-5700115D01*
X-5720842Y-5698032D01*
X-5719064Y-5696051D01*
X-5716930Y-5694476D01*
X-5714644Y-5693359D01*
X-5712104Y-5692698D01*
X-5709412Y-5692495D01*
X-5706110Y-5692952D01*
X-5703062Y-5694324D01*
X-5700268Y-5696610D01*
X-5697728Y-5699861D01*
X-5675884Y-5735421D01*
X-5673852Y-5737707D01*
X-5672074Y-5735421D01*
X-5649976Y-5699861D01*
X-5647486Y-5696610D01*
X-5644743Y-5694324D01*
X-5641746Y-5692952D01*
X-5638546Y-5692495D01*
X-5635752Y-5692698D01*
X-5633161Y-5693359D01*
X-5630773Y-5694476D01*
X-5628640Y-5696051D01*
X-5626862Y-5697931D01*
X-5625592Y-5699963D01*
X-5624830Y-5702249D01*
X-5624576Y-5704687D01*
X-5624830Y-5706414D01*
X-5625541Y-5708497D01*
X-5626709Y-5710986D01*
X-5657342Y-5759805D01*
X-5658104Y-5762091D01*
X-5657951Y-5762955D01*
X-5630875Y-5805525D01*
X-5629503Y-5809132D01*
X-5629097Y-5807354D01*
X-5628436Y-5805779D01*
X-5627522Y-5804408D01*
X-5626354Y-5803239D01*
X-5624525Y-5802020D01*
X-5622290Y-5801156D01*
X-5619699Y-5800598D01*
X-5599023Y-5800394D01*
X-5597753Y-5799988D01*
X-5597093Y-5799328D01*
X-5596686Y-5797905D01*
X-5596636Y-5705703D01*
X-5596432Y-5702554D01*
X-5595721Y-5699810D01*
X-5594502Y-5697372D01*
X-5592826Y-5695289D01*
X-5590895Y-5693613D01*
X-5588609Y-5692444D01*
X-5585917Y-5691733D01*
X-5582920Y-5691479D01*
X-5580126Y-5691682D01*
X-5577586Y-5692343D01*
X-5575300Y-5693460D01*
X-5573268Y-5695035D01*
X-5571490Y-5696915D01*
X-5570220Y-5699048D01*
X-5569458Y-5701385D01*
X-5569204Y-5703925D01*
X-5569102Y-5798210D01*
X-5568696Y-5799175D01*
X-5567629Y-5799734D01*
X-5565902Y-5799937D01*
X-5547360Y-5799937D01*
X-5542026Y-5800648D01*
X-5538216Y-5802833D01*
X-5535930Y-5806490D01*
X-5535168Y-5811621D01*
X-5536031Y-5816600D01*
X-5538470Y-5820206D01*
X-5542635Y-5822340D01*
X-5548376Y-5823051D01*
X-5615178Y-5823051D01*
X-5620766Y-5822492D01*
X-5624982Y-5820867D01*
X-5627878Y-5818174D01*
X-5629402Y-5814364D01*
X-5629859Y-5816142D01*
X-5630621Y-5817819D01*
X-5632958Y-5820765D01*
X-5634990Y-5822340D01*
X-5637276Y-5823407D01*
X-5639816Y-5824118D01*
X-5642610Y-5824321D01*
X-5645861Y-5823915D01*
X-5648655Y-5822797D01*
X-5651042Y-5820867D01*
X-5653024Y-5818225D01*
X-5671820Y-5788253D01*
X-5673852Y-5785459D01*
X-5675884Y-5788253D01*
X-5694680Y-5818225D01*
X-5696762Y-5820867D01*
X-5699201Y-5822797D01*
X-5701995Y-5823915D01*
X-5705094Y-5824321D01*
X-5707786Y-5824118D01*
X-5710326Y-5823407D01*
X-5712612Y-5822340D01*
X-5714746Y-5820765D01*
X-5716422Y-5818886D01*
X-5717641Y-5816752D01*
X-5718352Y-5814415D01*
X-5718556Y-5811875D01*
X-5718403Y-5809996D01*
X-5716879Y-5805678D01*
X-5715508Y-5803239D01*
X-5691124Y-5765139D01*
X-5689396Y-5761939D01*
X-5689600Y-5761075D01*
X-5690616Y-5759805D01*
X-5721197Y-5710478D01*
X-5722264Y-5708294D01*
X-5723026Y-5705754D01*
X-5723128Y-5704687D01*
X-5724697Y-5704687D01*
X-5724398Y-5706465D01*
X-5724601Y-5709412D01*
X-5725261Y-5711850D01*
X-5726277Y-5713831D01*
X-5727700Y-5715355D01*
X-5729833Y-5716473D01*
X-5732526Y-5717235D01*
X-5735929Y-5717743D01*
X-5739892Y-5717895D01*
X-5784596Y-5717895D01*
X-5785713Y-5718098D01*
X-5786526Y-5718708D01*
X-5786983Y-5719724D01*
X-5787136Y-5721197D01*
X-5787136Y-5745073D01*
X-5786932Y-5746496D01*
X-5786272Y-5747562D01*
X-5785154Y-5748172D01*
X-5783580Y-5748375D01*
X-5744464Y-5748375D01*
X-5738571Y-5749086D01*
X-5734405Y-5751220D01*
X-5731865Y-5754776D01*
X-5731002Y-5759805D01*
X-5731967Y-5765139D01*
X-5734761Y-5768949D01*
X-5739434Y-5771235D01*
X-5745988Y-5771997D01*
X-5784900Y-5772048D01*
X-5786272Y-5772404D01*
X-5786882Y-5773064D01*
X-5787136Y-5774232D01*
X-5787136Y-5797143D01*
X-5786932Y-5798362D01*
X-5786272Y-5799226D01*
X-5785154Y-5799734D01*
X-5783580Y-5799937D01*
X-5741162Y-5799937D01*
X-5737402Y-5800090D01*
X-5734202Y-5800547D01*
X-5731560Y-5801360D01*
X-5729478Y-5802477D01*
X-5728055Y-5804052D01*
X-5727039Y-5806084D01*
X-5726379Y-5808522D01*
X-5726176Y-5811367D01*
X-5727141Y-5816498D01*
X-5730087Y-5820105D01*
X-5734913Y-5822340D01*
X-5741670Y-5823051D01*
X-5803849Y-5823000D01*
X-5808726Y-5822543D01*
X-5810453Y-5821578D01*
X-5812028Y-5820257D01*
X-5813145Y-5818479D01*
X-5813958Y-5816244D01*
X-5814415Y-5813552D01*
X-5814568Y-5810351D01*
X-5933440Y-5810351D01*
X-5933440Y-5822797D01*
X-5959094Y-5822797D01*
X-5959094Y-5694781D01*
X-6102604Y-5694832D01*
X-6096203Y-5696762D01*
X-6090412Y-5699455D01*
X-6085281Y-5702960D01*
X-6080760Y-5707278D01*
X-6076899Y-5712307D01*
X-6073648Y-5718149D01*
X-6072124Y-5721604D01*
X-6071006Y-5724855D01*
X-6070346Y-5727954D01*
X-6070092Y-5730849D01*
X-6070346Y-5733846D01*
X-6071057Y-5736488D01*
X-6072225Y-5738774D01*
X-6073902Y-5740755D01*
X-6075832Y-5742330D01*
X-6078067Y-5743397D01*
X-6080556Y-5744108D01*
X-6083300Y-5744311D01*
X-6086856Y-5743905D01*
X-6089853Y-5742736D01*
X-6092291Y-5740755D01*
X-6094222Y-5737961D01*
X-6096508Y-5732373D01*
X-6099911Y-5725363D01*
X-6104534Y-5720384D01*
X-6110325Y-5717387D01*
X-6117336Y-5716371D01*
X-6120231Y-5716574D01*
X-6123076Y-5717133D01*
X-6125819Y-5718098D01*
X-6131052Y-5720892D01*
X-6133236Y-5722569D01*
X-6135116Y-5724448D01*
X-6136640Y-5726531D01*
X-6137960Y-5729122D01*
X-6139027Y-5731865D01*
X-6140450Y-5737707D01*
X-6141415Y-5744921D01*
X-6141720Y-5754471D01*
X-6141415Y-5766612D01*
X-6140399Y-5776569D01*
X-6138722Y-5784392D01*
X-6136386Y-5790031D01*
X-6134963Y-5792216D01*
X-6133185Y-5794197D01*
X-6131001Y-5796026D01*
X-6128512Y-5797651D01*
X-6125819Y-5798870D01*
X-6123025Y-5799734D01*
X-6120079Y-5800242D01*
X-6117082Y-5800445D01*
X-6112256Y-5799988D01*
X-6108090Y-5798667D01*
X-6104636Y-5796432D01*
X-6101842Y-5793333D01*
X-6095085Y-5783732D01*
X-6092190Y-5781446D01*
X-6088989Y-5780074D01*
X-6085332Y-5779617D01*
X-6082588Y-5779820D01*
X-6080099Y-5780481D01*
X-6077864Y-5781598D01*
X-6075934Y-5783173D01*
X-6074410Y-5785205D01*
X-6073292Y-5787440D01*
X-6072632Y-5789879D01*
X-6072378Y-5792571D01*
X-6072581Y-5795162D01*
X-6073241Y-5797854D01*
X-6074257Y-5800598D01*
X-6075680Y-5803493D01*
X-6077508Y-5806338D01*
X-6079591Y-5809030D01*
X-6081928Y-5811520D01*
X-6084570Y-5813907D01*
X-6091174Y-5818479D01*
X-6098540Y-5821730D01*
X-6106668Y-5823661D01*
X-6115558Y-5824321D01*
X-6123025Y-5823966D01*
X-6129934Y-5823000D01*
X-6136284Y-5821375D01*
X-6142075Y-5819038D01*
X-6147257Y-5816092D01*
X-6151930Y-5812434D01*
X-6155994Y-5808167D01*
X-6159500Y-5803239D01*
X-6162090Y-5798718D01*
X-6164224Y-5794044D01*
X-6165900Y-5789168D01*
X-6167120Y-5784189D01*
X-6168136Y-5778703D01*
X-6168847Y-5772353D01*
X-6169253Y-5765241D01*
X-6169406Y-5757265D01*
X-6181344Y-5757265D01*
X-6181344Y-5810605D01*
X-6182258Y-5816955D01*
X-6184900Y-5821476D01*
X-6189370Y-5824169D01*
X-6195568Y-5825083D01*
X-6201257Y-5824118D01*
X-6205321Y-5821121D01*
X-6207709Y-5816244D01*
X-6208522Y-5809335D01*
X-6224403Y-5809335D01*
X-6224727Y-5811875D01*
X-6225286Y-5814161D01*
X-6226200Y-5816193D01*
X-6227419Y-5817971D01*
X-6228892Y-5819495D01*
X-6233464Y-5822746D01*
X-6236563Y-5824169D01*
X-6239916Y-5825032D01*
X-6243574Y-5825337D01*
X-6247434Y-5825083D01*
X-6250889Y-5824270D01*
X-6253937Y-5822899D01*
X-6256528Y-5821019D01*
X-6258814Y-5818378D01*
X-6260846Y-5815126D01*
X-6262624Y-5811164D01*
X-6264148Y-5806541D01*
X-6281928Y-5744565D01*
X-6283198Y-5740755D01*
X-6283960Y-5744565D01*
X-6302248Y-5806541D01*
X-6303772Y-5811164D01*
X-6305499Y-5815126D01*
X-6307429Y-5818378D01*
X-6309614Y-5821019D01*
X-6312255Y-5822899D01*
X-6315303Y-5824270D01*
X-6318707Y-5825083D01*
X-6322568Y-5825337D01*
X-6326378Y-5825032D01*
X-6329832Y-5824169D01*
X-6332982Y-5822746D01*
X-6337554Y-5819292D01*
X-6338976Y-5817666D01*
X-6340094Y-5815838D01*
X-6341516Y-5811621D01*
X-6342024Y-5808878D01*
X-6342380Y-5801969D01*
X-6422509Y-5801969D01*
X-6418072Y-5809386D01*
X-6414617Y-5814110D01*
X-6410909Y-5818632D01*
X-6406896Y-5822899D01*
X-6402628Y-5826861D01*
X-6398158Y-5830620D01*
X-6393383Y-5834024D01*
X-6388455Y-5837174D01*
X-6383274Y-5839968D01*
X-6377889Y-5842457D01*
X-6372352Y-5844590D01*
X-6366611Y-5846368D01*
X-6360769Y-5847740D01*
X-6354775Y-5848756D01*
X-6348628Y-5849416D01*
X-6342380Y-5849620D01*
X-5535168Y-5849620D01*
X-5528919Y-5849416D01*
X-5522772Y-5848756D01*
X-5516778Y-5847740D01*
X-5510885Y-5846368D01*
X-5505196Y-5844590D01*
X-5499608Y-5842457D01*
X-5494274Y-5839968D01*
X-5489092Y-5837174D01*
X-5484114Y-5834024D01*
X-5479389Y-5830620D01*
X-5474868Y-5826861D01*
X-5470601Y-5822899D01*
X-5466638Y-5818632D01*
X-5462879Y-5814110D01*
X-5459476Y-5809386D01*
X-5456326Y-5804408D01*
X-5453532Y-5799226D01*
X-5451043Y-5793892D01*
X-5448909Y-5788304D01*
X-5447131Y-5782614D01*
X-5445760Y-5776722D01*
X-5444693Y-5770727D01*
X-5444083Y-5764580D01*
X-5443880Y-5758332D01*
X-5444083Y-5752084D01*
X-5444693Y-5745937D01*
X-5445760Y-5739942D01*
X-5447131Y-5734100D01*
X-5448909Y-5728360D01*
X-5451043Y-5722823D01*
X-5453532Y-5717438D01*
X-5456326Y-5712256D01*
X-5459476Y-5707329D01*
X-5462879Y-5702554D01*
X-5466638Y-5698032D01*
X-5470601Y-5693816D01*
X-5474868Y-5689803D01*
X-5479389Y-5686094D01*
X-5484114Y-5682640D01*
X-5489092Y-5679541D01*
X-5494274Y-5676696D01*
X-5499608Y-5674258D01*
X-5505196Y-5672124D01*
X-5510885Y-5670346D01*
X-5516778Y-5668924D01*
X-5522772Y-5667908D01*
X-5528919Y-5667298D01*
X-5535168Y-5667044D01*
G37*
G36*
X-1230477Y-5570321D02*
G01*
X-1329232Y-5571845D01*
X-1328605Y-5799683D01*
X-887272Y-5799683D01*
X-887272Y-5846673D01*
X-1230477Y-5846673D01*
X-1230477Y-5799683D01*
X-1328605Y-5799683D01*
X-1328216Y-5940653D01*
X-920800Y-5940653D01*
X-907897Y-5940145D01*
X-895350Y-5938621D01*
X-883259Y-5936030D01*
X-871575Y-5932474D01*
X-860247Y-5927852D01*
X-849376Y-5922213D01*
X-838911Y-5915558D01*
X-828852Y-5907887D01*
X-819607Y-5899454D01*
X-811530Y-5890463D01*
X-804722Y-5881014D01*
X-799134Y-5871006D01*
X-794816Y-5860491D01*
X-791718Y-5849467D01*
X-789889Y-5837885D01*
X-789279Y-5825845D01*
X-789787Y-5813958D01*
X-791464Y-5802477D01*
X-794258Y-5791403D01*
X-798169Y-5780836D01*
X-803148Y-5770676D01*
X-809244Y-5760923D01*
X-816457Y-5751626D01*
X-824788Y-5742787D01*
X-833932Y-5734710D01*
X-843483Y-5727700D01*
X-853440Y-5721756D01*
X-863853Y-5716879D01*
X-874725Y-5713120D01*
X-886002Y-5710377D01*
X-897737Y-5708802D01*
X-909929Y-5708243D01*
X-1230477Y-5708243D01*
G37*
G36*
X-746302Y-5571845D02*
G01*
X-746016Y-5802223D01*
X-323443Y-5802223D01*
X-323443Y-5846673D01*
X-646734Y-5846673D01*
X-646734Y-5802223D01*
X-746016Y-5802223D01*
X-745845Y-5939637D01*
X-342747Y-5939129D01*
X-326847Y-5938113D01*
X-311962Y-5935014D01*
X-298145Y-5929833D01*
X-285343Y-5922619D01*
X-274320Y-5914136D01*
X-263906Y-5903620D01*
X-254101Y-5891123D01*
X-244957Y-5876645D01*
X-237998Y-5863386D01*
X-233527Y-5850483D01*
X-231241Y-5837580D01*
X-230479Y-5824321D01*
X-231089Y-5812536D01*
X-233070Y-5800902D01*
X-236321Y-5789320D01*
X-240893Y-5777839D01*
X-245262Y-5769508D01*
X-251307Y-5759805D01*
X-244348Y-5749950D01*
X-239318Y-5741771D01*
X-233883Y-5730138D01*
X-230022Y-5718860D01*
X-227685Y-5707888D01*
X-226872Y-5697321D01*
X-226872Y-5571845D01*
X-321868Y-5571845D01*
X-321868Y-5709767D01*
X-649325Y-5709767D01*
X-649325Y-5571845D01*
G37*
G36*
X-67411Y-5573115D02*
G01*
X-81330Y-5573674D01*
X-94183Y-5575350D01*
X-105968Y-5578094D01*
X-116636Y-5582005D01*
X-126644Y-5587085D01*
X-136448Y-5593740D01*
X-146202Y-5601970D01*
X-155752Y-5611723D01*
X-163169Y-5620715D01*
X-169418Y-5629706D01*
X-174498Y-5638647D01*
X-178409Y-5647537D01*
X-181152Y-5656884D01*
X-182870Y-5665825D01*
X237642Y-5665825D01*
X237642Y-5843625D01*
X-89204Y-5843625D01*
X-89204Y-5665825D01*
X-182870Y-5665825D01*
X-184353Y-5678474D01*
X-184759Y-5690717D01*
X-184759Y-5830163D01*
X-184048Y-5841949D01*
X-182016Y-5853125D01*
X-178612Y-5863793D01*
X-173786Y-5873851D01*
X-168452Y-5882284D01*
X-161696Y-5890818D01*
X-153568Y-5899404D01*
X-144068Y-5908141D01*
X-133908Y-5916218D01*
X-123698Y-5922975D01*
X-113487Y-5928410D01*
X-103225Y-5932525D01*
X-92303Y-5935421D01*
X-80467Y-5937453D01*
X-67665Y-5938723D01*
X-53898Y-5939129D01*
X218592Y-5939129D01*
X232410Y-5938469D01*
X245313Y-5936386D01*
X257302Y-5932982D01*
X268427Y-5928207D01*
X278892Y-5921959D01*
X289052Y-5914085D01*
X298856Y-5904687D01*
X308254Y-5893663D01*
X314756Y-5884773D01*
X320294Y-5876086D01*
X324815Y-5867603D01*
X328320Y-5859373D01*
X331114Y-5850940D01*
X333095Y-5841847D01*
X334314Y-5832144D01*
X334670Y-5821781D01*
X334670Y-5685129D01*
X334162Y-5673598D01*
X332587Y-5662777D01*
X329996Y-5652770D01*
X326288Y-5643473D01*
X321614Y-5634583D01*
X315722Y-5625642D01*
X308559Y-5616651D01*
X300177Y-5607659D01*
X291287Y-5599582D01*
X281990Y-5592572D01*
X272288Y-5586628D01*
X262128Y-5581751D01*
X251510Y-5577992D01*
X240487Y-5575300D01*
X229006Y-5573674D01*
X217119Y-5573115D01*
G37*
G36*
X-4587341Y-5570321D02*
G01*
X-4597958Y-5571032D01*
X-4608271Y-5573268D01*
X-4618177Y-5576925D01*
X-4627727Y-5582056D01*
X-4636922Y-5588660D01*
X-4645761Y-5596737D01*
X-4652822Y-5604560D01*
X-4659680Y-5613298D01*
X-4666284Y-5622950D01*
X-4672736Y-5633516D01*
X-4678883Y-5645048D01*
X-4684877Y-5657443D01*
X-4771745Y-5846927D01*
X-4771745Y-5576925D01*
X-4861102Y-5579465D01*
X-4861102Y-5856325D01*
X-4860493Y-5867908D01*
X-4858613Y-5878982D01*
X-4855464Y-5889498D01*
X-4851095Y-5899454D01*
X-4845405Y-5908903D01*
X-4838547Y-5917793D01*
X-4830572Y-5925870D01*
X-4821936Y-5932678D01*
X-4812690Y-5938266D01*
X-4802733Y-5942533D01*
X-4792116Y-5945530D01*
X-4778908Y-5947460D01*
X-4771186Y-5947765D01*
X-4760214Y-5947156D01*
X-4749647Y-5945276D01*
X-4739487Y-5942177D01*
X-4729683Y-5937808D01*
X-4720285Y-5932220D01*
X-4711293Y-5925413D01*
X-4703318Y-5917996D01*
X-4695952Y-5909716D01*
X-4689195Y-5900572D01*
X-4682947Y-5890666D01*
X-4677257Y-5879896D01*
X-4672177Y-5868263D01*
X-4588814Y-5662777D01*
X-4497120Y-5879439D01*
X-4492548Y-5889752D01*
X-4487418Y-5899251D01*
X-4481779Y-5908040D01*
X-4475581Y-5916015D01*
X-4468876Y-5923280D01*
X-4461611Y-5929731D01*
X-4449572Y-5937605D01*
X-4436313Y-5943244D01*
X-4421886Y-5946648D01*
X-4406188Y-5947765D01*
X-4392980Y-5946952D01*
X-4380636Y-5944412D01*
X-4369104Y-5940196D01*
X-4358436Y-5934354D01*
X-4348632Y-5926785D01*
X-4339691Y-5917539D01*
X-4331919Y-5907125D01*
X-4325569Y-5896102D01*
X-4320641Y-5884418D01*
X-4317085Y-5872022D01*
X-4314952Y-5859068D01*
X-4314291Y-5845403D01*
X-4314291Y-5579465D01*
X-4403648Y-5579465D01*
X-4403648Y-5850483D01*
X-4492345Y-5656935D01*
X-4499813Y-5641035D01*
X-4507128Y-5627065D01*
X-4514138Y-5614974D01*
X-4520996Y-5604764D01*
X-4527600Y-5596483D01*
X-4533950Y-5590133D01*
X-4543704Y-5582818D01*
X-4554169Y-5577179D01*
X-4565294Y-5573166D01*
X-4577130Y-5570829D01*
X-4581499Y-5570474D01*
G37*
G36*
X-1886254Y-5570321D02*
G01*
X-1896922Y-5571032D01*
X-1907235Y-5573268D01*
X-1917141Y-5576925D01*
X-1926691Y-5582056D01*
X-1935886Y-5588660D01*
X-1944725Y-5596737D01*
X-1951786Y-5604560D01*
X-1958644Y-5613298D01*
X-1965299Y-5622950D01*
X-1971700Y-5633516D01*
X-1977847Y-5645048D01*
X-1983841Y-5657443D01*
X-2070709Y-5846927D01*
X-2070709Y-5576925D01*
X-2160320Y-5579465D01*
X-2160320Y-5856325D01*
X-2159711Y-5867908D01*
X-2157780Y-5878982D01*
X-2154631Y-5889498D01*
X-2150211Y-5899454D01*
X-2144471Y-5908903D01*
X-2137511Y-5917793D01*
X-2129536Y-5925870D01*
X-2120900Y-5932678D01*
X-2111654Y-5938266D01*
X-2101697Y-5942533D01*
X-2091080Y-5945530D01*
X-2077872Y-5947460D01*
X-2070150Y-5947765D01*
X-2059178Y-5947156D01*
X-2048611Y-5945276D01*
X-2038451Y-5942177D01*
X-2028647Y-5937808D01*
X-2019249Y-5932220D01*
X-2010257Y-5925413D01*
X-2002383Y-5917996D01*
X-1995068Y-5909716D01*
X-1988312Y-5900572D01*
X-1982114Y-5890666D01*
X-1976475Y-5879896D01*
X-1971395Y-5868263D01*
X-1887829Y-5662777D01*
X-1796338Y-5879439D01*
X-1791716Y-5889752D01*
X-1786534Y-5899251D01*
X-1780793Y-5908040D01*
X-1774596Y-5916015D01*
X-1767839Y-5923280D01*
X-1760575Y-5929731D01*
X-1748536Y-5937605D01*
X-1735277Y-5943244D01*
X-1720850Y-5946648D01*
X-1705152Y-5947765D01*
X-1691944Y-5946952D01*
X-1679600Y-5944412D01*
X-1668119Y-5940196D01*
X-1657451Y-5934354D01*
X-1647596Y-5926785D01*
X-1638604Y-5917539D01*
X-1630883Y-5907125D01*
X-1624533Y-5896102D01*
X-1619554Y-5884418D01*
X-1616049Y-5872022D01*
X-1613916Y-5859068D01*
X-1613204Y-5845403D01*
X-1613204Y-5579465D01*
X-1702663Y-5579465D01*
X-1702663Y-5850483D01*
X-1791309Y-5656935D01*
X-1798777Y-5641035D01*
X-1806092Y-5627065D01*
X-1813102Y-5614974D01*
X-1819960Y-5604764D01*
X-1826564Y-5596483D01*
X-1832914Y-5590133D01*
X-1842719Y-5582818D01*
X-1853184Y-5577179D01*
X-1864410Y-5573166D01*
X-1876348Y-5570829D01*
X-1880514Y-5570474D01*
G37*
G36*
X-4275175Y-5577941D02*
G01*
X-4176068Y-5770473D01*
X-3983329Y-5770473D01*
X-4026763Y-5848959D01*
X-4070654Y-5770473D01*
X-4176068Y-5770473D01*
X-4131614Y-5856833D01*
X-4124350Y-5870498D01*
X-4117136Y-5882995D01*
X-4110126Y-5894222D01*
X-4103166Y-5904280D01*
X-4096410Y-5913069D01*
X-4089704Y-5920689D01*
X-4083202Y-5927090D01*
X-4076750Y-5932271D01*
X-4065270Y-5939282D01*
X-4052824Y-5944260D01*
X-4039463Y-5947257D01*
X-4025188Y-5948273D01*
X-4011574Y-5947156D01*
X-3998671Y-5943904D01*
X-3986428Y-5938418D01*
X-3974947Y-5930747D01*
X-3969258Y-5925769D01*
X-3963314Y-5919470D01*
X-3957116Y-5911900D01*
X-3950614Y-5903010D01*
X-3943807Y-5892800D01*
X-3936796Y-5881268D01*
X-3929430Y-5868416D01*
X-3921861Y-5854293D01*
X-3778300Y-5577941D01*
X-3880154Y-5579465D01*
X-3935780Y-5675985D01*
X-4118711Y-5675985D01*
X-4169714Y-5579465D01*
G37*
G36*
X-2596743Y-5577941D02*
G01*
X-2612440Y-5578551D01*
X-2627071Y-5580380D01*
X-2640634Y-5583377D01*
X-2653080Y-5587593D01*
X-2664663Y-5593283D01*
X-2675686Y-5600750D01*
X-2686253Y-5609945D01*
X-2696311Y-5620867D01*
X-2703728Y-5630062D01*
X-2710078Y-5639104D01*
X-2715310Y-5647944D01*
X-2719425Y-5656681D01*
X-2722626Y-5665673D01*
X-2724912Y-5675376D01*
X-2726283Y-5685739D01*
X-2726791Y-5696813D01*
X-2726791Y-5830925D01*
X-2726232Y-5844235D01*
X-2724556Y-5856630D01*
X-2721762Y-5868212D01*
X-2717850Y-5878931D01*
X-2712821Y-5888990D01*
X-2706370Y-5898794D01*
X-2698496Y-5908395D01*
X-2689148Y-5917793D01*
X-2679192Y-5926328D01*
X-2669032Y-5933338D01*
X-2658719Y-5938875D01*
X-2648254Y-5942939D01*
X-2637078Y-5945733D01*
X-2624582Y-5947714D01*
X-2610815Y-5948883D01*
X-2595727Y-5949289D01*
X-2208834Y-5949289D01*
X-2208834Y-5854293D01*
X-2632811Y-5854293D01*
X-2632811Y-5811367D01*
X-2208834Y-5811367D01*
X-2208834Y-5715863D01*
X-2630220Y-5714847D01*
X-2630220Y-5675985D01*
X-2208834Y-5675985D01*
X-2208834Y-5577941D01*
G37*
G36*
X-3650843Y-5579465D02*
G01*
X-3650843Y-5688431D01*
X-3860647Y-5948273D01*
X-3742232Y-5948273D01*
X-3606647Y-5779871D01*
X-3470198Y-5948273D01*
X-3353663Y-5948273D01*
X-3558336Y-5688431D01*
X-3558336Y-5579465D01*
G37*
G36*
X-3301288Y-5579465D02*
G01*
X-3301288Y-5948273D01*
X-3208832Y-5948273D01*
X-3208832Y-5812891D01*
X-2870250Y-5812891D01*
X-2870250Y-5948273D01*
X-2773730Y-5948273D01*
X-2773730Y-5579465D01*
X-2871825Y-5579465D01*
X-2871825Y-5718911D01*
X-3204311Y-5718911D01*
X-3204311Y-5579465D01*
G37*
D10*
X-8573747Y-4809136D02*
G01*
X-8573747Y-4727318D01*
X-8614656Y-4768227D02*
G01*
X-8532837Y-4768227D01*
D11*
X-6151831Y-5173004D02*
G01*
X1084165Y-5173004D01*
X-6151819Y-5173009D02*
G01*
X1084178Y-5173009D01*
X-6150838Y-5173009D02*
G01*
X-6150838Y-176006D01*
X990158Y-176006D01*
X1062177Y81000D02*
G01*
X-6667830Y81000D01*
X-6667830Y-5429999D01*
X1084178Y-5429999D01*
X1084178Y-4109999D01*
X1084178Y-1238999D02*
G01*
X1084178Y81000D01*
X986462Y-175331D02*
G01*
X1062177Y-175331D01*
X-6151819Y-5173004D02*
G01*
X1084178Y-5173004D01*
X-6150838Y-5173004D02*
G01*
X-6150838Y-176006D01*
X990158Y-176006D01*
X1062177Y80995D02*
G01*
X-6667830Y80995D01*
X-6667830Y-5430004D01*
X1084178Y-5430004D01*
X1084178Y-4110004D01*
X1084178Y-1239004D02*
G01*
X1084178Y80995D01*
X986462Y-175331D02*
G01*
X1062177Y-175331D01*
X-6150838Y-5173004D02*
G01*
X-6150838Y-176006D01*
X990158Y-176006D01*
X1062164Y80995D02*
G01*
X-6667842Y80995D01*
X-6667842Y-5430004D01*
X1084165Y-5430004D01*
X1084165Y-4110004D01*
X1084165Y-1239004D02*
G01*
X1084165Y80995D01*
X986449Y-175331D02*
G01*
X1062164Y-175331D01*
X-6151836Y-5173004D02*
G01*
X1084160Y-5173004D01*
X-6151824Y-5173009D02*
G01*
X1084173Y-5173009D01*
X-6150833Y-5173009D02*
G01*
X-6150833Y-176006D01*
X990163Y-176006D01*
X1062172Y81000D02*
G01*
X-6667835Y81000D01*
X-6667835Y-5429999D01*
X1084173Y-5429999D01*
X1084173Y-4109999D01*
X1084173Y-1238999D02*
G01*
X1084173Y81000D01*
X986457Y-175331D02*
G01*
X1062172Y-175331D01*
X-6151824Y-5173004D02*
G01*
X1084173Y-5173004D01*
X-6150833Y-5173004D02*
G01*
X-6150833Y-176006D01*
X990163Y-176006D01*
X1062172Y80995D02*
G01*
X-6667835Y80995D01*
X-6667835Y-5430004D01*
X1084173Y-5430004D01*
X1084173Y-4110004D01*
X1084173Y-1239004D02*
G01*
X1084173Y80995D01*
X986457Y-175331D02*
G01*
X1062172Y-175331D01*
X-6150836Y-5173004D02*
G01*
X-6150836Y-176004D01*
X990163Y-176004D01*
X1062161Y80995D02*
G01*
X-6667837Y80995D01*
X-6667837Y-5430004D01*
X1084160Y-5430004D01*
X1084160Y-4110004D01*
X1084160Y-1239004D02*
G01*
X1084160Y80995D01*
X986454Y-175331D02*
G01*
X1062161Y-175331D01*
D12*
X-8344674Y792304D02*
G01*
X-8344674Y542302D01*
X-9344675Y542302D01*
X-9344675Y792304D01*
X-8344674Y792304D01*
X-5416565Y-5905416D02*
G01*
X-5416565Y-6155418D01*
X-6416565Y-6155418D01*
X-6416565Y-5905416D01*
X-5416565Y-5905416D01*
D11*
G75*
G01*
X-9404677Y657936D02*
G03*
X-9404680Y657384I-51039J6D01*
G75*
G01*
X-6476567Y-6039784D02*
G03*
X-6476570Y-6040336I-51039J6D01*
M02*
