G04 Layer: InnerLayer1*
G04 EasyEDA v6.5.46, 2026-07-24 11:31:18*
G04 Gerber Generator version 0.2*
G04 Scale: 100 percent, Rotated: No, Reflected: No *
G04 Dimensions in millimeters *
G04 leading zeros omitted , absolute positions ,4 integer and 5 decimal *
%FSLAX45Y45*%
%MOMM*%

%ADD10C,0.2000*%
%ADD11C,0.2540*%
%ADD12C,0.5000*%
%ADD13C,1.7000*%
%ADD14C,1.6000*%
%ADD15C,1.5750*%
%ADD16C,0.0161*%
%ADD17C,1.5748*%
%ADD18R,1.5748X1.5748*%
%ADD19C,1.5000*%
%ADD20C,5.3000*%
%ADD21C,1.5240*%
%ADD22C,2.3000*%
%ADD23C,0.6000*%
%ADD24C,0.6500*%
%ADD25C,0.7000*%
%ADD26C,1.2000*%
%ADD27C,4.0000*%
%ADD28C,3.2000*%
%ADD29C,1.0000*%
%ADD30C,1.3000*%
%ADD31C,0.6200*%

%LPD*%
D10*
X-8718565Y-1855416D02*
G01*
X-8712565Y-1849417D01*
X-7436566Y-1849417D01*
X-7102566Y-1515417D01*
X-3385565Y-1515417D01*
X-9408566Y-2739415D02*
G01*
X-9142564Y-2739415D01*
X-8953566Y-2550416D01*
X-8099564Y-2550416D01*
X-7569565Y-2020415D01*
X-7325565Y-2020415D01*
X-7031565Y-1726415D01*
X-2578564Y-1726415D01*
D11*
X-10418566Y-3500417D02*
G01*
X-9733567Y-3500417D01*
X-9623564Y-3390417D01*
X-8899565Y-3390417D01*
X-8309566Y-2800416D01*
X-7988566Y-2800416D01*
X-7454066Y-2265916D01*
X-7207067Y-2265916D01*
X-6915843Y-1974695D01*
X-4574288Y-1974695D01*
X-4179564Y-2369416D01*
X-9367565Y-4075417D02*
G01*
X-7375565Y-4075417D01*
X-6124564Y-2824416D01*
X-4421565Y-2824416D01*
X-10414566Y-3241415D02*
G01*
X-9711565Y-3241415D01*
X-9632566Y-3320414D01*
X-8931564Y-3320414D01*
X-8345566Y-2734416D01*
X-8020565Y-2734416D01*
X-7484564Y-2198415D01*
X-7226566Y-2198415D01*
X-6930842Y-1902693D01*
X-4488289Y-1902693D01*
X-4099565Y-2291415D01*
X-5608566Y-3610416D02*
G01*
X-5607565Y-3611415D01*
X-5607565Y-3990416D01*
X-4322564Y-5275417D01*
X-760564Y-5275417D01*
X-521515Y-4953467D02*
G01*
X-4488515Y-4953467D01*
X-5365567Y-4076415D01*
X-5365567Y-3594414D01*
X-7108283Y-3433180D02*
G01*
X-6950331Y-3433180D01*
X-6186566Y-2669415D01*
X-4194566Y-2669415D01*
D10*
X-4576825Y-3752677D02*
G01*
X-3963827Y-3752677D01*
X-3526566Y-3315416D01*
X-3526566Y-1851416D01*
X-9405566Y-2489415D02*
G01*
X-9403565Y-2487416D01*
X-8114565Y-2487416D01*
X-7593065Y-1965916D01*
X-7367066Y-1965916D01*
X-7050958Y-1649808D01*
X-2663172Y-1649808D01*
D11*
X-5600565Y-4260415D02*
G01*
X-4248566Y-5612417D01*
X-516564Y-5612417D01*
X-10417566Y-4006415D02*
G01*
X-7415565Y-4006415D01*
X-6154564Y-2745417D01*
X-4339564Y-2745417D01*
D10*
X-7517566Y-2591417D02*
G01*
X-7257564Y-2331415D01*
X-7177565Y-2331415D01*
X-6883841Y-2037694D01*
X-5175288Y-2037694D01*
X-5084566Y-2128415D01*
D11*
X-9408566Y-3245416D02*
G01*
X-8953566Y-3245416D01*
X-8380564Y-2672415D01*
X-8050565Y-2672415D01*
X-7508565Y-2130417D01*
X-7245565Y-2130417D01*
X-6948843Y-1833694D01*
X-4262244Y-1833694D01*
X-3881043Y-2214895D01*
D12*
X-8827655Y-4839865D02*
G01*
X-8827655Y-5003672D01*
X-9189676Y-5365694D01*
X-9189676Y-5878692D01*
X-9042674Y-6025692D01*
X-6447675Y-6025692D01*
X-6294676Y-5872693D01*
X-5820288Y-5872693D01*
X-5662566Y-6030417D01*
D11*
X-10407675Y-783694D02*
G01*
X-10407675Y-3105127D01*
X-10483265Y-3180717D01*
X-10483265Y-5207104D01*
X-9551675Y-6138694D01*
X-6424952Y-6138694D01*
X-6316675Y-6030417D01*
X-6170566Y-6030417D01*
X-9405566Y-3501415D02*
G01*
X-7934566Y-3501415D01*
X-6663565Y-2230417D01*
X-4479564Y-2230417D01*
X-4262564Y-2447417D01*
X-9405566Y-3758415D02*
G01*
X-8097565Y-3758415D01*
X-6653565Y-2314414D01*
X-4553567Y-2314414D01*
X-4342152Y-2525829D01*
X-10418566Y-3752415D02*
G01*
X-9673564Y-3752415D01*
X-9578566Y-3847416D01*
X-8089564Y-3847416D01*
X-7509565Y-3267415D01*
X-6889567Y-3267415D01*
X-6216566Y-2594416D01*
X-4262564Y-2594416D01*
X-8979994Y-4275345D02*
G01*
X-7469494Y-4275345D01*
X-6097564Y-2903415D01*
X-4495566Y-2903415D01*
X-9276565Y-5354416D02*
G01*
X-9276565Y-4769416D01*
X-8983565Y-4476414D01*
X-7560566Y-4476414D01*
X-6061565Y-2977415D01*
X-4418566Y-2977415D01*
X-9123565Y-5132415D02*
G01*
X-8955565Y-4964417D01*
X-8955565Y-4704415D01*
X-8798565Y-4547415D01*
X-7519565Y-4547415D01*
X-6036566Y-3064416D01*
X-4350565Y-3064416D01*
X-9018564Y-5895416D02*
G01*
X-9018564Y-5339415D01*
X-8301565Y-4622416D01*
X-7477566Y-4622416D01*
X-5991565Y-3136417D01*
X-4500565Y-3136417D01*
D10*
X-9408566Y-2993415D02*
G01*
X-9309564Y-2993415D01*
X-8927566Y-2611417D01*
X-8081566Y-2611417D01*
X-7540566Y-2070417D01*
X-7270567Y-2070417D01*
X-6976572Y-1776425D01*
X-2651559Y-1776425D01*
X-2586565Y-1841416D01*
X-9408566Y-2233416D02*
G01*
X-9077566Y-2233416D01*
X-9037566Y-2193417D01*
X-7899565Y-2193417D01*
X-7620066Y-1913915D01*
X-7409065Y-1913915D01*
X-7408064Y-1914916D02*
G01*
X-7072957Y-1579808D01*
X-2755173Y-1579808D01*
X-4577565Y-3498415D02*
G01*
X-4118566Y-3498415D01*
X-3759565Y-3139417D01*
X-3759565Y-2117415D01*
X-7960565Y-1346415D02*
G01*
X-7146566Y-1346415D01*
X-7039566Y-1453415D01*
X-3325566Y-1453415D01*
X-3323564Y-1455417D01*
X-9255767Y-2023917D02*
G01*
X-8511265Y-1279415D01*
X-7112566Y-1279415D01*
X-6998566Y-1393416D01*
X-3259566Y-1393416D01*
X-3257565Y-1395415D01*
X-9946566Y-1830415D02*
G01*
X-9610397Y-1830415D01*
X-8994399Y-1214417D01*
X-7074565Y-1214417D01*
X-6959566Y-1329415D01*
X-3196564Y-1329415D01*
X-8258746Y-1045281D02*
G01*
X-7145700Y-1045281D01*
X-6925566Y-1265415D01*
X-3137565Y-1265415D01*
D11*
X-518891Y-5502742D02*
G01*
X-470890Y-5502742D01*
X-452564Y-5484416D01*
X-452564Y-4666416D01*
X-471566Y-4647415D01*
X-3876565Y-4647415D01*
X-4518566Y-4005417D01*
X-4575566Y-4005417D01*
X-5161567Y-4003415D02*
G01*
X-4690905Y-4003415D01*
X-3960566Y-4733757D01*
X-523905Y-4733757D01*
X-5036565Y-4260415D02*
G01*
X-4544565Y-4260415D01*
X-3960566Y-4844414D01*
X-523565Y-4844414D01*
X-519564Y-5393415D02*
G01*
X-4338566Y-5393415D01*
X-5672551Y-4059430D01*
X-5672551Y-3752420D01*
X-6729564Y-4890416D02*
G01*
X-6729564Y-4614415D01*
X-5475566Y-3360417D01*
X-4272567Y-3360417D01*
X-7132566Y-5125415D02*
G01*
X-7132566Y-4744915D01*
X-6395364Y-4007716D01*
X-6394866Y-4007716D01*
X-5670565Y-3283417D01*
X-4349567Y-3283417D01*
X-7239566Y-5908415D02*
G01*
X-7239566Y-4653417D01*
X-5789566Y-3203414D01*
X-4416564Y-3203414D01*
X-7212566Y-2458415D02*
G01*
X-7212566Y-2668417D01*
X-7211565Y-2668417D01*
G75*
G01*
X-10395443Y-795927D02*
G03*
X-10407676Y-825459I29533J-29532D01*
G75*
G01*
X-10407676Y-825459D02*
G03*
X-10419909Y-795927I-41765J0D01*
D10*
G75*
G01*
X-7517566Y-2571416D02*
G03*
X-7483424Y-2557274I0J48284D01*
G75*
G01*
X-7483424Y-2557274D02*
G03*
X-7497566Y-2591416I34142J-34142D01*
D11*
G75*
G01*
X-7223799Y-2656183D02*
G03*
X-7212566Y-2629065I-27118J27118D01*
G75*
G01*
X-7212566Y-2624236D02*
G03*
X-7199333Y-2656183I45180J0D01*
G75*
G01*
X-7200333Y-2470649D02*
G03*
X-7212566Y-2500182I29533J-29533D01*
G75*
G01*
X-7212566Y-2500182D02*
G03*
X-7224799Y-2470649I-41766J0D01*
D10*
G75*
G01*
X-5104566Y-2128416D02*
G03*
X-5118708Y-2094274I-48284J0D01*
G75*
G01*
X-5118708Y-2094274D02*
G03*
X-5084566Y-2108416I34142J34142D01*
D11*
G75*
G01*
X-5583266Y-4260416D02*
G03*
X-5571033Y-4289949I41766J0D01*
G75*
G01*
X-5571033Y-4289949D02*
G03*
X-5600566Y-4277716I-29533J-29533D01*
G75*
G01*
X-5353333Y-3606649D02*
G03*
X-5365566Y-3636182I29533J-29533D01*
G75*
G01*
X-5365566Y-3636182D02*
G03*
X-5377799Y-3606649I-41766J0D01*
G75*
G01*
X-5149333Y-3991183D02*
G03*
X-5119800Y-4003416I29533J29533D01*
G75*
G01*
X-5119800Y-4003416D02*
G03*
X-5149333Y-4015649I0J-41766D01*
G75*
G01*
X-528799Y-5624649D02*
G03*
X-558332Y-5612416I-29533J-29533D01*
G75*
G01*
X-558332Y-5612416D02*
G03*
X-528799Y-5600183I0J41766D01*
G75*
G01*
X-4563333Y-3993183D02*
G03*
X-4533800Y-4005416I29533J29533D01*
G75*
G01*
X-4533800Y-4005416D02*
G03*
X-4563333Y-4017649I0J-41766D01*
G75*
G01*
X-506658Y-5490508D02*
G03*
X-477125Y-5502741I29533J29533D01*
G75*
G01*
X-477125Y-5502741D02*
G03*
X-506658Y-5514974I0J-41766D01*
G75*
G01*
X-531799Y-5405649D02*
G03*
X-561332Y-5393416I-29533J-29533D01*
G75*
G01*
X-561332Y-5393416D02*
G03*
X-531799Y-5381183I0J41766D01*
G75*
G01*
X-772799Y-5287649D02*
G03*
X-802332Y-5275416I-29533J-29533D01*
G75*
G01*
X-802332Y-5275416D02*
G03*
X-772799Y-5263183I0J41766D01*
G75*
G01*
X-533749Y-4965699D02*
G03*
X-563282Y-4953466I-29533J-29533D01*
G75*
G01*
X-563282Y-4953466D02*
G03*
X-533749Y-4941233I0J41766D01*
G75*
G01*
X-5024333Y-4248183D02*
G03*
X-4994800Y-4260416I29533J29533D01*
G75*
G01*
X-4994800Y-4260416D02*
G03*
X-5024333Y-4272649I0J-41766D01*
G75*
G01*
X-535799Y-4856649D02*
G03*
X-565332Y-4844416I-29533J-29533D01*
G75*
G01*
X-565332Y-4844416D02*
G03*
X-535799Y-4832183I0J41766D01*
G75*
G01*
X-536139Y-4745989D02*
G03*
X-565672Y-4733756I-29533J-29533D01*
G75*
G01*
X-565672Y-4733756D02*
G03*
X-536139Y-4721523I0J41766D01*
G75*
G01*
X-5596333Y-3622649D02*
G03*
X-5607566Y-3649768I27119J-27119D01*
G75*
G01*
X-5607566Y-3654596D02*
G03*
X-5620799Y-3622649I-45180J0D01*
D10*
G75*
G01*
X-9932424Y-1816274D02*
G03*
X-9898282Y-1830416I34143J34142D01*
G75*
G01*
X-9898282Y-1830416D02*
G03*
X-9932424Y-1844558I1J-48284D01*
G75*
G01*
X-7946424Y-1332274D02*
G03*
X-7912282Y-1346416I34142J34142D01*
G75*
G01*
X-7912282Y-1346416D02*
G03*
X-7946424Y-1360558I0J-48284D01*
G75*
G01*
X-8704424Y-1841274D02*
G03*
X-8684767Y-1849416I19657J19657D01*
G75*
G01*
X-8655797Y-1849416D02*
G03*
X-8704424Y-1869558I1J-68770D01*
G75*
G01*
X-3512424Y-1865559D02*
G03*
X-3526566Y-1899701I34142J-34142D01*
G75*
G01*
X-3526566Y-1899701D02*
G03*
X-3540708Y-1865559I-48284J0D01*
G75*
G01*
X-4562685Y-3738535D02*
G03*
X-4528543Y-3752677I34142J34142D01*
G75*
G01*
X-4528543Y-3752677D02*
G03*
X-4562685Y-3766819I0J-48284D01*
G75*
G01*
X-3745424Y-2131558D02*
G03*
X-3759566Y-2165700I34142J-34143D01*
G75*
G01*
X-3759566Y-2165700D02*
G03*
X-3773708Y-2131558I-48284J-1D01*
G75*
G01*
X-4563424Y-3484274D02*
G03*
X-4529282Y-3498416I34142J34142D01*
G75*
G01*
X-4529282Y-3498416D02*
G03*
X-4563424Y-3512558I0J-48284D01*
G75*
G01*
X-9394424Y-2219274D02*
G03*
X-9360282Y-2233416I34142J34142D01*
G75*
G01*
X-9360282Y-2233416D02*
G03*
X-9394424Y-2247558I0J-48284D01*
G75*
G01*
X-9391424Y-2475274D02*
G03*
X-9362110Y-2487416I29314J29314D01*
G75*
G01*
X-9352453Y-2487416D02*
G03*
X-9391424Y-2503558I0J-55113D01*
G75*
G01*
X-9394424Y-2725274D02*
G03*
X-9360282Y-2739416I34142J34142D01*
G75*
G01*
X-9360282Y-2739416D02*
G03*
X-9394424Y-2753558I0J-48284D01*
G75*
G01*
X-9394424Y-2979274D02*
G03*
X-9360282Y-2993416I34142J34142D01*
G75*
G01*
X-9360282Y-2993416D02*
G03*
X-9394424Y-3007558I0J-48284D01*
D11*
G75*
G01*
X-6741799Y-4878183D02*
G03*
X-6729566Y-4848650I-29533J29533D01*
G75*
G01*
X-6729566Y-4848650D02*
G03*
X-6717333Y-4878183I41766J0D01*
G75*
G01*
X-4284799Y-3372649D02*
G03*
X-4314332Y-3360416I-29533J-29533D01*
G75*
G01*
X-4314332Y-3360416D02*
G03*
X-4284799Y-3348183I0J41766D01*
G75*
G01*
X-7144799Y-5113183D02*
G03*
X-7132566Y-5083650I-29533J29533D01*
G75*
G01*
X-7132566Y-5083650D02*
G03*
X-7120333Y-5113183I41766J0D01*
G75*
G01*
X-4361799Y-3295649D02*
G03*
X-4391332Y-3283416I-29533J-29533D01*
G75*
G01*
X-4391332Y-3283416D02*
G03*
X-4361799Y-3271183I0J41766D01*
G75*
G01*
X-7251799Y-5896183D02*
G03*
X-7239566Y-5866650I-29533J29533D01*
G75*
G01*
X-7239566Y-5866650D02*
G03*
X-7227333Y-5896183I41766J0D01*
G75*
G01*
X-4428799Y-3215649D02*
G03*
X-4458332Y-3203416I-29533J-29533D01*
G75*
G01*
X-4458332Y-3203416D02*
G03*
X-4428799Y-3191183I0J41766D01*
G75*
G01*
X-9123566Y-5115116D02*
G03*
X-9094033Y-5102883I0J41765D01*
G75*
G01*
X-9094033Y-5102883D02*
G03*
X-9106266Y-5132416I29533J-29533D01*
G75*
G01*
X-9288799Y-5342183D02*
G03*
X-9276566Y-5312650I-29533J29533D01*
G75*
G01*
X-9276566Y-5312650D02*
G03*
X-9264333Y-5342183I41766J0D01*
G75*
G01*
X-9030799Y-5883183D02*
G03*
X-9018566Y-5853650I-29533J29533D01*
G75*
G01*
X-9018566Y-5853650D02*
G03*
X-9006333Y-5883183I41766J0D01*
G75*
G01*
X-4512799Y-3148649D02*
G03*
X-4542332Y-3136416I-29533J-29533D01*
G75*
G01*
X-4542332Y-3136416D02*
G03*
X-4512799Y-3124183I0J41766D01*
G75*
G01*
X-4362799Y-3076649D02*
G03*
X-4392332Y-3064416I-29533J-29533D01*
G75*
G01*
X-4392332Y-3064416D02*
G03*
X-4362799Y-3052183I0J41766D01*
G75*
G01*
X-4430799Y-2989649D02*
G03*
X-4460332Y-2977416I-29533J-29533D01*
G75*
G01*
X-4460332Y-2977416D02*
G03*
X-4430799Y-2965183I0J41766D01*
G75*
G01*
X-4507799Y-2915649D02*
G03*
X-4537332Y-2903416I-29533J-29533D01*
G75*
G01*
X-4537332Y-2903416D02*
G03*
X-4507799Y-2891183I0J41766D01*
G75*
G01*
X-9355333Y-4063183D02*
G03*
X-9325800Y-4075416I29533J29533D01*
G75*
G01*
X-9325800Y-4075416D02*
G03*
X-9355333Y-4087649I0J-41766D01*
G75*
G01*
X-4433799Y-2836649D02*
G03*
X-4463332Y-2824416I-29533J-29533D01*
G75*
G01*
X-4463332Y-2824416D02*
G03*
X-4433799Y-2812183I0J41766D01*
G75*
G01*
X-10405333Y-3994183D02*
G03*
X-10375800Y-4006416I29533J29533D01*
G75*
G01*
X-10375800Y-4006416D02*
G03*
X-10405333Y-4018649I0J-41766D01*
G75*
G01*
X-4351799Y-2757649D02*
G03*
X-4381332Y-2745416I-29533J-29533D01*
G75*
G01*
X-4381332Y-2745416D02*
G03*
X-4351799Y-2733183I0J41766D01*
G75*
G01*
X-4206799Y-2681649D02*
G03*
X-4236332Y-2669416I-29533J-29533D01*
G75*
G01*
X-4236332Y-2669416D02*
G03*
X-4206799Y-2657183I0J41766D01*
G75*
G01*
X-10406333Y-3740183D02*
G03*
X-10376800Y-3752416I29533J29533D01*
G75*
G01*
X-10376800Y-3752416D02*
G03*
X-10406333Y-3764649I0J-41766D01*
G75*
G01*
X-4274799Y-2606649D02*
G03*
X-4304331Y-2594416I-29532J-29533D01*
G75*
G01*
X-4304331Y-2594416D02*
G03*
X-4274799Y-2582183I0J41766D01*
G75*
G01*
X-9393333Y-3746183D02*
G03*
X-9363800Y-3758416I29533J29533D01*
G75*
G01*
X-9363800Y-3758416D02*
G03*
X-9393333Y-3770649I0J-41766D01*
G75*
G01*
X-4359453Y-2525829D02*
G03*
X-4371685Y-2496297I-41765J0D01*
G75*
G01*
X-4371685Y-2496297D02*
G03*
X-4342153Y-2508529I29532J29533D01*
G75*
G01*
X-9393333Y-3489183D02*
G03*
X-9363800Y-3501416I29533J29533D01*
G75*
G01*
X-9363800Y-3501416D02*
G03*
X-9393333Y-3513649I0J-41766D01*
G75*
G01*
X-4279866Y-2447416D02*
G03*
X-4292099Y-2417883I-41765J0D01*
G75*
G01*
X-4292099Y-2417883D02*
G03*
X-4262566Y-2430116I29533J29533D01*
G75*
G01*
X-10406333Y-3488183D02*
G03*
X-10376800Y-3500416I29533J29533D01*
G75*
G01*
X-10376800Y-3500416D02*
G03*
X-10406333Y-3512649I0J-41766D01*
G75*
G01*
X-4196866Y-2369416D02*
G03*
X-4209099Y-2339883I-41766J0D01*
G75*
G01*
X-4209099Y-2339883D02*
G03*
X-4179566Y-2352116I29533J29533D01*
G75*
G01*
X-10402333Y-3229183D02*
G03*
X-10372800Y-3241416I29533J29533D01*
G75*
G01*
X-4116866Y-2291416D02*
G03*
X-4129099Y-2261883I-41766J0D01*
G75*
G01*
X-4129099Y-2261883D02*
G03*
X-4099566Y-2274116I29533J29533D01*
G75*
G01*
X-9396333Y-3233183D02*
G03*
X-9366800Y-3245416I29533J29533D01*
G75*
G01*
X-9366800Y-3245416D02*
G03*
X-9396333Y-3257649I0J-41766D01*
G75*
G01*
X-3898344Y-2214894D02*
G03*
X-3910577Y-2185361I-41765J0D01*
G75*
G01*
X-3910577Y-2185361D02*
G03*
X-3881044Y-2197594I29533J29532D01*
D10*
G75*
G01*
X-2768708Y-1594558D02*
G03*
X-2804316Y-1579809I-35609J-35609D01*
G75*
G01*
X-2801384Y-1579809D02*
G03*
X-2768708Y-1566274I0J46211D01*
G75*
G01*
X-2674708Y-1666558D02*
G03*
X-2715145Y-1649809I-40437J-40437D01*
G75*
G01*
X-2702555Y-1649809D02*
G03*
X-2674708Y-1638274I-1J39382D01*
G75*
G01*
X-2592708Y-1740558D02*
G03*
X-2626850Y-1726416I-34142J-34142D01*
G75*
G01*
X-2626850Y-1726416D02*
G03*
X-2592708Y-1712274I0J48284D01*
G75*
G01*
X-2606566Y-1841416D02*
G03*
X-2620708Y-1807274I-48284J0D01*
G75*
G01*
X-2620708Y-1807274D02*
G03*
X-2586566Y-1821416I34142J34142D01*
D11*
G75*
G01*
X-8943579Y-4238930D02*
G03*
X-8855663Y-4275346I87915J87916D01*
G75*
G01*
X-8925618Y-4220969D02*
G03*
X-8794342Y-4275346I131276J131276D01*
G75*
G01*
X-8907658Y-4203009D02*
G03*
X-8733021Y-4275346I174637J174637D01*
G75*
G01*
X-8855663Y-4275346D02*
G03*
X-8943579Y-4311762I-1J-124331D01*
G75*
G01*
X-8794342Y-4275346D02*
G03*
X-8925618Y-4329722I0J-185652D01*
G75*
G01*
X-8733021Y-4275346D02*
G03*
X-8907658Y-4347683I0J-246973D01*
D10*
G75*
G01*
X-8212784Y-999319D02*
G03*
X-8101823Y-1045281I110961J110962D01*
G75*
G01*
X-8198642Y-985177D02*
G03*
X-8053539Y-1045281I145104J145104D01*
G75*
G01*
X-8184500Y-971035D02*
G03*
X-8005254Y-1045281I179246J179246D01*
G75*
G01*
X-8101823Y-1045281D02*
G03*
X-8212784Y-1091243I0J-156923D01*
G75*
G01*
X-8053539Y-1045281D02*
G03*
X-8198642Y-1105385I1J-205207D01*
G75*
G01*
X-8005254Y-1045281D02*
G03*
X-8184500Y-1119527I0J-253492D01*
G75*
G01*
X-9255768Y-1958918D02*
G03*
X-9144806Y-1912956I0J156924D01*
G75*
G01*
X-9255768Y-1938918D02*
G03*
X-9110664Y-1878814I0J205208D01*
G75*
G01*
X-9255768Y-1918918D02*
G03*
X-9076522Y-1844672I1J253492D01*
G75*
G01*
X-9144806Y-1912956D02*
G03*
X-9190768Y-2023918I110962J-110962D01*
G75*
G01*
X-9110664Y-1878814D02*
G03*
X-9170768Y-2023918I145104J-145104D01*
G75*
G01*
X-9076522Y-1844672D02*
G03*
X-9150768Y-2023918I179246J-179246D01*
D11*
G75*
G01*
X-6202410Y-6057647D02*
G03*
X-6261526Y-6030416I-59116J-50553D01*
G75*
G01*
X-6221714Y-6074155D02*
G03*
X-6316668Y-6030416I-94954J-81198D01*
G75*
G01*
X-6261526Y-6030416D02*
G03*
X-6202410Y-6003185I0J77784D01*
G75*
G01*
X-6316668Y-6030416D02*
G03*
X-6221714Y-5986677I0J124937D01*
D12*
G75*
G01*
X-5717566Y-6030416D02*
G03*
X-5756456Y-5936525I-132781J0D01*
G75*
G01*
X-5756457Y-5936526D02*
G03*
X-5662566Y-5975416I93891J93891D01*
G75*
G01*
X-8789656Y-4877866D02*
G03*
X-8827656Y-4969606I91740J-91740D01*
G75*
G01*
X-8827656Y-4969606D02*
G03*
X-8865656Y-4877866I-129740J0D01*
D11*
G75*
G01*
X-10372800Y-3241416D02*
G03*
X-10402333Y-3253649I0J-41766D01*
D13*
G01*
X-8844686Y667308D03*
D14*
G01*
X-8590686Y667308D03*
G01*
X-9098686Y667308D03*
D13*
G01*
X-5916574Y-6030417D03*
D14*
G01*
X-5662574Y-6030417D03*
G01*
X-6170574Y-6030417D03*
D15*
G01*
X-3402685Y574294D03*
G01*
X-3402685Y320294D03*
G01*
X-2640685Y574294D03*
D17*
G01*
X-2386685Y320294D03*
G01*
X-2640685Y320294D03*
G01*
X-2894685Y320294D03*
D18*
G01*
X-2386685Y574294D03*
D17*
G01*
X-2894685Y574294D03*
G01*
X-3148685Y320294D03*
G01*
X-3148685Y574294D03*
D19*
G01*
X-10508513Y-446481D03*
G01*
X-9797313Y-446481D03*
D20*
G01*
X-10330713Y-6026861D03*
G01*
X868146Y-6020511D03*
G01*
X864336Y690168D03*
G01*
X-10344683Y667308D03*
D21*
G01*
X-9081643Y-4839868D03*
G01*
X-8827643Y-4839868D03*
D22*
G01*
X-9255759Y-2023922D03*
G01*
X-8258733Y-1045286D03*
G01*
X-8730386Y-2771343D03*
G01*
X-7960563Y-2001520D03*
G01*
X-7982965Y-3296716D03*
G01*
X-7108291Y-3433190D03*
G01*
X-8979992Y-4275353D03*
D23*
G01*
X-6586575Y-2606420D03*
G01*
X-6586575Y-2480411D03*
G01*
X-6461556Y-2606420D03*
G01*
X-6461556Y-2481427D03*
D24*
G01*
X-10334523Y-5804611D03*
G01*
X-10177043Y-5869381D03*
G01*
X-10489463Y-5868111D03*
G01*
X-10560583Y-6030671D03*
G01*
X-10114813Y-6025591D03*
G01*
X-10489463Y-6177991D03*
G01*
X-10334523Y-6244031D03*
G01*
X-10178313Y-6179261D03*
G01*
X864336Y-5798261D03*
G01*
X1021816Y-5863031D03*
G01*
X709396Y-5861761D03*
G01*
X638276Y-6024321D03*
G01*
X1084046Y-6019241D03*
G01*
X709396Y-6171641D03*
G01*
X864336Y-6237681D03*
G01*
X1020546Y-6172911D03*
G01*
X860526Y912418D03*
G01*
X1018006Y847648D03*
G01*
X705586Y848918D03*
G01*
X634466Y686358D03*
G01*
X1080236Y691438D03*
G01*
X705586Y539038D03*
G01*
X860526Y472998D03*
G01*
X1016736Y537768D03*
G01*
X-10348493Y889558D03*
G01*
X-10191013Y824788D03*
G01*
X-10503433Y826058D03*
G01*
X-10574553Y663498D03*
G01*
X-10128783Y668578D03*
G01*
X-10503433Y516178D03*
G01*
X-10348493Y450138D03*
G01*
X-10192283Y514908D03*
D23*
G01*
X-5260670Y-6045682D03*
G01*
X-5362676Y-6044692D03*
G01*
X-8801684Y-1399692D03*
G01*
X-8905671Y-1483690D03*
G01*
X-6907682Y-1184681D03*
G01*
X-6803669Y-1185697D03*
G01*
X-6689674Y-1186687D03*
G01*
X-6566687Y-1188694D03*
G01*
X-6458686Y-1187704D03*
D25*
G01*
X-8255685Y-4719701D03*
D23*
G01*
X-7826679Y-4719701D03*
D25*
G01*
X-5235956Y-4869434D03*
G01*
X-6251676Y-4877688D03*
D23*
G01*
X-7154672Y-3631692D03*
D25*
G01*
X-2030958Y-4374413D03*
D23*
G01*
X-2027681Y-1884705D03*
D25*
G01*
X-2025954Y-1322425D03*
D23*
G01*
X-2027681Y434314D03*
G01*
X-4039666Y-2598699D03*
G01*
X-4057548Y-3275837D03*
G01*
X-2971672Y-4110685D03*
G01*
X-2028672Y-3496690D03*
G01*
X-2106675Y-2660700D03*
G01*
X-2892679Y-1864690D03*
G01*
X-3045663Y-1864690D03*
D26*
G01*
X-472668Y-928700D03*
G01*
X-1365681Y618312D03*
D23*
G01*
X-6566687Y-2110689D03*
G01*
X-5745556Y-2408809D03*
G01*
X-6073673Y-2437688D03*
G01*
X-5991682Y-863701D03*
G01*
X-5992672Y-2387701D03*
G01*
X-10456392Y-5519750D03*
G01*
X-10645266Y-1883435D03*
G01*
X-10017404Y-1323746D03*
G01*
X-9937419Y-1323746D03*
G01*
X-9937419Y-1236751D03*
G01*
X-10017404Y-1236751D03*
G01*
X-10305415Y-1081735D03*
G01*
X-10304424Y-1001750D03*
G01*
X1153591Y-5163743D03*
G01*
X1153591Y-5003749D03*
G01*
X1153591Y-4861737D03*
G01*
X-1246403Y-4185742D03*
G01*
X-1096416Y-4185742D03*
G01*
X-946404Y-4185742D03*
G01*
X-796416Y-4185742D03*
G01*
X-646404Y-4185742D03*
G01*
X-5056403Y928268D03*
G01*
X-5206415Y928268D03*
G01*
X-4906416Y928268D03*
G01*
X-5956401Y928268D03*
G01*
X-4756404Y928268D03*
G01*
X-5356402Y928268D03*
G01*
X-5506415Y928268D03*
G01*
X-4606416Y928268D03*
G01*
X-8196681Y1016304D03*
G01*
X-8046669Y1016304D03*
G01*
X1153591Y-4721732D03*
G01*
X1153591Y-4601743D03*
G01*
X1151585Y-4485741D03*
G01*
X1153591Y-4352747D03*
G01*
X1136599Y-5595746D03*
G01*
X1135583Y-5745734D03*
G01*
X553593Y-6294754D03*
G01*
X403580Y-6293738D03*
G01*
X253593Y-6292748D03*
G01*
X103581Y-6293738D03*
G01*
X-46405Y-6293738D03*
G01*
X-196418Y-6294754D03*
G01*
X-346405Y-6295745D03*
G01*
X-496417Y-6294754D03*
G01*
X-646404Y-6294754D03*
G01*
X-796416Y-6295745D03*
G01*
X-946404Y-6295745D03*
G01*
X-1096416Y-6295745D03*
G01*
X-1246403Y-6295745D03*
G01*
X-1396415Y-6295745D03*
G01*
X-1546402Y-6295745D03*
G01*
X-1696415Y-6296736D03*
G01*
X-10306380Y-5618734D03*
G01*
X-10156393Y-5730747D03*
G01*
X-10036403Y-5845759D03*
G01*
X-10644403Y-5535752D03*
G01*
X-10646409Y-5385739D03*
G01*
X-10646409Y-5235752D03*
G01*
X-10646409Y-5085740D03*
G01*
X-10646409Y-4935753D03*
G01*
X-10646409Y-4785740D03*
G01*
X-10466400Y134238D03*
G01*
X-10616412Y134238D03*
G01*
X-2776397Y929792D03*
G01*
X-3057677Y927303D03*
G01*
X-3256406Y928801D03*
G01*
X-3556406Y929792D03*
G01*
X-2236419Y-1970811D03*
G01*
X-496417Y-4185742D03*
G01*
X-196418Y-4185742D03*
G01*
X-46405Y-4185742D03*
G01*
X103581Y-4185742D03*
G01*
X1153591Y-4185742D03*
G01*
X1003604Y-4185742D03*
G01*
X853592Y-4185742D03*
G01*
X403606Y-4185742D03*
G01*
X253593Y-4185742D03*
G01*
X-10226395Y134238D03*
G01*
X-10056393Y134238D03*
G01*
X-9886416Y134238D03*
G01*
X-10616412Y284251D03*
G01*
X-10466400Y284251D03*
G01*
X-10246385Y324256D03*
G01*
X-10066400Y424256D03*
G01*
X-9966401Y584250D03*
G01*
X-9946386Y744245D03*
G01*
X-10646409Y-3135756D03*
G01*
X-10646409Y-3285744D03*
G01*
X-10646409Y-3435756D03*
G01*
X-10646409Y-3585743D03*
G01*
X-10646409Y-3735755D03*
G01*
X-10646409Y-3885742D03*
G01*
X-10646409Y-4035755D03*
G01*
X-10646409Y-4185742D03*
G01*
X-10646409Y-4335754D03*
G01*
X-10646409Y-4485741D03*
G01*
X-10646409Y-4635754D03*
G01*
X-10636402Y-5665749D03*
G01*
X-10636402Y-5795746D03*
G01*
X-9916388Y-5955741D03*
G01*
X-9826396Y-6055740D03*
G01*
X-9736404Y-6145733D03*
G01*
X-9646386Y-6235750D03*
G01*
X-10096398Y-6335750D03*
G01*
X-9946386Y-6335750D03*
G01*
X-9796399Y-6335750D03*
G01*
X-9646386Y-6335750D03*
G01*
X-9496399Y-6335750D03*
G01*
X-9346387Y-6335750D03*
G01*
X-9196400Y-6335750D03*
G01*
X-9046387Y-6335750D03*
G01*
X-8896400Y-6335750D03*
G01*
X-8746388Y-6335750D03*
G01*
X-8596401Y-6335750D03*
G01*
X-8446388Y-6335750D03*
G01*
X-8296402Y-6335750D03*
G01*
X-8146389Y-6335750D03*
G01*
X-7996402Y-6335750D03*
G01*
X-7846390Y-6335750D03*
G01*
X-7696403Y-6335750D03*
G01*
X-7546390Y-6335750D03*
G01*
X-7396403Y-6335750D03*
G01*
X-7246391Y-6335750D03*
G01*
X-7096404Y-6335750D03*
G01*
X-6946391Y-6335750D03*
G01*
X-6796404Y-6335750D03*
G01*
X-6646392Y-6335750D03*
G01*
X-6496405Y-6335750D03*
G01*
X-6346393Y-6335750D03*
G01*
X-6196406Y-6335750D03*
G01*
X-6046393Y-6335750D03*
G01*
X-5896406Y-6335750D03*
G01*
X-5746394Y-6335750D03*
G01*
X-5596407Y-6335750D03*
G01*
X-5446395Y-6335750D03*
G01*
X-5296407Y-6335750D03*
G01*
X-5146395Y-6335750D03*
G01*
X-4996408Y-6335750D03*
G01*
X-4846396Y-6335750D03*
G01*
X-4696409Y-6335750D03*
G01*
X-4546396Y-6335750D03*
G01*
X-4396409Y-6335750D03*
G01*
X-4246397Y-6335750D03*
G01*
X-4096410Y-6335750D03*
G01*
X-3946397Y-6335750D03*
G01*
X-3796411Y-6335750D03*
G01*
X-3646398Y-6335750D03*
G01*
X-3495700Y-6335750D03*
G01*
X-3345713Y-6335750D03*
G01*
X-3195700Y-6335750D03*
G01*
X-3045713Y-6335750D03*
G01*
X-2895701Y-6335750D03*
G01*
X-2741701Y-6335877D03*
G01*
X-2584678Y-6334683D03*
G01*
X-2446400Y-6295745D03*
G01*
X-2296413Y-6295745D03*
G01*
X-2146401Y-6295745D03*
G01*
X-1996414Y-6295745D03*
G01*
X-1846402Y-6295745D03*
G01*
X-9946665Y1016304D03*
G01*
X-9796678Y1016304D03*
G01*
X-9646665Y1016304D03*
G01*
X-9496679Y1016304D03*
G01*
X-8946667Y1016304D03*
G01*
X-8796680Y1016304D03*
G01*
X-8646668Y1016304D03*
G01*
X-8346668Y1016304D03*
G01*
X-8496681Y1016304D03*
G01*
X-7896682Y1016304D03*
G01*
X-7738668Y1014298D03*
G01*
X-7592669Y1013307D03*
G01*
X-7468666Y1015314D03*
G01*
X-7296683Y1016304D03*
G01*
X-7146670Y1016304D03*
G01*
X-6996684Y1016304D03*
G01*
X-6846671Y1016304D03*
G01*
X-6696684Y1016304D03*
G01*
X-6546672Y1016304D03*
G01*
X-6396685Y1016304D03*
G01*
X-6246672Y1016304D03*
G01*
X-5806414Y928268D03*
G01*
X-5656402Y928268D03*
G01*
X-4456404Y928268D03*
G01*
X-4306392Y928801D03*
G01*
X-4156405Y928801D03*
G01*
X-4006392Y928801D03*
G01*
X-3856405Y928801D03*
G01*
X-3706393Y928801D03*
G01*
X-2524683Y932306D03*
G01*
X-2266416Y928801D03*
G01*
X-2116404Y928801D03*
G01*
X-1936419Y928801D03*
G01*
X-1786407Y928801D03*
G01*
X-1636420Y928801D03*
G01*
X-1486407Y928801D03*
G01*
X-1336420Y928801D03*
G01*
X-1186408Y928801D03*
G01*
X-1036421Y928801D03*
G01*
X-886409Y928801D03*
G01*
X-736422Y928801D03*
G01*
X-586409Y928801D03*
G01*
X-436422Y928801D03*
G01*
X-286410Y928801D03*
G01*
X-136423Y928801D03*
G01*
X13588Y928801D03*
G01*
X163575Y928801D03*
G01*
X313588Y928801D03*
G01*
X463575Y928801D03*
G01*
X-2586558Y-1841423D03*
G01*
X-2578557Y-1726412D03*
G01*
X-2660573Y-1652422D03*
G01*
X-2754553Y-1580413D03*
G01*
X-2463571Y-1820418D03*
D27*
G01*
X-7558709Y-1599666D03*
D28*
G01*
X-9680041Y-1599666D03*
D27*
G01*
X-7558709Y-3720972D03*
D23*
G01*
X-10646409Y-2985744D03*
G01*
X-10646409Y-2835757D03*
G01*
X-10646409Y-2635757D03*
G01*
X-10646409Y-2485745D03*
G01*
X-10636275Y-1306423D03*
G01*
X-10644276Y-1814423D03*
G01*
X-10655274Y-1382420D03*
G01*
X-9955275Y-746429D03*
G01*
X-10496270Y-1614423D03*
G01*
X-3881043Y-2214905D03*
G01*
X-9408566Y-3245408D03*
G01*
X-4099559Y-2291410D03*
G01*
X-10414558Y-3241420D03*
G01*
X-4179570Y-2369413D03*
G01*
X-10418572Y-3500424D03*
G01*
X-4262577Y-2447417D03*
G01*
X-9405569Y-3501415D03*
G01*
X-4342155Y-2525826D03*
G01*
X-9405569Y-3758412D03*
G01*
X-4262577Y-2594406D03*
G01*
X-10418572Y-3752418D03*
G01*
X-4194556Y-2669412D03*
G01*
X-4339564Y-2745409D03*
G01*
X-10417556Y-4006418D03*
G01*
X-4421555Y-2824403D03*
G01*
X-9367570Y-4075404D03*
G01*
X-4495571Y-2903423D03*
G01*
X-4418558Y-2977413D03*
G01*
X-4350562Y-3064408D03*
G01*
X-4500575Y-3136417D03*
G01*
X-9018574Y-5895416D03*
G01*
X-9276562Y-5354421D03*
G01*
X-9123578Y-5132425D03*
G01*
X-4416577Y-3203422D03*
G01*
X-7239558Y-5908420D03*
G01*
X-4349572Y-3283407D03*
G01*
X-7132574Y-5125415D03*
G01*
X-4272559Y-3360420D03*
G01*
X-6729577Y-4890414D03*
G01*
X-9408566Y-2993415D03*
G01*
X-9408566Y-2739415D03*
G01*
X-9405569Y-2489428D03*
G01*
X-9408566Y-2233421D03*
G01*
X-4577562Y-3498418D03*
G01*
X-3759555Y-2117420D03*
G01*
X-4576825Y-3752672D03*
G01*
X-3526561Y-1851405D03*
G01*
X-3638575Y-1958416D03*
G01*
X-3693566Y-1867407D03*
G01*
X-3385565Y-1515414D03*
G01*
X-8718575Y-1855419D03*
G01*
X-3323564Y-1455420D03*
G01*
X-7960563Y-1346428D03*
G01*
X-3257575Y-1395425D03*
G01*
X-3196564Y-1329410D03*
G01*
X-9946563Y-1830425D03*
G01*
X-3137560Y-1265428D03*
G01*
X-5608574Y-3610406D03*
G01*
X-523900Y-4733747D03*
G01*
X-523570Y-4844414D03*
G01*
X-5036565Y-4260418D03*
G01*
X-521512Y-4953457D03*
G01*
X-760577Y-5275427D03*
G01*
X-519556Y-5393410D03*
G01*
X-518896Y-5502732D03*
G01*
X-4575556Y-4005427D03*
G01*
X-516559Y-5612409D03*
G01*
X-5161559Y-4003420D03*
G01*
X-5365572Y-3594404D03*
G01*
X-5672556Y-3752418D03*
G01*
X-5600572Y-4260418D03*
G01*
X-5084572Y-2128418D03*
G01*
X-7496556Y-4903419D03*
G01*
X-6982561Y-4501413D03*
G01*
X-2670556Y-4498416D03*
G01*
X-6865569Y-4569409D03*
G01*
X-2596565Y-4569409D03*
G01*
X-7212558Y-2458415D03*
G01*
X-7211568Y-2668422D03*
G01*
X-7517561Y-2591409D03*
G01*
X-7356576Y-3170428D03*
G01*
X-9166682Y-577697D03*
G01*
X-9166682Y-309702D03*
D19*
G01*
X-9145625Y-1178737D03*
D23*
G01*
X-8818676Y332308D03*
G01*
X-8752687Y330301D03*
G01*
X-8894673Y73304D03*
G01*
X-8895664Y10312D03*
G01*
X-7205675Y-675690D03*
G01*
X-7432675Y-679704D03*
G01*
X-7432675Y-581685D03*
G01*
X-7432675Y-470687D03*
G01*
X-7432675Y-364693D03*
G01*
X-7206665Y-583692D03*
G01*
X-7206665Y-470687D03*
G01*
X-7207681Y-362686D03*
G01*
X-7204684Y-265684D03*
G01*
X-7432675Y-266700D03*
G01*
X-10263682Y-1219682D03*
D29*
G01*
X-9475673Y-1840687D03*
D23*
G01*
X-8999677Y-686688D03*
G01*
X-9825685Y-805687D03*
G01*
X-10407675Y-783691D03*
G01*
X-10402671Y-4728692D03*
G01*
X-998677Y-5888685D03*
G01*
X-2645663Y-5887694D03*
G01*
X-6477685Y-5880684D03*
G01*
X-1759686Y-5793689D03*
G01*
X-6633667Y-5679694D03*
G01*
X-1504670Y-5728690D03*
G01*
X-6074689Y-799693D03*
G01*
X-1401673Y-4580686D03*
G01*
X-1583664Y-5090693D03*
G01*
X-1583664Y-863701D03*
G01*
X-1400682Y-798703D03*
G01*
X-5889675Y-2390698D03*
D30*
G01*
X-9145625Y-1704644D03*
D23*
G01*
X-1170686Y-5094681D03*
G01*
X-1939670Y-5546699D03*
D31*
G01*
X-8893047Y223012D03*
G01*
X-8892031Y150113D03*
D27*
G01*
X-7558709Y-1599666D03*
G01*
X-7558709Y-3720972D03*
D28*
G01*
X-9680041Y-1599666D03*
D14*
G01*
X-8937574Y-2342108D03*
G01*
X-8301177Y-2978505D03*
M02*
