M48
METRIC,LZ,000.000
;FILE_FORMAT=3:3
;TYPE=PLATED
;Layer: PTH_Through
;EasyEDA v6.5.46, 2025-01-01 16:01:39
;1acd7fc2553046b79c71bda98b4923fc,10
;Gerber Generator version 0.2
;Holesize 1 = 0.300 mm
T01C0.300
;Holesize 2 = 0.400 mm
T02C0.400
;Holesize 3 = 0.500 mm
T03C0.500
;Holesize 4 = 0.700 mm
T04C0.700
;Holesize 5 = 0.712 mm
T05C0.712
;Holesize 6 = 0.800 mm
T06C0.800
;Holesize 7 = 1.000 mm
T07C1.000
;Holesize 8 = 1.450 mm
T08C1.450
;Holesize 9 = 1.501 mm
T09C1.501
;Holesize 10 = 1.600 mm
T10C1.600
;Holesize 11 = 3.200 mm
T11C3.200
;Holesize 12 = 3.300 mm
T12C3.300
;Holesize 13 = 4.000 mm
T13C4.000
%
G05
G90
T01
X033262Y064570
T02
X033746Y068890
X033746Y067630
X032496Y068890
X032496Y067640
X000503Y006140
X002078Y005493
X-001046Y005505
X-001757Y003880
X002700Y003931
X-001046Y002407
X000503Y001746
X002065Y002394
X112492Y006204
X114067Y005556
X110942Y005569
X110231Y003943
X114689Y003994
X110942Y002470
X112492Y001810
X114054Y002457
X112454Y073311
X114028Y072663
X110904Y072676
X110193Y071050
X114651Y071101
X110904Y069577
X112454Y068917
X114016Y069564
X000363Y073082
X001938Y072434
X-001186Y072447
X-001897Y070822
X002561Y070872
X-001186Y069348
X000363Y068688
X001926Y069336
X043182Y073180
X057290Y063879
X055639Y063879
X054115Y063879
X023541Y056040
X-000716Y008989
X040694Y054339
X039184Y054339
X037684Y054339
X036194Y054339
X034684Y054339
X033184Y054339
X031694Y054339
X030184Y054339
X028684Y054339
X040694Y057659
X039184Y057659
X037684Y057659
X036194Y057659
X034684Y057659
X033184Y057659
X031694Y057659
X030184Y057659
X028684Y057659
X027194Y057659
X025684Y057659
X024184Y057659
X-002604Y045352
X003264Y054799
X000826Y052072
X001374Y051759
X001394Y052349
X001394Y052349
X003674Y050949
X004474Y050949
X004474Y051819
X003674Y051819
X000794Y053369
X000804Y054169
X115384Y012549
X115384Y014149
X115384Y015569
X091384Y022329
X092884Y022329
X094384Y022329
X095884Y022329
X097384Y022329
X082084Y026189
X082084Y027159
X086521Y016440
X076134Y058229
X069384Y058229
X068854Y056279
X059895Y043988
X081972Y056970
X070944Y056949
X060837Y043271
X078771Y056139
X071254Y056139
X065404Y066959
X022844Y069129
X022854Y070029
X024785Y069289
X041284Y063829
X041284Y064749
X017594Y069039
X016784Y069039
X021954Y060729
X022604Y061599
X033484Y062559
X032884Y063169
X022684Y048469
X022684Y049489
X022684Y050469
X019781Y050798
X020551Y051588
X019071Y049998
X053284Y073469
X051784Y073469
X054784Y073469
X044284Y073469
X056284Y073469
X050284Y073469
X048784Y073469
X057784Y073469
X021882Y074350
X023382Y074350
X064450Y066340
X047962Y071820
X028462Y067260
X029172Y066460
X033902Y071829
X039922Y069890
X039929Y061954
X047970Y065068
X023182Y068229
X009236Y057012
X022652Y071790
X009622Y065100
X035742Y072490
X009572Y059860
X043912Y060994
X045552Y067320
X046412Y066020
X047212Y041900
X047212Y068570
X044692Y069849
X040972Y069849
X040992Y067830
X025171Y026068
X031191Y031448
X030271Y030328
X024261Y025278
X033391Y025758
X033401Y024428
X031911Y025798
X033391Y027298
X032081Y032348
X049684Y011368
X048184Y011358
X046684Y011348
X045184Y011358
X043684Y011348
X115384Y016969
X115384Y018169
X115364Y019329
X115384Y020659
X115214Y008229
X115204Y006729
X109384Y001239
X107884Y001249
X106384Y001259
X104884Y001249
X103384Y001249
X101884Y001239
X100384Y001229
X098884Y001239
X097384Y001239
X095884Y001229
X094384Y001229
X092884Y001229
X091384Y001229
X089884Y001229
X088384Y001229
X086884Y001219
X000785Y007999
X002284Y006879
X003484Y005729
X-002596Y008829
X-002616Y010329
X-002616Y011829
X-002616Y013329
X-002616Y014829
X-002616Y016329
X-000816Y065529
X-002316Y065529
X076084Y073484
X073272Y073460
X071284Y073475
X068284Y073484
X074584Y020369
X074584Y021658
X074584Y022719
X081484Y044478
X074365Y029879
X072535Y029828
X070635Y029808
X077555Y039659
X069335Y039858
X074145Y039309
X074145Y040279
X074345Y033929
X074335Y035788
X072555Y035769
X072545Y033948
X070655Y033938
X070685Y035769
X098884Y022329
X100384Y022329
X101884Y022329
X103384Y022329
X104884Y022329
X066784Y020168
X066784Y021048
X066784Y021959
X066784Y022808
X072121Y024198
X072121Y025078
X083535Y045249
X079544Y049619
X115384Y022329
X113884Y022329
X112384Y022329
X110884Y022329
X109384Y022329
X107884Y022329
X106384Y022329
X001584Y065529
X003284Y065529
X004984Y065529
X006384Y067929
X006384Y066729
X006384Y065529
X-002316Y067029
X-000816Y067029
X001385Y067429
X003184Y068429
X004184Y070029
X004385Y071629
X-002616Y032829
X-002616Y031329
X-002616Y029829
X-002616Y028329
X-002616Y026829
X-002616Y025329
X-002616Y023829
X-002616Y022329
X-002616Y020829
X-002616Y019329
X-002616Y017829
X-002516Y007529
X-002516Y006229
X004684Y004629
X005584Y003629
X006484Y002729
X007385Y001829
X002884Y000829
X004385Y000829
X005884Y000829
X007385Y000829
X008884Y000829
X010385Y000829
X011884Y000829
X013385Y000829
X014884Y000829
X016384Y000829
X017884Y000829
X019384Y000829
X020884Y000829
X022384Y000829
X023884Y000829
X025384Y000829
X026884Y000829
X028384Y000829
X029884Y000829
X031384Y000829
X032884Y000829
X034384Y000829
X035884Y000829
X037384Y000829
X038884Y000829
X040384Y000829
X041884Y000829
X043384Y000829
X044884Y000829
X046384Y000829
X047884Y000829
X049384Y000829
X050884Y000829
X052384Y000829
X053884Y000829
X055384Y000829
X056884Y000829
X058384Y000829
X059884Y000829
X061384Y000829
X062884Y000829
X064384Y000829
X065884Y000829
X067384Y000829
X068891Y000829
X070391Y000829
X071891Y000829
X073391Y000829
X074891Y000829
X076431Y000828
X078002Y000840
X079384Y001229
X080884Y001229
X082384Y001229
X083884Y001229
X085384Y001229
X004382Y074350
X005882Y074350
X007382Y074350
X008882Y074350
X014382Y074350
X015882Y074350
X017382Y074350
X020382Y074350
X018882Y074350
X024882Y074350
X026462Y074330
X027922Y074320
X029162Y074340
X030882Y074350
X032382Y074350
X033882Y074350
X035382Y074350
X036882Y074350
X038382Y074350
X039882Y074350
X041382Y074350
X045784Y073469
X047284Y073469
X059284Y073469
X060784Y073475
X062284Y073475
X063784Y073475
X065284Y073475
X066784Y073475
X078602Y073510
X081184Y073475
X082684Y073475
X084484Y073475
X085984Y073475
X087484Y073475
X088984Y073475
X090484Y073475
X091984Y073475
X093484Y073475
X094984Y073475
X096484Y073475
X097984Y073475
X099484Y073475
X100984Y073475
X102484Y073475
X103984Y073475
X105484Y073475
X106984Y073475
X108484Y073475
X027601Y019268
X023813Y020081
X028890Y022249
X026321Y021528
X017452Y004818
X085852Y017350
X077648Y008828
X034983Y005683
X076673Y015173
X033983Y015173
X068663Y007623
X068663Y004453
X063595Y015808
X036533Y015813
X063015Y016538
X031443Y015303
X062135Y007909
X032333Y005783
X061270Y008433
X014703Y005623
X060676Y014433
X014723Y014433
X059741Y013778
X012013Y014393
X-001718Y058110
X061644Y042569
X057445Y030168
X047615Y039378
X058814Y044899
X057445Y027618
X047615Y040929
X069195Y046318
X077135Y046328
X076515Y047028
X068495Y047039
X075865Y047689
X067745Y047689
X075155Y048389
X067165Y048389
X004574Y045538
X078065Y045868
X047924Y031737
X047879Y021582
X047893Y024121
X047895Y029199
X047897Y026660
X060794Y051359
X058555Y024128
X068304Y052019
X059624Y052679
X058264Y053329
X098233Y060306
X098221Y061405
X098225Y062489
X092008Y060306
X058359Y021582
X091955Y061388
X091955Y062489
X063594Y055499
X060064Y054079
X072164Y054799
X083563Y029081
X083532Y018290
X073148Y024448
X048131Y018289
X091127Y059240
X078791Y019948
X021611Y040768
X040324Y031329
X040344Y029829
X040344Y028329
X040384Y026729
X040384Y025109
X-002616Y034329
X-002616Y035829
X-002616Y037829
X-002616Y039329
X020884Y059739
X019984Y058749
X019024Y057729
X025085Y062139
X024894Y060729
X023884Y059619
X022634Y058629
X021484Y057629
X090962Y015440
X090962Y018290
X096042Y010710
X093452Y015640
X-002514Y051122
X-002594Y046042
X-002704Y050362
X004296Y056722
X-001114Y048042
T03
X014774Y046069
X069914Y059240
X086375Y059240
X004011Y018968
X014804Y064082
X021274Y018289
X101122Y005440
X090962Y006600
X099862Y006600
X089632Y005459
T04
X082571Y008808
T05
X013029Y015788G85X013034Y015788
X015569Y015788G85X015574Y015788
T06
X052422Y070860G85X052382Y070860
X054962Y070860G85X054922Y070860
X049882Y070860G85X049842Y070860
X052441Y003918G85X052401Y003918
X054981Y003918G85X054941Y003918
X049901Y003918G85X049861Y003918
X009484Y045729
T07
X069822Y069930G85X069822Y069930
X069822Y067390G85X069822Y067390
X077442Y069930G85X077442Y069930
X079982Y067390G85X079982Y067390
X077442Y067390G85X077442Y067390
X074902Y067390G85X074902Y067390
X079982Y069930G85X079982Y069930
X074902Y069930G85X074902Y069930
X072362Y067390G85X072362Y067390
X072362Y069930G85X072362Y069930
T08
X011293Y043946G85X011289Y043949
X021263Y053732G85X021259Y053736
X024204Y044129G85X024201Y044133
X014050Y021431G85X014047Y021435
X016546Y036471G85X016543Y036475
X024021Y031218G85X024017Y031221
X032767Y029853G85X032764Y029856
T09
X-001239Y059722G85X-001234Y059722
X005873Y059722G85X005878Y059722
T10
X014473Y040765
X020837Y034402
T11
X007048Y048190
T12
X000539Y003918G85X000544Y003918
X112527Y003981G85X112532Y003981
X112489Y071088G85X112494Y071088
X000399Y070860G85X000404Y070860
T13
X028261Y048190
X028261Y026977
M30
