G04 Layer: TopSilkscreenLayer*
G04 EasyEDA v6.5.46, 2025-01-01 16:01:39*
G04 1acd7fc2553046b79c71bda98b4923fc,10*
G04 Gerber Generator version 0.2*
G04 Scale: 100 percent, Rotated: No, Reflected: No *
G04 Dimensions in millimeters *
G04 leading zeros omitted , absolute positions ,4 integer and 5 decimal *
%FSLAX45Y45*%
%MOMM*%

%ADD10C,0.1200*%
%ADD11C,0.2200*%
%ADD12C,0.2540*%
%ADD13C,0.3048*%
%ADD14C,0.2000*%
%ADD15C,0.0176*%
%ADD16C,0.1524*%
%ADD17C,0.3000*%
%ADD18C,0.1270*%
%ADD19C,0.1000*%

%LPD*%
D10*
X7027296Y6490492D02*
G01*
X7036440Y6495064D01*
X7045330Y6504208D01*
X7049902Y6513098D01*
X7049902Y6531386D01*
X7045330Y6540530D01*
X7036440Y6549674D01*
X7027296Y6553992D01*
X7013580Y6558564D01*
X6990974Y6558564D01*
X6977258Y6553992D01*
X6968114Y6549674D01*
X6958970Y6540530D01*
X6954398Y6531386D01*
X6954398Y6513098D01*
X6958970Y6504208D01*
X6968114Y6495064D01*
X6977258Y6490492D01*
X6990974Y6490492D01*
X6990974Y6513098D02*
G01*
X6990974Y6490492D01*
X7049902Y6460520D02*
G01*
X6954398Y6460520D01*
X7049902Y6460520D02*
G01*
X6954398Y6396766D01*
X7049902Y6396766D02*
G01*
X6954398Y6396766D01*
X7049902Y6366794D02*
G01*
X6954398Y6366794D01*
X7049902Y6366794D02*
G01*
X7049902Y6335044D01*
X7045330Y6321328D01*
X7036440Y6312184D01*
X7027296Y6307866D01*
X7013580Y6303294D01*
X6990974Y6303294D01*
X6977258Y6307866D01*
X6968114Y6312184D01*
X6958970Y6321328D01*
X6954398Y6335044D01*
X6954398Y6366794D01*
X7304900Y6558546D02*
G01*
X7209396Y6558546D01*
X7304900Y6558546D02*
G01*
X7209396Y6495046D01*
X7304900Y6495046D02*
G01*
X7209396Y6495046D01*
X7282294Y6396748D02*
G01*
X7291438Y6401320D01*
X7300328Y6410464D01*
X7304900Y6419608D01*
X7304900Y6437642D01*
X7300328Y6446786D01*
X7291438Y6455930D01*
X7282294Y6460502D01*
X7268578Y6465074D01*
X7245972Y6465074D01*
X7232256Y6460502D01*
X7223112Y6455930D01*
X7213968Y6446786D01*
X7209396Y6437642D01*
X7209396Y6419608D01*
X7213968Y6410464D01*
X7223112Y6401320D01*
X7232256Y6396748D01*
X7555900Y6558594D02*
G01*
X7460396Y6558594D01*
X7555900Y6558594D02*
G01*
X7460396Y6495094D01*
X7555900Y6495094D02*
G01*
X7460396Y6495094D01*
X7533294Y6396796D02*
G01*
X7542438Y6401368D01*
X7551328Y6410512D01*
X7555900Y6419656D01*
X7555900Y6437690D01*
X7551328Y6446834D01*
X7542438Y6455978D01*
X7533294Y6460550D01*
X7519578Y6465122D01*
X7496972Y6465122D01*
X7483256Y6460550D01*
X7474112Y6455978D01*
X7464968Y6446834D01*
X7460396Y6437690D01*
X7460396Y6419656D01*
X7464968Y6410512D01*
X7474112Y6401368D01*
X7483256Y6396796D01*
X7811950Y6552674D02*
G01*
X7811950Y6502636D01*
X7775628Y6529814D01*
X7775628Y6516098D01*
X7771056Y6507208D01*
X7766484Y6502636D01*
X7752768Y6498064D01*
X7743878Y6498064D01*
X7730162Y6502636D01*
X7721018Y6511780D01*
X7716446Y6525242D01*
X7716446Y6538958D01*
X7721018Y6552674D01*
X7725590Y6556992D01*
X7734734Y6561564D01*
X7739306Y6463520D02*
G01*
X7734734Y6468092D01*
X7730162Y6463520D01*
X7734734Y6458948D01*
X7739306Y6463520D01*
X7811950Y6419832D02*
G01*
X7811950Y6369794D01*
X7775628Y6397226D01*
X7775628Y6383510D01*
X7771056Y6374366D01*
X7766484Y6369794D01*
X7752768Y6365222D01*
X7743878Y6365222D01*
X7730162Y6369794D01*
X7721018Y6378938D01*
X7716446Y6392654D01*
X7716446Y6406116D01*
X7721018Y6419832D01*
X7725590Y6424404D01*
X7734734Y6428976D01*
X7811950Y6335250D02*
G01*
X7716446Y6298928D01*
X7811950Y6262606D02*
G01*
X7716446Y6298928D01*
X8043329Y6492491D02*
G01*
X8052219Y6497063D01*
X8061363Y6506207D01*
X8065935Y6515097D01*
X8065935Y6533385D01*
X8061363Y6542529D01*
X8052219Y6551673D01*
X8043329Y6555991D01*
X8029613Y6560563D01*
X8007007Y6560563D01*
X7993291Y6555991D01*
X7984147Y6551673D01*
X7975003Y6542529D01*
X7970431Y6533385D01*
X7970431Y6515097D01*
X7975003Y6506207D01*
X7984147Y6497063D01*
X7993291Y6492491D01*
X8007007Y6492491D01*
X8007007Y6515097D02*
G01*
X8007007Y6492491D01*
X8065935Y6462519D02*
G01*
X7970431Y6462519D01*
X8065935Y6462519D02*
G01*
X7970431Y6398765D01*
X8065935Y6398765D02*
G01*
X7970431Y6398765D01*
X8065935Y6368793D02*
G01*
X7970431Y6368793D01*
X8065935Y6368793D02*
G01*
X8065935Y6337043D01*
X8061363Y6323327D01*
X8052219Y6314183D01*
X8043329Y6309865D01*
X8029613Y6305293D01*
X8007007Y6305293D01*
X7993291Y6309865D01*
X7984147Y6314183D01*
X7975003Y6323327D01*
X7970431Y6337043D01*
X7970431Y6368793D01*
X6950397Y7184991D02*
G01*
X7045901Y7184991D01*
X6950397Y7153241D02*
G01*
X6950397Y7216741D01*
X6950397Y7246713D02*
G01*
X7045901Y7246713D01*
X6950397Y7246713D02*
G01*
X6950397Y7278463D01*
X6954969Y7292179D01*
X6964113Y7301323D01*
X6973257Y7305895D01*
X6986973Y7310467D01*
X7009579Y7310467D01*
X7023295Y7305895D01*
X7032185Y7301323D01*
X7041329Y7292179D01*
X7045901Y7278463D01*
X7045901Y7246713D01*
X6950397Y7340439D02*
G01*
X7045901Y7340439D01*
X7194397Y7153081D02*
G01*
X7289901Y7153081D01*
X7194397Y7153081D02*
G01*
X7289901Y7216835D01*
X7194397Y7216835D02*
G01*
X7289901Y7216835D01*
X7217257Y7314879D02*
G01*
X7208113Y7310307D01*
X7198969Y7301417D01*
X7194397Y7292273D01*
X7194397Y7273985D01*
X7198969Y7264841D01*
X7208113Y7255951D01*
X7217257Y7251379D01*
X7230973Y7246807D01*
X7253579Y7246807D01*
X7267295Y7251379D01*
X7276185Y7255951D01*
X7285329Y7264841D01*
X7289901Y7273985D01*
X7289901Y7292273D01*
X7285329Y7301417D01*
X7276185Y7310307D01*
X7267295Y7314879D01*
X7460396Y7185025D02*
G01*
X7555900Y7185025D01*
X7460396Y7153020D02*
G01*
X7460396Y7216775D01*
X7460396Y7246746D02*
G01*
X7555900Y7246746D01*
X7460396Y7246746D02*
G01*
X7555900Y7283069D01*
X7460396Y7319390D02*
G01*
X7555900Y7283069D01*
X7460396Y7319390D02*
G01*
X7555900Y7319390D01*
X7474112Y7413117D02*
G01*
X7464968Y7403972D01*
X7460396Y7390511D01*
X7460396Y7372222D01*
X7464968Y7358506D01*
X7474112Y7349362D01*
X7483256Y7349362D01*
X7492400Y7353935D01*
X7496972Y7358506D01*
X7501290Y7367651D01*
X7510434Y7394828D01*
X7515006Y7403972D01*
X7519578Y7408545D01*
X7528722Y7413117D01*
X7542184Y7413117D01*
X7551328Y7403972D01*
X7555900Y7390511D01*
X7555900Y7372222D01*
X7551328Y7358506D01*
X7542184Y7349362D01*
X7698460Y7181021D02*
G01*
X7793964Y7181021D01*
X7698460Y7149017D02*
G01*
X7698460Y7212771D01*
X7698460Y7242743D02*
G01*
X7793964Y7242743D01*
X7698460Y7242743D02*
G01*
X7698460Y7274493D01*
X7703032Y7288209D01*
X7712176Y7297353D01*
X7721320Y7301925D01*
X7734782Y7306497D01*
X7757642Y7306497D01*
X7771104Y7301925D01*
X7780248Y7297353D01*
X7789392Y7288209D01*
X7793964Y7274493D01*
X7793964Y7242743D01*
X7698460Y7363647D02*
G01*
X7703032Y7354503D01*
X7712176Y7345359D01*
X7721320Y7341041D01*
X7734782Y7336469D01*
X7757642Y7336469D01*
X7771104Y7341041D01*
X7780248Y7345359D01*
X7789392Y7354503D01*
X7793964Y7363647D01*
X7793964Y7381935D01*
X7789392Y7390825D01*
X7780248Y7399969D01*
X7771104Y7404541D01*
X7757642Y7409113D01*
X7734782Y7409113D01*
X7721320Y7404541D01*
X7712176Y7399969D01*
X7703032Y7390825D01*
X7698460Y7381935D01*
X7698460Y7363647D01*
X7953428Y7183036D02*
G01*
X8048932Y7183036D01*
X7953428Y7151032D02*
G01*
X7953428Y7214786D01*
X7976288Y7312830D02*
G01*
X7967144Y7308512D01*
X7958000Y7299368D01*
X7953428Y7290224D01*
X7953428Y7271936D01*
X7958000Y7263046D01*
X7967144Y7253902D01*
X7976288Y7249330D01*
X7989750Y7244758D01*
X8012610Y7244758D01*
X8026326Y7249330D01*
X8035216Y7253902D01*
X8044360Y7263046D01*
X8048932Y7271936D01*
X8048932Y7290224D01*
X8044360Y7299368D01*
X8035216Y7308512D01*
X8026326Y7312830D01*
X7953428Y7343056D02*
G01*
X8048932Y7343056D01*
X7953428Y7406556D02*
G01*
X8017182Y7343056D01*
X7994322Y7365662D02*
G01*
X8048932Y7406556D01*
X8820546Y1508191D02*
G01*
X8916050Y1544513D01*
X8820546Y1580835D02*
G01*
X8916050Y1544513D01*
X8866012Y1665417D02*
G01*
X8856868Y1656273D01*
X8852296Y1647129D01*
X8852296Y1633667D01*
X8856868Y1624523D01*
X8866012Y1615379D01*
X8879474Y1610807D01*
X8888618Y1610807D01*
X8902334Y1615379D01*
X8911478Y1624523D01*
X8916050Y1633667D01*
X8916050Y1647129D01*
X8911478Y1656273D01*
X8902334Y1665417D01*
X8852296Y1717995D02*
G01*
X8856868Y1709105D01*
X8866012Y1699961D01*
X8879474Y1695389D01*
X8888618Y1695389D01*
X8902334Y1699961D01*
X8911478Y1709105D01*
X8916050Y1717995D01*
X8916050Y1731711D01*
X8911478Y1740855D01*
X8902334Y1749999D01*
X8888618Y1754571D01*
X8879474Y1754571D01*
X8866012Y1749999D01*
X8856868Y1740855D01*
X8852296Y1731711D01*
X8852296Y1717995D01*
X8820546Y1784543D02*
G01*
X8825118Y1789115D01*
X8820546Y1793687D01*
X8815974Y1789115D01*
X8820546Y1784543D01*
X8852296Y1789115D02*
G01*
X8916050Y1789115D01*
X8852296Y1823659D02*
G01*
X8916050Y1823659D01*
X8870584Y1823659D02*
G01*
X8856868Y1837121D01*
X8852296Y1846265D01*
X8852296Y1859981D01*
X8856868Y1869125D01*
X8870584Y1873443D01*
X8916050Y1873443D01*
X9055514Y1519283D02*
G01*
X9055514Y1569321D01*
X9091836Y1541889D01*
X9091836Y1555605D01*
X9096408Y1564749D01*
X9100980Y1569321D01*
X9114696Y1573639D01*
X9123586Y1573639D01*
X9137302Y1569321D01*
X9146446Y1560177D01*
X9151018Y1546461D01*
X9151018Y1532745D01*
X9146446Y1519283D01*
X9141874Y1514711D01*
X9132730Y1510139D01*
X9128158Y1608183D02*
G01*
X9132730Y1603865D01*
X9137302Y1608183D01*
X9132730Y1612755D01*
X9128158Y1608183D01*
X9055514Y1651871D02*
G01*
X9055514Y1701909D01*
X9091836Y1674731D01*
X9091836Y1688193D01*
X9096408Y1697337D01*
X9100980Y1701909D01*
X9114696Y1706481D01*
X9123586Y1706481D01*
X9137302Y1701909D01*
X9146446Y1692765D01*
X9151018Y1679303D01*
X9151018Y1665587D01*
X9146446Y1651871D01*
X9141874Y1647299D01*
X9132730Y1642727D01*
X9055514Y1736453D02*
G01*
X9151018Y1772775D01*
X9055514Y1809097D02*
G01*
X9151018Y1772775D01*
X9316039Y1569780D02*
G01*
X9307149Y1560636D01*
X9302577Y1546920D01*
X9302577Y1528886D01*
X9307149Y1515170D01*
X9316039Y1506026D01*
X9325183Y1506026D01*
X9334327Y1510598D01*
X9338899Y1515170D01*
X9343471Y1524314D01*
X9352361Y1551492D01*
X9356933Y1560636D01*
X9361505Y1565208D01*
X9370649Y1569780D01*
X9384365Y1569780D01*
X9393509Y1560636D01*
X9397827Y1546920D01*
X9397827Y1528886D01*
X9393509Y1515170D01*
X9384365Y1506026D01*
X9302577Y1599752D02*
G01*
X9397827Y1599752D01*
X9302577Y1599752D02*
G01*
X9302577Y1631502D01*
X9307149Y1645218D01*
X9316039Y1654362D01*
X9325183Y1658934D01*
X9338899Y1663506D01*
X9361505Y1663506D01*
X9375221Y1658934D01*
X9384365Y1654362D01*
X9393509Y1645218D01*
X9397827Y1631502D01*
X9397827Y1599752D01*
X9302577Y1729800D02*
G01*
X9397827Y1693478D01*
X9302577Y1729800D02*
G01*
X9397827Y1766122D01*
X9366077Y1706940D02*
G01*
X9366077Y1752406D01*
X9570039Y1569780D02*
G01*
X9561149Y1560636D01*
X9556577Y1546920D01*
X9556577Y1528886D01*
X9561149Y1515170D01*
X9570039Y1506026D01*
X9579183Y1506026D01*
X9588327Y1510598D01*
X9592899Y1515170D01*
X9597471Y1524314D01*
X9606361Y1551492D01*
X9610933Y1560636D01*
X9615505Y1565208D01*
X9624649Y1569780D01*
X9638365Y1569780D01*
X9647509Y1560636D01*
X9651827Y1546920D01*
X9651827Y1528886D01*
X9647509Y1515170D01*
X9638365Y1506026D01*
X9579183Y1667824D02*
G01*
X9570039Y1663506D01*
X9561149Y1654362D01*
X9556577Y1645218D01*
X9556577Y1626930D01*
X9561149Y1618040D01*
X9570039Y1608896D01*
X9579183Y1604324D01*
X9592899Y1599752D01*
X9615505Y1599752D01*
X9629221Y1604324D01*
X9638365Y1608896D01*
X9647509Y1618040D01*
X9651827Y1626930D01*
X9651827Y1645218D01*
X9647509Y1654362D01*
X9638365Y1663506D01*
X9629221Y1667824D01*
X9556577Y1698050D02*
G01*
X9651827Y1698050D01*
X9651827Y1698050D02*
G01*
X9651827Y1752406D01*
X9815578Y1506105D02*
G01*
X9910828Y1506105D01*
X9815578Y1506105D02*
G01*
X9815578Y1546999D01*
X9820150Y1560715D01*
X9824468Y1565287D01*
X9833612Y1569859D01*
X9842756Y1569859D01*
X9851900Y1565287D01*
X9856472Y1560715D01*
X9861044Y1546999D01*
X9861044Y1506105D02*
G01*
X9861044Y1546999D01*
X9865362Y1560715D01*
X9869934Y1565287D01*
X9879078Y1569859D01*
X9892794Y1569859D01*
X9901938Y1565287D01*
X9906510Y1560715D01*
X9910828Y1546999D01*
X9910828Y1506105D01*
X9815578Y1636153D02*
G01*
X9910828Y1599831D01*
X9815578Y1636153D02*
G01*
X9910828Y1672475D01*
X9879078Y1613293D02*
G01*
X9879078Y1658759D01*
X9815578Y1734197D02*
G01*
X9910828Y1734197D01*
X9815578Y1702447D02*
G01*
X9815578Y1766201D01*
X9829040Y1837067D02*
G01*
X9910828Y1837067D01*
X9869934Y1796173D02*
G01*
X9869934Y1877961D01*
X10098217Y1572275D02*
G01*
X10089073Y1567703D01*
X10079929Y1558559D01*
X10075611Y1549669D01*
X10075611Y1531381D01*
X10079929Y1522237D01*
X10089073Y1513093D01*
X10098217Y1508775D01*
X10111933Y1504203D01*
X10134539Y1504203D01*
X10148255Y1508775D01*
X10157399Y1513093D01*
X10166289Y1522237D01*
X10170861Y1531381D01*
X10170861Y1549669D01*
X10166289Y1558559D01*
X10157399Y1567703D01*
X10148255Y1572275D01*
X10134539Y1572275D01*
X10134539Y1549669D02*
G01*
X10134539Y1572275D01*
X10075611Y1602247D02*
G01*
X10170861Y1602247D01*
X10075611Y1602247D02*
G01*
X10170861Y1666001D01*
X10075611Y1666001D02*
G01*
X10170861Y1666001D01*
X10075611Y1695973D02*
G01*
X10170861Y1695973D01*
X10075611Y1695973D02*
G01*
X10075611Y1727723D01*
X10079929Y1741439D01*
X10089073Y1750583D01*
X10098217Y1754901D01*
X10111933Y1759473D01*
X10134539Y1759473D01*
X10148255Y1754901D01*
X10157399Y1750583D01*
X10166289Y1741439D01*
X10170861Y1727723D01*
X10170861Y1695973D01*
X10159781Y691027D02*
G01*
X10064277Y654705D01*
X10159781Y618383D02*
G01*
X10064277Y654705D01*
X10114315Y533801D02*
G01*
X10123459Y542945D01*
X10127777Y552089D01*
X10127777Y565551D01*
X10123459Y574695D01*
X10114315Y583839D01*
X10100599Y588411D01*
X10091455Y588411D01*
X10077993Y583839D01*
X10068849Y574695D01*
X10064277Y565551D01*
X10064277Y552089D01*
X10068849Y542945D01*
X10077993Y533801D01*
X10127777Y481223D02*
G01*
X10123459Y490113D01*
X10114315Y499257D01*
X10100599Y503829D01*
X10091455Y503829D01*
X10077993Y499257D01*
X10068849Y490113D01*
X10064277Y481223D01*
X10064277Y467507D01*
X10068849Y458363D01*
X10077993Y449219D01*
X10091455Y444647D01*
X10100599Y444647D01*
X10114315Y449219D01*
X10123459Y458363D01*
X10127777Y467507D01*
X10127777Y481223D01*
X10159781Y414675D02*
G01*
X10155209Y410103D01*
X10159781Y405785D01*
X10164353Y410103D01*
X10159781Y414675D01*
X10127777Y410103D02*
G01*
X10064277Y410103D01*
X10127777Y375559D02*
G01*
X10064277Y375559D01*
X10109743Y375559D02*
G01*
X10123459Y362097D01*
X10127777Y352953D01*
X10127777Y339237D01*
X10123459Y330093D01*
X10109743Y325775D01*
X10064277Y325775D01*
X9924747Y680087D02*
G01*
X9924747Y630049D01*
X9888425Y657227D01*
X9888425Y643765D01*
X9883853Y634621D01*
X9879281Y630049D01*
X9865565Y625477D01*
X9856421Y625477D01*
X9842959Y630049D01*
X9833815Y639193D01*
X9829243Y652655D01*
X9829243Y666371D01*
X9833815Y680087D01*
X9838387Y684659D01*
X9847531Y689231D01*
X9852103Y590933D02*
G01*
X9847531Y595505D01*
X9842959Y590933D01*
X9847531Y586361D01*
X9852103Y590933D01*
X9924747Y547245D02*
G01*
X9924747Y497207D01*
X9888425Y524639D01*
X9888425Y510923D01*
X9883853Y501779D01*
X9879281Y497207D01*
X9865565Y492635D01*
X9856421Y492635D01*
X9842959Y497207D01*
X9833815Y506351D01*
X9829243Y520067D01*
X9829243Y533783D01*
X9833815Y547245D01*
X9838387Y551817D01*
X9847531Y556389D01*
X9924747Y462663D02*
G01*
X9829243Y426341D01*
X9924747Y390019D02*
G01*
X9829243Y426341D01*
X9664098Y629363D02*
G01*
X9673242Y638507D01*
X9677814Y652223D01*
X9677814Y670511D01*
X9673242Y683973D01*
X9664098Y693117D01*
X9654954Y693117D01*
X9645810Y688545D01*
X9641238Y683973D01*
X9636920Y674829D01*
X9627776Y647651D01*
X9623204Y638507D01*
X9618632Y633935D01*
X9609488Y629363D01*
X9595772Y629363D01*
X9586882Y638507D01*
X9582310Y652223D01*
X9582310Y670511D01*
X9586882Y683973D01*
X9595772Y693117D01*
X9677814Y599391D02*
G01*
X9582310Y599391D01*
X9677814Y599391D02*
G01*
X9677814Y567641D01*
X9673242Y553925D01*
X9664098Y545035D01*
X9654954Y540463D01*
X9641238Y535891D01*
X9618632Y535891D01*
X9604916Y540463D01*
X9595772Y545035D01*
X9586882Y553925D01*
X9582310Y567641D01*
X9582310Y599391D01*
X9677814Y469597D02*
G01*
X9582310Y505919D01*
X9677814Y469597D02*
G01*
X9582310Y433021D01*
X9614060Y492203D02*
G01*
X9614060Y446737D01*
X9410098Y629363D02*
G01*
X9419242Y638507D01*
X9423814Y652223D01*
X9423814Y670511D01*
X9419242Y683973D01*
X9410098Y693117D01*
X9400954Y693117D01*
X9391810Y688545D01*
X9387238Y683973D01*
X9382920Y674829D01*
X9373776Y647651D01*
X9369204Y638507D01*
X9364632Y633935D01*
X9355488Y629363D01*
X9341772Y629363D01*
X9332882Y638507D01*
X9328310Y652223D01*
X9328310Y670511D01*
X9332882Y683973D01*
X9341772Y693117D01*
X9400954Y531319D02*
G01*
X9410098Y535891D01*
X9419242Y545035D01*
X9423814Y553925D01*
X9423814Y572213D01*
X9419242Y581357D01*
X9410098Y590501D01*
X9400954Y594819D01*
X9387238Y599391D01*
X9364632Y599391D01*
X9350916Y594819D01*
X9341772Y590501D01*
X9332882Y581357D01*
X9328310Y572213D01*
X9328310Y553925D01*
X9332882Y545035D01*
X9341772Y535891D01*
X9350916Y531319D01*
X9423814Y501347D02*
G01*
X9328310Y501347D01*
X9328310Y501347D02*
G01*
X9328310Y446737D01*
X9164812Y693196D02*
G01*
X9069308Y693196D01*
X9164812Y693196D02*
G01*
X9164812Y652302D01*
X9160240Y638586D01*
X9155668Y634014D01*
X9146524Y629442D01*
X9137380Y629442D01*
X9128236Y634014D01*
X9123918Y638586D01*
X9119346Y652302D01*
X9119346Y693196D02*
G01*
X9119346Y652302D01*
X9114774Y638586D01*
X9110202Y634014D01*
X9101058Y629442D01*
X9087342Y629442D01*
X9078452Y634014D01*
X9073880Y638586D01*
X9069308Y652302D01*
X9069308Y693196D01*
X9164812Y563148D02*
G01*
X9069308Y599470D01*
X9164812Y563148D02*
G01*
X9069308Y526826D01*
X9101058Y585754D02*
G01*
X9101058Y540288D01*
X9164812Y464850D02*
G01*
X9069308Y464850D01*
X9164812Y496854D02*
G01*
X9164812Y433100D01*
X9151096Y362234D02*
G01*
X9069308Y362234D01*
X9110202Y403128D02*
G01*
X9110202Y321340D01*
X8881983Y626968D02*
G01*
X8891127Y631540D01*
X8900271Y640684D01*
X8904589Y649574D01*
X8904589Y667862D01*
X8900271Y677006D01*
X8891127Y685896D01*
X8881983Y690468D01*
X8868267Y695040D01*
X8845661Y695040D01*
X8831945Y690468D01*
X8822801Y685896D01*
X8813911Y677006D01*
X8809339Y667862D01*
X8809339Y649574D01*
X8813911Y640684D01*
X8822801Y631540D01*
X8831945Y626968D01*
X8845661Y626968D01*
X8845661Y649574D02*
G01*
X8845661Y626968D01*
X8904589Y596996D02*
G01*
X8809339Y596996D01*
X8904589Y596996D02*
G01*
X8809339Y533242D01*
X8904589Y533242D02*
G01*
X8809339Y533242D01*
X8904589Y503270D02*
G01*
X8809339Y503270D01*
X8904589Y503270D02*
G01*
X8904589Y471520D01*
X8900271Y457804D01*
X8891127Y448660D01*
X8881983Y444088D01*
X8868267Y439770D01*
X8845661Y439770D01*
X8831945Y444088D01*
X8822801Y448660D01*
X8813911Y457804D01*
X8809339Y471520D01*
X8809339Y503270D01*
X7027293Y6490492D02*
G01*
X7036437Y6495064D01*
X7045327Y6504208D01*
X7049899Y6513098D01*
X7049899Y6531386D01*
X7045327Y6540530D01*
X7036437Y6549674D01*
X7027293Y6553992D01*
X7013577Y6558564D01*
X6990971Y6558564D01*
X6977255Y6553992D01*
X6968111Y6549674D01*
X6958967Y6540530D01*
X6954395Y6531386D01*
X6954395Y6513098D01*
X6958967Y6504208D01*
X6968111Y6495064D01*
X6977255Y6490492D01*
X6990971Y6490492D01*
X6990971Y6513098D02*
G01*
X6990971Y6490492D01*
X7049899Y6460520D02*
G01*
X6954395Y6460520D01*
X7049899Y6460520D02*
G01*
X6954395Y6396766D01*
X7049899Y6396766D02*
G01*
X6954395Y6396766D01*
X7049899Y6366794D02*
G01*
X6954395Y6366794D01*
X7049899Y6366794D02*
G01*
X7049899Y6335044D01*
X7045327Y6321328D01*
X7036437Y6312184D01*
X7027293Y6307866D01*
X7013577Y6303294D01*
X6990971Y6303294D01*
X6977255Y6307866D01*
X6968111Y6312184D01*
X6958967Y6321328D01*
X6954395Y6335044D01*
X6954395Y6366794D01*
X7304897Y6558546D02*
G01*
X7209393Y6558546D01*
X7304897Y6558546D02*
G01*
X7209393Y6495046D01*
X7304897Y6495046D02*
G01*
X7209393Y6495046D01*
X7282291Y6396748D02*
G01*
X7291435Y6401320D01*
X7300325Y6410464D01*
X7304897Y6419608D01*
X7304897Y6437642D01*
X7300325Y6446786D01*
X7291435Y6455930D01*
X7282291Y6460502D01*
X7268575Y6465074D01*
X7245969Y6465074D01*
X7232253Y6460502D01*
X7223109Y6455930D01*
X7213965Y6446786D01*
X7209393Y6437642D01*
X7209393Y6419608D01*
X7213965Y6410464D01*
X7223109Y6401320D01*
X7232253Y6396748D01*
X7555898Y6558594D02*
G01*
X7460394Y6558594D01*
X7555898Y6558594D02*
G01*
X7460394Y6495094D01*
X7555898Y6495094D02*
G01*
X7460394Y6495094D01*
X7533292Y6396796D02*
G01*
X7542436Y6401368D01*
X7551326Y6410512D01*
X7555898Y6419656D01*
X7555898Y6437690D01*
X7551326Y6446834D01*
X7542436Y6455978D01*
X7533292Y6460550D01*
X7519576Y6465122D01*
X7496970Y6465122D01*
X7483254Y6460550D01*
X7474110Y6455978D01*
X7464966Y6446834D01*
X7460394Y6437690D01*
X7460394Y6419656D01*
X7464966Y6410512D01*
X7474110Y6401368D01*
X7483254Y6396796D01*
X7811947Y6552674D02*
G01*
X7811947Y6502636D01*
X7775625Y6529814D01*
X7775625Y6516098D01*
X7771053Y6507208D01*
X7766481Y6502636D01*
X7752765Y6498064D01*
X7743875Y6498064D01*
X7730159Y6502636D01*
X7721015Y6511780D01*
X7716443Y6525242D01*
X7716443Y6538958D01*
X7721015Y6552674D01*
X7725587Y6556992D01*
X7734731Y6561564D01*
X7739303Y6463520D02*
G01*
X7734731Y6468092D01*
X7730159Y6463520D01*
X7734731Y6458948D01*
X7739303Y6463520D01*
X7811947Y6419832D02*
G01*
X7811947Y6369794D01*
X7775625Y6397226D01*
X7775625Y6383510D01*
X7771053Y6374366D01*
X7766481Y6369794D01*
X7752765Y6365222D01*
X7743875Y6365222D01*
X7730159Y6369794D01*
X7721015Y6378938D01*
X7716443Y6392654D01*
X7716443Y6406116D01*
X7721015Y6419832D01*
X7725587Y6424404D01*
X7734731Y6428976D01*
X7811947Y6335250D02*
G01*
X7716443Y6298928D01*
X7811947Y6262606D02*
G01*
X7716443Y6298928D01*
X8043326Y6492491D02*
G01*
X8052216Y6497063D01*
X8061360Y6506207D01*
X8065932Y6515097D01*
X8065932Y6533385D01*
X8061360Y6542529D01*
X8052216Y6551673D01*
X8043326Y6555991D01*
X8029610Y6560563D01*
X8007004Y6560563D01*
X7993288Y6555991D01*
X7984144Y6551673D01*
X7975000Y6542529D01*
X7970428Y6533385D01*
X7970428Y6515097D01*
X7975000Y6506207D01*
X7984144Y6497063D01*
X7993288Y6492491D01*
X8007004Y6492491D01*
X8007004Y6515097D02*
G01*
X8007004Y6492491D01*
X8065932Y6462519D02*
G01*
X7970428Y6462519D01*
X8065932Y6462519D02*
G01*
X7970428Y6398765D01*
X8065932Y6398765D02*
G01*
X7970428Y6398765D01*
X8065932Y6368793D02*
G01*
X7970428Y6368793D01*
X8065932Y6368793D02*
G01*
X8065932Y6337043D01*
X8061360Y6323327D01*
X8052216Y6314183D01*
X8043326Y6309865D01*
X8029610Y6305293D01*
X8007004Y6305293D01*
X7993288Y6309865D01*
X7984144Y6314183D01*
X7975000Y6323327D01*
X7970428Y6337043D01*
X7970428Y6368793D01*
X6950395Y7184991D02*
G01*
X7045899Y7184991D01*
X6950395Y7153241D02*
G01*
X6950395Y7216741D01*
X6950395Y7246713D02*
G01*
X7045899Y7246713D01*
X6950395Y7246713D02*
G01*
X6950395Y7278463D01*
X6954967Y7292179D01*
X6964111Y7301323D01*
X6973255Y7305895D01*
X6986971Y7310467D01*
X7009577Y7310467D01*
X7023293Y7305895D01*
X7032183Y7301323D01*
X7041327Y7292179D01*
X7045899Y7278463D01*
X7045899Y7246713D01*
X6950395Y7340439D02*
G01*
X7045899Y7340439D01*
X7194395Y7153081D02*
G01*
X7289899Y7153081D01*
X7194395Y7153081D02*
G01*
X7289899Y7216835D01*
X7194395Y7216835D02*
G01*
X7289899Y7216835D01*
X7217255Y7314879D02*
G01*
X7208111Y7310307D01*
X7198967Y7301417D01*
X7194395Y7292273D01*
X7194395Y7273985D01*
X7198967Y7264841D01*
X7208111Y7255951D01*
X7217255Y7251379D01*
X7230971Y7246807D01*
X7253577Y7246807D01*
X7267293Y7251379D01*
X7276183Y7255951D01*
X7285327Y7264841D01*
X7289899Y7273985D01*
X7289899Y7292273D01*
X7285327Y7301417D01*
X7276183Y7310307D01*
X7267293Y7314879D01*
X7460394Y7185025D02*
G01*
X7555898Y7185025D01*
X7460394Y7153020D02*
G01*
X7460394Y7216775D01*
X7460394Y7246746D02*
G01*
X7555898Y7246746D01*
X7460394Y7246746D02*
G01*
X7555898Y7283069D01*
X7460394Y7319390D02*
G01*
X7555898Y7283069D01*
X7460394Y7319390D02*
G01*
X7555898Y7319390D01*
X7474110Y7413117D02*
G01*
X7464966Y7403972D01*
X7460394Y7390511D01*
X7460394Y7372222D01*
X7464966Y7358506D01*
X7474110Y7349362D01*
X7483254Y7349362D01*
X7492398Y7353935D01*
X7496970Y7358506D01*
X7501288Y7367651D01*
X7510432Y7394828D01*
X7515004Y7403972D01*
X7519576Y7408545D01*
X7528720Y7413117D01*
X7542182Y7413117D01*
X7551326Y7403972D01*
X7555898Y7390511D01*
X7555898Y7372222D01*
X7551326Y7358506D01*
X7542182Y7349362D01*
X7698458Y7181021D02*
G01*
X7793962Y7181021D01*
X7698458Y7149017D02*
G01*
X7698458Y7212771D01*
X7698458Y7242743D02*
G01*
X7793962Y7242743D01*
X7698458Y7242743D02*
G01*
X7698458Y7274493D01*
X7703030Y7288209D01*
X7712174Y7297353D01*
X7721318Y7301925D01*
X7734780Y7306497D01*
X7757640Y7306497D01*
X7771102Y7301925D01*
X7780246Y7297353D01*
X7789390Y7288209D01*
X7793962Y7274493D01*
X7793962Y7242743D01*
X7698458Y7363647D02*
G01*
X7703030Y7354503D01*
X7712174Y7345359D01*
X7721318Y7341041D01*
X7734780Y7336469D01*
X7757640Y7336469D01*
X7771102Y7341041D01*
X7780246Y7345359D01*
X7789390Y7354503D01*
X7793962Y7363647D01*
X7793962Y7381935D01*
X7789390Y7390825D01*
X7780246Y7399969D01*
X7771102Y7404541D01*
X7757640Y7409113D01*
X7734780Y7409113D01*
X7721318Y7404541D01*
X7712174Y7399969D01*
X7703030Y7390825D01*
X7698458Y7381935D01*
X7698458Y7363647D01*
X7953425Y7183036D02*
G01*
X8048929Y7183036D01*
X7953425Y7151032D02*
G01*
X7953425Y7214786D01*
X7976285Y7312830D02*
G01*
X7967141Y7308512D01*
X7957997Y7299368D01*
X7953425Y7290224D01*
X7953425Y7271936D01*
X7957997Y7263046D01*
X7967141Y7253902D01*
X7976285Y7249330D01*
X7989747Y7244758D01*
X8012607Y7244758D01*
X8026323Y7249330D01*
X8035213Y7253902D01*
X8044357Y7263046D01*
X8048929Y7271936D01*
X8048929Y7290224D01*
X8044357Y7299368D01*
X8035213Y7308512D01*
X8026323Y7312830D01*
X7953425Y7343056D02*
G01*
X8048929Y7343056D01*
X7953425Y7406556D02*
G01*
X8017179Y7343056D01*
X7994319Y7365662D02*
G01*
X8048929Y7406556D01*
D11*
X6705081Y5738385D02*
G01*
X6705081Y5615703D01*
X6643613Y5677171D02*
G01*
X6766549Y5677171D01*
D10*
X8820543Y1508191D02*
G01*
X8916047Y1544513D01*
X8820543Y1580835D02*
G01*
X8916047Y1544513D01*
X8866009Y1665417D02*
G01*
X8856865Y1656273D01*
X8852293Y1647129D01*
X8852293Y1633667D01*
X8856865Y1624523D01*
X8866009Y1615379D01*
X8879471Y1610807D01*
X8888615Y1610807D01*
X8902331Y1615379D01*
X8911475Y1624523D01*
X8916047Y1633667D01*
X8916047Y1647129D01*
X8911475Y1656273D01*
X8902331Y1665417D01*
X8852293Y1717995D02*
G01*
X8856865Y1709105D01*
X8866009Y1699961D01*
X8879471Y1695389D01*
X8888615Y1695389D01*
X8902331Y1699961D01*
X8911475Y1709105D01*
X8916047Y1717995D01*
X8916047Y1731711D01*
X8911475Y1740855D01*
X8902331Y1749999D01*
X8888615Y1754571D01*
X8879471Y1754571D01*
X8866009Y1749999D01*
X8856865Y1740855D01*
X8852293Y1731711D01*
X8852293Y1717995D01*
X8820543Y1784543D02*
G01*
X8825115Y1789115D01*
X8820543Y1793687D01*
X8815971Y1789115D01*
X8820543Y1784543D01*
X8852293Y1789115D02*
G01*
X8916047Y1789115D01*
X8852293Y1823659D02*
G01*
X8916047Y1823659D01*
X8870581Y1823659D02*
G01*
X8856865Y1837121D01*
X8852293Y1846265D01*
X8852293Y1859981D01*
X8856865Y1869125D01*
X8870581Y1873443D01*
X8916047Y1873443D01*
X9055511Y1519283D02*
G01*
X9055511Y1569321D01*
X9091833Y1541889D01*
X9091833Y1555605D01*
X9096405Y1564749D01*
X9100977Y1569321D01*
X9114693Y1573639D01*
X9123583Y1573639D01*
X9137299Y1569321D01*
X9146443Y1560177D01*
X9151015Y1546461D01*
X9151015Y1532745D01*
X9146443Y1519283D01*
X9141871Y1514711D01*
X9132727Y1510139D01*
X9128155Y1608183D02*
G01*
X9132727Y1603865D01*
X9137299Y1608183D01*
X9132727Y1612755D01*
X9128155Y1608183D01*
X9055511Y1651871D02*
G01*
X9055511Y1701909D01*
X9091833Y1674731D01*
X9091833Y1688193D01*
X9096405Y1697337D01*
X9100977Y1701909D01*
X9114693Y1706481D01*
X9123583Y1706481D01*
X9137299Y1701909D01*
X9146443Y1692765D01*
X9151015Y1679303D01*
X9151015Y1665587D01*
X9146443Y1651871D01*
X9141871Y1647299D01*
X9132727Y1642727D01*
X9055511Y1736453D02*
G01*
X9151015Y1772775D01*
X9055511Y1809097D02*
G01*
X9151015Y1772775D01*
X9316036Y1569780D02*
G01*
X9307146Y1560636D01*
X9302574Y1546920D01*
X9302574Y1528886D01*
X9307146Y1515170D01*
X9316036Y1506026D01*
X9325180Y1506026D01*
X9334324Y1510598D01*
X9338896Y1515170D01*
X9343468Y1524314D01*
X9352358Y1551492D01*
X9356930Y1560636D01*
X9361502Y1565208D01*
X9370646Y1569780D01*
X9384362Y1569780D01*
X9393506Y1560636D01*
X9397824Y1546920D01*
X9397824Y1528886D01*
X9393506Y1515170D01*
X9384362Y1506026D01*
X9302574Y1599752D02*
G01*
X9397824Y1599752D01*
X9302574Y1599752D02*
G01*
X9302574Y1631502D01*
X9307146Y1645218D01*
X9316036Y1654362D01*
X9325180Y1658934D01*
X9338896Y1663506D01*
X9361502Y1663506D01*
X9375218Y1658934D01*
X9384362Y1654362D01*
X9393506Y1645218D01*
X9397824Y1631502D01*
X9397824Y1599752D01*
X9302574Y1729800D02*
G01*
X9397824Y1693478D01*
X9302574Y1729800D02*
G01*
X9397824Y1766122D01*
X9366074Y1706940D02*
G01*
X9366074Y1752406D01*
X9570036Y1569780D02*
G01*
X9561146Y1560636D01*
X9556574Y1546920D01*
X9556574Y1528886D01*
X9561146Y1515170D01*
X9570036Y1506026D01*
X9579180Y1506026D01*
X9588324Y1510598D01*
X9592896Y1515170D01*
X9597468Y1524314D01*
X9606358Y1551492D01*
X9610930Y1560636D01*
X9615502Y1565208D01*
X9624646Y1569780D01*
X9638362Y1569780D01*
X9647506Y1560636D01*
X9651824Y1546920D01*
X9651824Y1528886D01*
X9647506Y1515170D01*
X9638362Y1506026D01*
X9579180Y1667824D02*
G01*
X9570036Y1663506D01*
X9561146Y1654362D01*
X9556574Y1645218D01*
X9556574Y1626930D01*
X9561146Y1618040D01*
X9570036Y1608896D01*
X9579180Y1604324D01*
X9592896Y1599752D01*
X9615502Y1599752D01*
X9629218Y1604324D01*
X9638362Y1608896D01*
X9647506Y1618040D01*
X9651824Y1626930D01*
X9651824Y1645218D01*
X9647506Y1654362D01*
X9638362Y1663506D01*
X9629218Y1667824D01*
X9556574Y1698050D02*
G01*
X9651824Y1698050D01*
X9651824Y1698050D02*
G01*
X9651824Y1752406D01*
X9815575Y1506105D02*
G01*
X9910825Y1506105D01*
X9815575Y1506105D02*
G01*
X9815575Y1546999D01*
X9820147Y1560715D01*
X9824465Y1565287D01*
X9833609Y1569859D01*
X9842753Y1569859D01*
X9851897Y1565287D01*
X9856469Y1560715D01*
X9861041Y1546999D01*
X9861041Y1506105D02*
G01*
X9861041Y1546999D01*
X9865359Y1560715D01*
X9869931Y1565287D01*
X9879075Y1569859D01*
X9892791Y1569859D01*
X9901936Y1565287D01*
X9906507Y1560715D01*
X9910825Y1546999D01*
X9910825Y1506105D01*
X9815575Y1636153D02*
G01*
X9910825Y1599831D01*
X9815575Y1636153D02*
G01*
X9910825Y1672475D01*
X9879075Y1613293D02*
G01*
X9879075Y1658759D01*
X9815575Y1734197D02*
G01*
X9910825Y1734197D01*
X9815575Y1702447D02*
G01*
X9815575Y1766201D01*
X9829037Y1837067D02*
G01*
X9910825Y1837067D01*
X9869931Y1796173D02*
G01*
X9869931Y1877961D01*
X10098214Y1572275D02*
G01*
X10089070Y1567703D01*
X10079926Y1558559D01*
X10075608Y1549669D01*
X10075608Y1531381D01*
X10079926Y1522237D01*
X10089070Y1513093D01*
X10098214Y1508775D01*
X10111930Y1504203D01*
X10134536Y1504203D01*
X10148252Y1508775D01*
X10157396Y1513093D01*
X10166286Y1522237D01*
X10170858Y1531381D01*
X10170858Y1549669D01*
X10166286Y1558559D01*
X10157396Y1567703D01*
X10148252Y1572275D01*
X10134536Y1572275D01*
X10134536Y1549669D02*
G01*
X10134536Y1572275D01*
X10075608Y1602247D02*
G01*
X10170858Y1602247D01*
X10075608Y1602247D02*
G01*
X10170858Y1666001D01*
X10075608Y1666001D02*
G01*
X10170858Y1666001D01*
X10075608Y1695973D02*
G01*
X10170858Y1695973D01*
X10075608Y1695973D02*
G01*
X10075608Y1727723D01*
X10079926Y1741439D01*
X10089070Y1750583D01*
X10098214Y1754901D01*
X10111930Y1759473D01*
X10134536Y1759473D01*
X10148252Y1754901D01*
X10157396Y1750583D01*
X10166286Y1741439D01*
X10170858Y1727723D01*
X10170858Y1695973D01*
X10159779Y691027D02*
G01*
X10064275Y654705D01*
X10159779Y618383D02*
G01*
X10064275Y654705D01*
X10114313Y533801D02*
G01*
X10123457Y542945D01*
X10127775Y552089D01*
X10127775Y565551D01*
X10123457Y574695D01*
X10114313Y583839D01*
X10100597Y588411D01*
X10091453Y588411D01*
X10077991Y583839D01*
X10068847Y574695D01*
X10064275Y565551D01*
X10064275Y552089D01*
X10068847Y542945D01*
X10077991Y533801D01*
X10127775Y481223D02*
G01*
X10123457Y490113D01*
X10114313Y499257D01*
X10100597Y503829D01*
X10091453Y503829D01*
X10077991Y499257D01*
X10068847Y490113D01*
X10064275Y481223D01*
X10064275Y467507D01*
X10068847Y458363D01*
X10077991Y449219D01*
X10091453Y444647D01*
X10100597Y444647D01*
X10114313Y449219D01*
X10123457Y458363D01*
X10127775Y467507D01*
X10127775Y481223D01*
X10159779Y414675D02*
G01*
X10155207Y410103D01*
X10159779Y405785D01*
X10164351Y410103D01*
X10159779Y414675D01*
X10127775Y410103D02*
G01*
X10064275Y410103D01*
X10127775Y375559D02*
G01*
X10064275Y375559D01*
X10109741Y375559D02*
G01*
X10123457Y362097D01*
X10127775Y352953D01*
X10127775Y339237D01*
X10123457Y330093D01*
X10109741Y325775D01*
X10064275Y325775D01*
X9924745Y680087D02*
G01*
X9924745Y630049D01*
X9888423Y657227D01*
X9888423Y643765D01*
X9883851Y634621D01*
X9879279Y630049D01*
X9865563Y625477D01*
X9856419Y625477D01*
X9842957Y630049D01*
X9833813Y639193D01*
X9829241Y652655D01*
X9829241Y666371D01*
X9833813Y680087D01*
X9838385Y684659D01*
X9847529Y689231D01*
X9852101Y590933D02*
G01*
X9847529Y595505D01*
X9842957Y590933D01*
X9847529Y586361D01*
X9852101Y590933D01*
X9924745Y547245D02*
G01*
X9924745Y497207D01*
X9888423Y524639D01*
X9888423Y510923D01*
X9883851Y501779D01*
X9879279Y497207D01*
X9865563Y492635D01*
X9856419Y492635D01*
X9842957Y497207D01*
X9833813Y506351D01*
X9829241Y520067D01*
X9829241Y533783D01*
X9833813Y547245D01*
X9838385Y551817D01*
X9847529Y556389D01*
X9924745Y462663D02*
G01*
X9829241Y426341D01*
X9924745Y390019D02*
G01*
X9829241Y426341D01*
X9664095Y629363D02*
G01*
X9673239Y638507D01*
X9677811Y652223D01*
X9677811Y670511D01*
X9673239Y683973D01*
X9664095Y693117D01*
X9654951Y693117D01*
X9645807Y688545D01*
X9641235Y683973D01*
X9636917Y674829D01*
X9627773Y647651D01*
X9623201Y638507D01*
X9618629Y633935D01*
X9609485Y629363D01*
X9595769Y629363D01*
X9586879Y638507D01*
X9582307Y652223D01*
X9582307Y670511D01*
X9586879Y683973D01*
X9595769Y693117D01*
X9677811Y599391D02*
G01*
X9582307Y599391D01*
X9677811Y599391D02*
G01*
X9677811Y567641D01*
X9673239Y553925D01*
X9664095Y545035D01*
X9654951Y540463D01*
X9641235Y535891D01*
X9618629Y535891D01*
X9604913Y540463D01*
X9595769Y545035D01*
X9586879Y553925D01*
X9582307Y567641D01*
X9582307Y599391D01*
X9677811Y469597D02*
G01*
X9582307Y505919D01*
X9677811Y469597D02*
G01*
X9582307Y433021D01*
X9614057Y492203D02*
G01*
X9614057Y446737D01*
X9410095Y629363D02*
G01*
X9419239Y638507D01*
X9423811Y652223D01*
X9423811Y670511D01*
X9419239Y683973D01*
X9410095Y693117D01*
X9400951Y693117D01*
X9391807Y688545D01*
X9387235Y683973D01*
X9382917Y674829D01*
X9373773Y647651D01*
X9369201Y638507D01*
X9364629Y633935D01*
X9355485Y629363D01*
X9341769Y629363D01*
X9332879Y638507D01*
X9328307Y652223D01*
X9328307Y670511D01*
X9332879Y683973D01*
X9341769Y693117D01*
X9400951Y531319D02*
G01*
X9410095Y535891D01*
X9419239Y545035D01*
X9423811Y553925D01*
X9423811Y572213D01*
X9419239Y581357D01*
X9410095Y590501D01*
X9400951Y594819D01*
X9387235Y599391D01*
X9364629Y599391D01*
X9350913Y594819D01*
X9341769Y590501D01*
X9332879Y581357D01*
X9328307Y572213D01*
X9328307Y553925D01*
X9332879Y545035D01*
X9341769Y535891D01*
X9350913Y531319D01*
X9423811Y501347D02*
G01*
X9328307Y501347D01*
X9328307Y501347D02*
G01*
X9328307Y446737D01*
X9164810Y693196D02*
G01*
X9069306Y693196D01*
X9164810Y693196D02*
G01*
X9164810Y652302D01*
X9160238Y638586D01*
X9155666Y634014D01*
X9146522Y629442D01*
X9137378Y629442D01*
X9128234Y634014D01*
X9123916Y638586D01*
X9119344Y652302D01*
X9119344Y693196D02*
G01*
X9119344Y652302D01*
X9114772Y638586D01*
X9110200Y634014D01*
X9101056Y629442D01*
X9087340Y629442D01*
X9078450Y634014D01*
X9073878Y638586D01*
X9069306Y652302D01*
X9069306Y693196D01*
X9164810Y563148D02*
G01*
X9069306Y599470D01*
X9164810Y563148D02*
G01*
X9069306Y526826D01*
X9101056Y585754D02*
G01*
X9101056Y540288D01*
X9164810Y464850D02*
G01*
X9069306Y464850D01*
X9164810Y496854D02*
G01*
X9164810Y433100D01*
X9151094Y362234D02*
G01*
X9069306Y362234D01*
X9110200Y403128D02*
G01*
X9110200Y321340D01*
X8881981Y626968D02*
G01*
X8891125Y631540D01*
X8900269Y640684D01*
X8904587Y649574D01*
X8904587Y667862D01*
X8900269Y677006D01*
X8891125Y685896D01*
X8881981Y690468D01*
X8868265Y695040D01*
X8845659Y695040D01*
X8831943Y690468D01*
X8822799Y685896D01*
X8813909Y677006D01*
X8809337Y667862D01*
X8809337Y649574D01*
X8813909Y640684D01*
X8822799Y631540D01*
X8831943Y626968D01*
X8845659Y626968D01*
X8845659Y649574D02*
G01*
X8845659Y626968D01*
X8904587Y596996D02*
G01*
X8809337Y596996D01*
X8904587Y596996D02*
G01*
X8809337Y533242D01*
X8904587Y533242D02*
G01*
X8809337Y533242D01*
X8904587Y503270D02*
G01*
X8809337Y503270D01*
X8904587Y503270D02*
G01*
X8904587Y471520D01*
X8900269Y457804D01*
X8891125Y448660D01*
X8881981Y444088D01*
X8868265Y439770D01*
X8845659Y439770D01*
X8831943Y444088D01*
X8822799Y448660D01*
X8813909Y457804D01*
X8809337Y471520D01*
X8809337Y503270D01*
D12*
X6734020Y5889472D02*
G01*
X6734020Y5803366D01*
X6734020Y5889472D02*
G01*
X6770850Y5889472D01*
X6783042Y5885154D01*
X6787360Y5881090D01*
X6791424Y5872962D01*
X6791424Y5864834D01*
X6787360Y5856706D01*
X6783042Y5852642D01*
X6770850Y5848578D01*
X6734020Y5848578D02*
G01*
X6770850Y5848578D01*
X6783042Y5844260D01*
X6787360Y5840196D01*
X6791424Y5832068D01*
X6791424Y5819876D01*
X6787360Y5811748D01*
X6783042Y5807430D01*
X6770850Y5803366D01*
X6734020Y5803366D01*
X6851114Y5889472D02*
G01*
X6818348Y5803366D01*
X6851114Y5889472D02*
G01*
X6883880Y5803366D01*
X6830540Y5832068D02*
G01*
X6871434Y5832068D01*
X6939506Y5889472D02*
G01*
X6939506Y5803366D01*
X6910804Y5889472D02*
G01*
X6967954Y5889472D01*
X7031962Y5877026D02*
G01*
X7031962Y5803366D01*
X6995132Y5840196D02*
G01*
X7068792Y5840196D01*
X8397222Y632150D02*
G01*
X8397222Y795980D01*
X8479010Y713938D02*
G01*
X8315434Y713938D01*
X11389570Y5386704D02*
G01*
X11527782Y5386704D01*
X11389573Y5386702D02*
G01*
X11527779Y5386702D01*
D13*
X3635161Y7262561D02*
G01*
X3635161Y7389561D01*
X3812961Y7389561D01*
X3812961Y7262561D01*
X3635161Y7186361D02*
G01*
X3635161Y7072061D01*
X3812961Y7072061D01*
X3812961Y7186361D01*
D14*
X10259161Y745962D02*
G01*
X8695161Y745962D01*
X8695161Y1449961D01*
X10259161Y1449961D01*
X10259161Y745962D01*
D16*
X6006802Y6547294D02*
G01*
X6206680Y6547294D01*
X6006802Y6762534D02*
G01*
X6206680Y6762534D01*
X6072162Y6547294D02*
G01*
X6272042Y6547294D01*
X6072162Y6762534D02*
G01*
X6272042Y6762534D01*
D17*
X6849163Y6613961D02*
G01*
X6849163Y7119960D01*
X7100663Y7119960D01*
X8125162Y7119960D01*
X6851162Y6611960D02*
G01*
X7100663Y6611960D01*
X8125162Y6611960D01*
D13*
X8125162Y6865960D02*
G01*
X7871162Y6865960D01*
X7871162Y7119960D01*
X8125162Y6611960D02*
G01*
X8125162Y7119960D01*
D18*
X3145632Y6575960D02*
G01*
X3065632Y6575960D01*
X3065632Y6655960D01*
X3065632Y6995960D02*
G01*
X3065632Y7075962D01*
X3145632Y7075962D01*
X3485631Y7075962D02*
G01*
X3565631Y7075962D01*
X3565631Y6995960D01*
X3485631Y6575960D02*
G01*
X3565631Y6575960D01*
X3565631Y6655960D01*
D14*
X171175Y5131668D02*
G01*
X171175Y4942438D01*
X67035Y4942438D01*
X67035Y5131668D01*
X171175Y5131668D01*
D12*
X10005052Y6311262D02*
G01*
X10005052Y6614792D01*
X10153642Y6768462D02*
G01*
X11454122Y6768462D01*
X11454122Y6443342D01*
X11484602Y6487792D01*
X11487142Y6490332D01*
X10146022Y5287642D02*
G01*
X11384272Y5287642D01*
X11384272Y6308722D01*
X11584932Y5456552D02*
G01*
X11584932Y6397622D01*
D19*
X8014792Y4092826D02*
G01*
X8014792Y2792826D01*
X6614792Y2792826D01*
X6614792Y4192826D01*
X7914792Y4192826D01*
X8014792Y4092826D01*
D14*
X5846066Y6842353D02*
G01*
X5846066Y6653123D01*
X5741926Y6653123D01*
X5741926Y6842353D01*
X5846066Y6842353D01*
X484797Y1437906D02*
G01*
X521627Y1437906D01*
X628307Y1238516D02*
G01*
X628307Y1315986D01*
X479717Y1114056D02*
G01*
X520357Y1114056D01*
X374307Y1235976D02*
G01*
X374307Y1318526D01*
D12*
X1732163Y6730461D02*
G01*
X1732163Y6666961D01*
X2240163Y6666961D01*
X2240163Y6920961D01*
X1732163Y6920961D01*
X1732163Y6857461D01*
D13*
X6199520Y6910613D02*
G01*
X6390020Y6910613D01*
X6390020Y7139213D01*
X6199520Y7139213D01*
X6097920Y6910613D02*
G01*
X5907420Y6910613D01*
X5907420Y7139213D01*
X6097920Y7139213D01*
D14*
X605950Y5569704D02*
G01*
X501810Y5569704D01*
X501810Y5380474D01*
X605950Y5380474D01*
X605950Y5569704D01*
X379892Y5569353D02*
G01*
X484032Y5569353D01*
X484032Y5380123D01*
X379892Y5380123D01*
X379892Y5569353D01*
X2708633Y7355400D02*
G01*
X2812773Y7355400D01*
X2812773Y7166170D01*
X2708633Y7166170D01*
X2708633Y7355400D01*
X9563303Y5746432D02*
G01*
X9374073Y5746432D01*
X9374073Y5850572D01*
X9563303Y5850572D01*
X9563303Y5746432D01*
X9562302Y5874433D02*
G01*
X9373072Y5874433D01*
X9373072Y5978573D01*
X9562302Y5978573D01*
X9562302Y5874433D01*
X2768953Y6815432D02*
G01*
X2579723Y6815432D01*
X2579723Y6919572D01*
X2768953Y6919572D01*
X2768953Y6815432D01*
X3213691Y6448752D02*
G01*
X3109551Y6448752D01*
X3109551Y6259522D01*
X3213691Y6259522D01*
X3213691Y6448752D01*
X4412602Y7034491D02*
G01*
X4223372Y7034491D01*
X4223372Y6930351D01*
X4412602Y6930351D01*
X4412602Y7034491D01*
X4412602Y6780491D02*
G01*
X4412602Y6676351D01*
X4223372Y6676351D01*
X4223372Y6780491D01*
X4412602Y6780491D01*
X4413603Y6652491D02*
G01*
X4413603Y6548351D01*
X4224373Y6548351D01*
X4224373Y6652491D01*
X4413603Y6652491D01*
X1085951Y6451704D02*
G01*
X981811Y6451704D01*
X981811Y6262474D01*
X1085951Y6262474D01*
X1085951Y6451704D01*
X986891Y6216352D02*
G01*
X1091031Y6216352D01*
X1091031Y6027122D01*
X986891Y6027122D01*
X986891Y6216352D01*
X2683692Y7357752D02*
G01*
X2579552Y7357752D01*
X2579552Y7168522D01*
X2683692Y7168522D01*
X2683692Y7357752D01*
X2427691Y7356751D02*
G01*
X2323551Y7356751D01*
X2323551Y7167521D01*
X2427691Y7167521D01*
X2427691Y7356751D01*
X2532773Y6651401D02*
G01*
X2532773Y6462171D01*
X2428633Y6462171D01*
X2428633Y6651401D01*
X2532773Y6651401D01*
X2402692Y6655752D02*
G01*
X2298552Y6655752D01*
X2298552Y6466522D01*
X2402692Y6466522D01*
X2402692Y6655752D01*
X4412602Y6906491D02*
G01*
X4223372Y6906491D01*
X4223372Y6802351D01*
X4412602Y6802351D01*
X4412602Y6906491D01*
X8383323Y4321317D02*
G01*
X8194093Y4321317D01*
X8194093Y4425457D01*
X8383323Y4425457D01*
X8383323Y4321317D01*
X8405822Y3165116D02*
G01*
X8301682Y3165116D01*
X8301682Y2975886D01*
X8405822Y2975886D01*
X8405822Y3165116D01*
X8636734Y2246856D02*
G01*
X8447504Y2246856D01*
X8447504Y2142716D01*
X8636734Y2142716D01*
X8636734Y2246856D01*
X8376084Y2141796D02*
G01*
X8186854Y2141796D01*
X8186854Y2245936D01*
X8376084Y2245936D01*
X8376084Y2141796D01*
X245663Y1450581D02*
G01*
X141523Y1450581D01*
X141523Y1261351D01*
X245663Y1261351D01*
X245663Y1450581D01*
D13*
X986632Y1992447D02*
G01*
X986632Y2119447D01*
X1164432Y2119447D01*
X1164432Y1992447D01*
X986632Y1916247D02*
G01*
X986632Y1801947D01*
X1164432Y1801947D01*
X1164432Y1916247D01*
D14*
X540603Y833231D02*
G01*
X644743Y833231D01*
X644743Y644001D01*
X540603Y644001D01*
X540603Y833231D01*
X-143367Y4069400D02*
G01*
X-39227Y4069400D01*
X-39227Y3880170D01*
X-143367Y3880170D01*
X-143367Y4069400D01*
D13*
X8280493Y2493926D02*
G01*
X8280493Y2608226D01*
X8331293Y2608226D01*
X8420193Y2379626D02*
G01*
X8432893Y2379626D01*
X8521793Y2608226D02*
G01*
X8572593Y2608226D01*
X8572593Y2493926D01*
D12*
X6639303Y6087059D02*
G01*
X6639303Y6174689D01*
X6595488Y6130874D01*
X6639303Y6087059D01*
X5731162Y6323848D02*
G01*
X6533161Y6323848D01*
X6533161Y6219847D01*
X6531663Y6096347D02*
G01*
X6531663Y6162847D01*
X6430662Y6162847D01*
X6430662Y6219847D01*
X6532661Y6219847D01*
X6534162Y5614347D02*
G01*
X6432161Y5614347D01*
X6432161Y5671347D01*
X6533161Y5671347D01*
X6533161Y5737849D01*
X5732663Y5510349D02*
G01*
X6534663Y5510349D01*
X6534663Y5614347D01*
X5735162Y5694847D02*
G01*
X5735162Y6134849D01*
D14*
X1066162Y7335961D02*
G01*
X901164Y7335961D01*
X901164Y6835960D01*
X1451162Y6835960D01*
X1451162Y7335961D01*
X1286162Y7335961D01*
D13*
X-213367Y2035246D02*
G01*
X-213367Y1908246D01*
X-35567Y1908246D01*
X-35567Y2035246D01*
X-213367Y2111446D02*
G01*
X-213367Y2225746D01*
X-35567Y2225746D01*
X-35567Y2111446D01*
X7353132Y4872946D02*
G01*
X7467432Y4872946D01*
X7467432Y5050746D01*
X7353132Y5050746D01*
X7276932Y4872946D02*
G01*
X7149932Y4872946D01*
X7149932Y5050746D01*
X7276932Y5050746D01*
D14*
X7218662Y2171352D02*
G01*
X7218662Y2360582D01*
X7114522Y2360582D01*
X7114522Y2171352D01*
X7218662Y2171352D01*
X8105724Y1883572D02*
G01*
X8105724Y1779432D01*
X8294954Y1779432D01*
X8294954Y1883572D01*
X8105724Y1883572D01*
X7463322Y4720315D02*
G01*
X7274092Y4720315D01*
X7274092Y4824455D01*
X7463322Y4824455D01*
X7463322Y4720315D01*
D13*
X4351563Y6329060D02*
G01*
X4224563Y6329060D01*
X4224563Y6506860D01*
X4351563Y6506860D01*
X4427763Y6329060D02*
G01*
X4542063Y6329060D01*
X4542063Y6506860D01*
X4427763Y6506860D01*
X5141462Y1485460D02*
G01*
X5141462Y1675960D01*
X4912862Y1675960D01*
X4912862Y1485460D01*
X5141462Y1383860D02*
G01*
X5141462Y1193360D01*
X4912862Y1193360D01*
X4912862Y1383860D01*
D14*
X3516693Y6447751D02*
G01*
X3412553Y6447751D01*
X3412553Y6258521D01*
X3516693Y6258521D01*
X3516693Y6447751D01*
D13*
X1109720Y5303413D02*
G01*
X1109720Y5112913D01*
X881120Y5112913D01*
X881120Y5303413D01*
X1109720Y5405013D02*
G01*
X1109720Y5595513D01*
X881120Y5595513D01*
X881120Y5405013D01*
X32867Y5131729D02*
G01*
X32867Y5322229D01*
X-195732Y5322229D01*
X-195732Y5131729D01*
X32867Y5030129D02*
G01*
X32867Y4839629D01*
X-195732Y4839629D01*
X-195732Y5030129D01*
X9385881Y6197892D02*
G01*
X9258881Y6197892D01*
X9258881Y6375692D01*
X9385881Y6375692D01*
X9462081Y6197892D02*
G01*
X9576381Y6197892D01*
X9576381Y6375692D01*
X9462081Y6375692D01*
D14*
X9560272Y6012263D02*
G01*
X9371042Y6012263D01*
X9371042Y6116403D01*
X9560272Y6116403D01*
X9560272Y6012263D01*
X2939773Y7355400D02*
G01*
X2939773Y7166170D01*
X2835633Y7166170D01*
X2835633Y7355400D01*
X2939773Y7355400D01*
D13*
X3086562Y7202060D02*
G01*
X2959562Y7202060D01*
X2959562Y7379860D01*
X3086562Y7379860D01*
X3162762Y7202060D02*
G01*
X3277062Y7202060D01*
X3277062Y7379860D01*
X3162762Y7379860D01*
D14*
X3498872Y7382443D02*
G01*
X3309642Y7382443D01*
X3309642Y7278303D01*
X3498872Y7278303D01*
X3498872Y7382443D01*
D13*
X3851061Y7262561D02*
G01*
X3851061Y7389561D01*
X4028861Y7389561D01*
X4028861Y7262561D01*
X3851061Y7186361D02*
G01*
X3851061Y7072061D01*
X4028861Y7072061D01*
X4028861Y7186361D01*
X4068363Y7260562D02*
G01*
X4068363Y7387562D01*
X4246163Y7387562D01*
X4246163Y7260562D01*
X4068363Y7184362D02*
G01*
X4068363Y7070062D01*
X4246163Y7070062D01*
X4246163Y7184362D01*
D14*
X1229951Y6447703D02*
G01*
X1125811Y6447703D01*
X1125811Y6258473D01*
X1229951Y6258473D01*
X1229951Y6447703D01*
X1131892Y6221354D02*
G01*
X1236032Y6221354D01*
X1236032Y6032124D01*
X1131892Y6032124D01*
X1131892Y6221354D01*
X2555692Y7167521D02*
G01*
X2555692Y7356751D01*
X2451552Y7356751D01*
X2451552Y7167521D01*
X2555692Y7167521D01*
X2531691Y6685521D02*
G01*
X2531691Y6874751D01*
X2427551Y6874751D01*
X2427551Y6685521D01*
X2531691Y6685521D01*
X2060602Y6360490D02*
G01*
X2060602Y6256350D01*
X1871372Y6256350D01*
X1871372Y6360490D01*
X2060602Y6360490D01*
X2095601Y7309490D02*
G01*
X1906371Y7309490D01*
X1906371Y7205350D01*
X2095601Y7205350D01*
X2095601Y7309490D01*
X1097572Y1687321D02*
G01*
X908342Y1687321D01*
X908342Y1583181D01*
X1097572Y1583181D01*
X1097572Y1687321D01*
D13*
X735733Y1545892D02*
G01*
X850033Y1545892D01*
X850033Y1723692D01*
X735733Y1723692D01*
X659533Y1545892D02*
G01*
X532533Y1545892D01*
X532533Y1723692D01*
X659533Y1723692D01*
D12*
X-333217Y6280779D02*
G01*
X-291307Y6280779D01*
X-29687Y6289669D02*
G01*
X449102Y6289669D01*
X654842Y6289669D02*
G01*
X691672Y6289669D01*
X830102Y5664829D02*
G01*
X830102Y6172829D01*
X280192Y5671179D02*
G01*
X633252Y5671179D01*
X-41117Y5669909D02*
G01*
X68102Y5669909D01*
X-342107Y5669909D02*
G01*
X-298927Y5669909D01*
X-126207Y5780399D02*
G01*
X-126207Y5847709D01*
X-126207Y6069959D02*
G01*
X-126207Y6134729D01*
D14*
X220502Y4563739D02*
G01*
X717072Y4563739D01*
X717072Y1771009D01*
X220502Y1771009D01*
X220502Y4563739D01*
X3519962Y766439D02*
G01*
X4031772Y766439D01*
X4031772Y1263009D01*
X3519962Y1263009D01*
X727232Y1263009D01*
X727232Y766439D01*
X3519962Y766439D01*
X5052852Y4566279D02*
G01*
X5549422Y4566279D01*
X5549422Y1773549D01*
X5052852Y1773549D01*
X5052852Y4566279D01*
D12*
X8652032Y4799962D02*
G01*
X8652032Y5014592D01*
X8961912Y5031102D02*
G01*
X8961912Y5073012D01*
X9113042Y5073012D01*
X9113042Y2493642D01*
X8961912Y2493642D01*
X8961912Y2533012D01*
X8652032Y2550792D02*
G01*
X8652032Y2747642D01*
D14*
X7364661Y2358580D02*
G01*
X7260521Y2358580D01*
X7260521Y2169350D01*
X7364661Y2169350D01*
X7364661Y2358580D01*
D13*
X4581827Y417014D02*
G01*
X4467527Y417014D01*
X4467527Y594814D01*
X4581827Y594814D01*
X4658027Y417014D02*
G01*
X4785027Y417014D01*
X4785027Y594814D01*
X4658027Y594814D01*
X5929734Y268892D02*
G01*
X6056734Y268892D01*
X6056734Y446692D01*
X5929734Y446692D01*
X5853534Y268892D02*
G01*
X5739234Y268892D01*
X5739234Y446692D01*
X5853534Y446692D01*
D14*
X6282133Y514791D02*
G01*
X7562133Y514791D01*
X8032132Y514791D01*
X8032132Y2114791D01*
X7562133Y2114791D01*
X6282133Y2114791D01*
X6282128Y514791D02*
G01*
X5812132Y514791D01*
X5812132Y2114791D01*
X6282128Y2114791D01*
X8032132Y964791D02*
G01*
X8362132Y964791D01*
X8362132Y1084790D01*
X8032132Y1664792D02*
G01*
X8362132Y1664792D01*
X8362132Y1544792D01*
X5482132Y964791D02*
G01*
X5482132Y1084790D01*
X5482132Y964791D01*
X5812132Y964791D01*
X5482132Y1664789D02*
G01*
X5482132Y1544789D01*
X5482132Y1664792D01*
X5811133Y1664792D01*
X234937Y5267413D02*
G01*
X234937Y5312397D01*
X279920Y5312397D01*
X234937Y5012397D02*
G01*
X234937Y4967414D01*
X279920Y4967414D01*
X534936Y4967414D02*
G01*
X579920Y4967414D01*
X579920Y5012397D01*
X534936Y5312397D02*
G01*
X579920Y5312397D01*
X579920Y5267413D01*
X1099860Y5082443D02*
G01*
X1099860Y4978303D01*
X910630Y4978303D01*
X910630Y5082443D01*
X1099860Y5082443D01*
X386031Y4848354D02*
G01*
X386031Y4659124D01*
X281891Y4659124D01*
X281891Y4848354D01*
X386031Y4848354D01*
X-11993Y4716759D02*
G01*
X-201223Y4716759D01*
X-201223Y4612619D01*
X-11993Y4612619D01*
X-11993Y4716759D01*
X1098212Y4845385D02*
G01*
X908982Y4845385D01*
X908982Y4949525D01*
X1098212Y4949525D01*
X1098212Y4845385D01*
X844859Y5467443D02*
G01*
X844859Y5363303D01*
X655629Y5363303D01*
X655629Y5467443D01*
X844859Y5467443D01*
X12860Y5461444D02*
G01*
X12860Y5357304D01*
X-176369Y5357304D01*
X-176369Y5461444D01*
X12860Y5461444D01*
D13*
X-38661Y4277314D02*
G01*
X-38661Y4163014D01*
X-216461Y4163014D01*
X-216461Y4277314D01*
X-38661Y4353514D02*
G01*
X-38661Y4480514D01*
X-216461Y4480514D01*
X-216461Y4353514D01*
D14*
X513031Y4849352D02*
G01*
X513031Y4660122D01*
X408891Y4660122D01*
X408891Y4849352D01*
X513031Y4849352D01*
X5617032Y6745353D02*
G01*
X5617032Y6556123D01*
X5512892Y6556123D01*
X5512892Y6745353D01*
X5617032Y6745353D01*
X-209364Y5222179D02*
G01*
X-209364Y5163759D01*
X-318584Y5163759D01*
X-318584Y5220909D01*
X-209364Y5368229D02*
G01*
X-209364Y5424109D01*
X-318584Y5424109D01*
X-318584Y5365689D01*
X-265244Y5270439D02*
G01*
X-252544Y5270439D01*
X-203014Y5319969D01*
X-324934Y5319969D01*
X-275404Y5270439D01*
X-252544Y5270439D01*
X-204284Y4936550D02*
G01*
X-204284Y4993700D01*
X-313504Y4993700D01*
X-313504Y4935280D01*
X-204284Y4791770D02*
G01*
X-204284Y4733350D01*
X-313504Y4733350D01*
X-313504Y4789230D01*
X-270324Y4887020D02*
G01*
X-247464Y4887020D01*
X-197934Y4837490D01*
X-319854Y4837490D01*
X-270324Y4887020D01*
X-257624Y4887020D01*
G75*
G01*
X6270429Y6507907D02*
G03*
X6270420Y6507463I-10007J1D01*
G75*
G01*
X3124736Y6494856D02*
G03*
X3124731Y6494436I-19103J-2D01*
D12*
G75*
G01*
X11527781Y5386702D02*
G03*
X11584932Y5456552I-19518J74275D01*
G75*
G01*
X11584932Y6397623D02*
G03*
X11484603Y6487792I-83883J7566D01*
G75*
G01*
X11454123Y6443342D02*
G03*
X11384272Y6308721I85476J-129783D01*
G75*
G01*
X7853631Y4002928D02*
G03*
X7844794Y4002828I-5033J54107D01*
D14*
G75*
G01*
X327721Y1425207D02*
G03*
X327717Y1424807I-18184J-4D01*
D12*
G75*
G01*
X1732163Y6730462D02*
G03*
X1732163Y6857462I0J63500D01*
D14*
G75*
G01*
X169144Y1782440D02*
G03*
X169139Y1782033I-18492J4D01*
G75*
G01*
X757154Y1332860D02*
G03*
X757149Y1332453I-18492J4D01*
G75*
G01*
X5001494Y1784980D02*
G03*
X5001489Y1784573I-18492J4D01*
D12*
G75*
G01*
X8613074Y2737482D02*
G03*
X8613042Y2736768I-8032J0D01*
D14*
G75*
G01*
X7562134Y514793D02*
G03*
X7562134Y2114787I-640001J799997D01*
G75*
G01*
X6282130Y2114787D02*
G03*
X6282130Y514793I640002J-799997D01*
G75*
G01*
X621424Y4999660D02*
G03*
X621426Y5000076I14998J126D01*
M02*
