G04 Layer: BoardOutlineLayer*
G04 EasyEDA v6.5.46, 2025-01-01 16:01:39*
G04 1acd7fc2553046b79c71bda98b4923fc,10*
G04 Gerber Generator version 0.2*
G04 Scale: 100 percent, Rotated: No, Reflected: No *
G04 Dimensions in millimeters *
G04 leading zeros omitted , absolute positions ,4 integer and 5 decimal *
%FSLAX45Y45*%
%MOMM*%

%ADD10C,0.2540*%
D10*
X9285762Y5161592D02*
G01*
X11467622Y5161592D01*
G75*
G01*
X11490437Y6366413D02*
G03*
X11490435Y6365811I-114999J-10D01*
G75*
G01*
X3958438Y6366413D02*
G03*
X3958436Y6365811I-114999J-10D01*
G75*
G01*
X11489939Y1123414D02*
G03*
X11489937Y1122812I-114999J-10D01*
G75*
G01*
X11122802Y6341742D02*
G03*
X11122801Y6341376I-70000J11D01*
G75*
G01*
X11120262Y5539102D02*
G03*
X11120261Y5538736I-70000J11D01*
G75*
G01*
X3958438Y1124415D02*
G03*
X3958436Y1123813I-114999J-10D01*
G75*
G01*
X9285762Y5161591D02*
G03*
X9119393Y5006651I-4000J-162495D01*
G75*
G01*
X11467621Y5161591D02*
G03*
X11617482Y5315261I-7768J157484D01*
G75*
G01*
X9119393Y2454272D02*
G03*
X9259094Y2326002I137678J9736D01*
G75*
G01*
X11627643Y2179953D02*
G03*
X11486672Y2326004I-142230J3776D01*
G75*
G01*
X11294904Y2D02*
G03*
X11627644Y328931I-18455J351430D01*
G75*
G01*
X-346707Y320040D02*
G03*
X2Y-1I337962J18303D01*
G75*
G01*
X-11431Y7518226D02*
G03*
X-346708Y7186754I-19125J-315954D01*
G75*
G01*
X11617482Y7196922D02*
G03*
X11310144Y7518229I-289029J31179D01*
X-11432Y7518227D02*
G01*
X11310142Y7518227D01*
X11617482Y5315259D02*
G01*
X11617482Y7196922D01*
X9119392Y2454272D02*
G01*
X9119392Y5006649D01*
X9259092Y2326002D02*
G01*
X11486672Y2326002D01*
X11627642Y328929D02*
G01*
X11627642Y2179952D01*
X0Y0D02*
G01*
X11294902Y0D01*
X-346707Y320037D02*
G01*
X-346707Y7186752D01*
G75*
G01*
X11294902Y3D02*
G03*
X11627642Y328933I-18454J351430D01*

%LPD*%
M02*
