G04 Layer: TopPasteMaskLayer*
G04 EasyEDA v6.5.46, 2025-01-01 16:01:39*
G04 1acd7fc2553046b79c71bda98b4923fc,10*
G04 Gerber Generator version 0.2*
G04 Scale: 100 percent, Rotated: No, Reflected: No *
G04 Dimensions in millimeters *
G04 leading zeros omitted , absolute positions ,4 integer and 5 decimal *
%FSLAX45Y45*%
%MOMM*%

%ADD10C,0.8000*%
%ADD11C,1.0000*%
%ADD12R,0.9000X1.1000*%
%ADD13R,0.7000X2.0000*%
%ADD14R,0.6850X0.2000*%
%ADD15R,1.3000X1.4000*%
%ADD16R,3.0000X3.0000*%
%ADD17R,1.0000X0.2800*%
%ADD18R,0.0155X0.2800*%
%ADD19R,0.2800X1.0000*%
%ADD20R,0.6000X0.5000*%
%ADD21R,1.5000X1.2000*%
%ADD22R,1.5000X0.7000*%
%ADD23R,1.4500X1.7500*%
%ADD24R,2.3000X1.3000*%
%ADD25R,1.6000X0.2700*%
%ADD26R,0.2700X1.6000*%
%ADD27R,1.0842X1.1842*%
%ADD28O,0.6096X2.032*%
%ADD29R,1.5240X1.2000*%
%ADD30R,0.5000X0.6000*%
%ADD31R,0.9144X1.2700*%
%ADD32O,3.4999676X1.1999976*%
%ADD33R,4.0000X1.2000*%
%ADD34R,1.5000X2.5000*%
%ADD35R,0.7000X1.6000*%
%ADD36R,1.1000X0.9000*%
%ADD37R,1.2000X1.5240*%
%ADD38R,2.2000X2.5000*%
%ADD39R,1.6000X2.5000*%
%ADD40R,3.2000X1.0000*%
%ADD41R,1.0000X3.2000*%
%ADD42O,1.2500102X0.2999994*%
%ADD43O,2.999994X1.9999959999999999*%
%ADD44R,3.2000X4.2000*%
%ADD45R,0.7000X0.2500*%
%ADD46R,0.2500X0.7000*%
%ADD47R,1.6000X1.6000*%
%ADD48R,0.7000X0.7000*%

%LPD*%
D10*
G01*
X7879433Y2227910D03*
G01*
X7956420Y2308910D03*
G01*
X8039427Y2398903D03*
D11*
G01*
X972538Y372922D03*
G01*
X603171Y7093965D03*
G01*
X10676176Y6876795D03*
G01*
X10604522Y740841D03*
G01*
X6964804Y2299792D03*
G01*
X7614790Y2183104D03*
D12*
G01*
X3724069Y7318959D03*
G01*
X3724069Y7142962D03*
D13*
G01*
X10112169Y1322959D03*
G01*
X10112169Y872972D03*
G01*
X9858169Y1322959D03*
G01*
X9858169Y872972D03*
G01*
X9604169Y1322959D03*
G01*
X9604169Y872972D03*
G01*
X9350169Y1322959D03*
G01*
X9350169Y872972D03*
G01*
X9096169Y1322959D03*
G01*
X9096169Y872972D03*
G01*
X8842169Y1322959D03*
G01*
X8842169Y872972D03*
D14*
G01*
X6261173Y6574891D03*
G01*
X6261173Y6614896D03*
G01*
X6261173Y6654901D03*
G01*
X6261173Y6694906D03*
G01*
X6261173Y6734911D03*
G01*
X6017689Y6734911D03*
G01*
X6017689Y6694906D03*
G01*
X6017689Y6654901D03*
G01*
X6017689Y6614896D03*
G01*
X6017689Y6574891D03*
D15*
G01*
X6139431Y6654901D03*
D16*
G01*
X3315637Y6825970D03*
D17*
G01*
X3065625Y6675958D03*
G01*
X3065625Y6725970D03*
G01*
X3065625Y6775958D03*
G01*
X3065625Y6975957D03*
G01*
X3065625Y6925970D03*
G01*
X3065625Y6875957D03*
G01*
X3065625Y6825970D03*
G01*
X3565624Y6675958D03*
G01*
X3565624Y6725970D03*
G01*
X3565624Y6775958D03*
G01*
X3565624Y6975957D03*
G01*
X3565624Y6925970D03*
G01*
X3565624Y6875957D03*
G01*
X3565624Y6825970D03*
D19*
G01*
X3165624Y7075957D03*
G01*
X3215637Y7075957D03*
G01*
X3265624Y7075957D03*
G01*
X3465624Y7075957D03*
G01*
X3415637Y7075957D03*
G01*
X3365624Y7075957D03*
G01*
X3315637Y7075957D03*
G01*
X3165624Y6575958D03*
G01*
X3215637Y6575958D03*
G01*
X3265624Y6575958D03*
G01*
X3465624Y6575958D03*
G01*
X3415637Y6575958D03*
G01*
X3365624Y6575958D03*
G01*
X3315637Y6575958D03*
D20*
G01*
X116558Y5085943D03*
G01*
X116558Y4994503D03*
D21*
G01*
X10060937Y5250814D03*
D22*
G01*
X9999977Y5920739D03*
G01*
X9999977Y5810885D03*
G01*
X9999977Y5701029D03*
G01*
X9999977Y5591175D03*
G01*
X9999977Y5481320D03*
G01*
X9999977Y5371464D03*
G01*
X9999977Y6250304D03*
G01*
X9999977Y6140450D03*
G01*
X9999977Y6030595D03*
D23*
G01*
X10058397Y6720204D03*
D24*
G01*
X11018517Y6810375D03*
G01*
X11023597Y5252085D03*
D25*
G01*
X6503794Y3342817D03*
G01*
X6503794Y3392830D03*
G01*
X6503794Y3442817D03*
G01*
X6503794Y3492830D03*
G01*
X6503794Y3542817D03*
G01*
X6503794Y3592829D03*
G01*
X6503794Y3642817D03*
G01*
X6503794Y3692829D03*
G01*
X6503794Y3742817D03*
G01*
X6503794Y3792829D03*
G01*
X6503794Y3842816D03*
G01*
X6503794Y3892829D03*
G01*
X6503794Y3942816D03*
G01*
X6503794Y3992829D03*
G01*
X6503794Y4042816D03*
G01*
X6503794Y4092828D03*
D26*
G01*
X7514790Y4301820D03*
G01*
X7464803Y4301820D03*
G01*
X7414790Y4301820D03*
G01*
X7364803Y4301820D03*
G01*
X7314791Y4301820D03*
G01*
X7264803Y4301820D03*
G01*
X7214791Y4301820D03*
G01*
X7164804Y4301820D03*
G01*
X7114791Y4301820D03*
G01*
X7064804Y4301820D03*
G01*
X7014791Y4301820D03*
G01*
X6964804Y4301820D03*
G01*
X6914791Y4301820D03*
G01*
X6864804Y4301820D03*
G01*
X6814792Y4301820D03*
G01*
X6764804Y4301820D03*
G01*
X6714792Y2682824D03*
G01*
X6764804Y2682824D03*
G01*
X6814792Y2682824D03*
G01*
X6864804Y2682824D03*
G01*
X6914791Y2682824D03*
G01*
X6964804Y2682824D03*
G01*
X7014791Y2682824D03*
G01*
X7064804Y2682824D03*
G01*
X7114791Y2682824D03*
G01*
X7164804Y2682824D03*
G01*
X7214791Y2682824D03*
G01*
X7264803Y2682824D03*
G01*
X7314791Y2682824D03*
G01*
X7364803Y2682824D03*
G01*
X7414790Y2682824D03*
G01*
X7464803Y2682824D03*
D25*
G01*
X6503794Y2892831D03*
D26*
G01*
X7564803Y4301820D03*
G01*
X7614790Y4301820D03*
G01*
X7664803Y4301820D03*
G01*
X7714790Y4301820D03*
G01*
X7764802Y4301820D03*
G01*
X7814790Y4301820D03*
G01*
X7864802Y4301820D03*
G01*
X7914789Y4301820D03*
G01*
X6714792Y4301820D03*
D25*
G01*
X6503794Y2942818D03*
G01*
X6503794Y2992831D03*
G01*
X6503794Y3042818D03*
G01*
X6503794Y3092830D03*
G01*
X6503794Y3142818D03*
G01*
X6503794Y3192830D03*
G01*
X6503794Y3242818D03*
G01*
X6503794Y3292830D03*
D26*
G01*
X7864802Y2682824D03*
G01*
X7814790Y2682824D03*
G01*
X7764802Y2682824D03*
G01*
X7714790Y2682824D03*
G01*
X7664803Y2682824D03*
G01*
X7614790Y2682824D03*
G01*
X7564803Y2682824D03*
G01*
X7514790Y2682824D03*
G01*
X7914789Y2682824D03*
D25*
G01*
X8124797Y3142818D03*
G01*
X8124797Y3092830D03*
G01*
X8124797Y3042818D03*
G01*
X8124797Y2992831D03*
G01*
X8124797Y2942818D03*
G01*
X8124797Y2892831D03*
G01*
X8124797Y3192830D03*
G01*
X8124797Y3492830D03*
G01*
X8124797Y3442817D03*
G01*
X8124797Y3392830D03*
G01*
X8124797Y3342817D03*
G01*
X8124797Y3292830D03*
G01*
X8124797Y3242818D03*
G01*
X8124797Y3542817D03*
G01*
X8124797Y3842816D03*
G01*
X8124797Y3792829D03*
G01*
X8124797Y3742817D03*
G01*
X8124797Y3692829D03*
G01*
X8124797Y3642817D03*
G01*
X8124797Y3592829D03*
G01*
X8124797Y3892829D03*
G01*
X8124797Y4092828D03*
G01*
X8124797Y4042816D03*
G01*
X8124797Y3992829D03*
G01*
X8124797Y3942816D03*
D20*
G01*
X5791451Y6796633D03*
G01*
X5791451Y6705193D03*
D27*
G01*
X403527Y1401063D03*
G01*
X592757Y1158494D03*
G01*
X592757Y1401063D03*
G01*
X403527Y1158494D03*
D28*
G01*
X1795675Y6514566D03*
G01*
X1922675Y7073366D03*
G01*
X1795675Y7073366D03*
G01*
X2176675Y7073366D03*
G01*
X2176675Y6514566D03*
G01*
X1922675Y6514566D03*
G01*
X2049675Y6514566D03*
G01*
X2049675Y7073366D03*
D29*
G01*
X6034427Y7024903D03*
G01*
X6263027Y7024903D03*
D20*
G01*
X556435Y5517642D03*
G01*
X556409Y5426202D03*
G01*
X429435Y5432196D03*
G01*
X429435Y5523636D03*
G01*
X2758158Y7218248D03*
G01*
X2758158Y7309688D03*
D30*
G01*
X9419790Y5795949D03*
G01*
X9511230Y5795949D03*
G01*
X9510240Y5923965D03*
G01*
X9418800Y5923965D03*
G01*
X2716883Y6864959D03*
G01*
X2625443Y6864959D03*
D20*
G01*
X3164151Y6396685D03*
G01*
X3164151Y6305245D03*
D30*
G01*
X4275452Y6984949D03*
G01*
X4366892Y6984949D03*
G01*
X4366892Y6730949D03*
G01*
X4275452Y6730949D03*
G01*
X4367883Y6602958D03*
G01*
X4276443Y6602958D03*
D20*
G01*
X1036419Y6399631D03*
G01*
X1036419Y6308191D03*
G01*
X1036419Y6079185D03*
G01*
X1036419Y6170625D03*
G01*
X2634155Y7305675D03*
G01*
X2634155Y7214235D03*
G01*
X2378174Y7304684D03*
G01*
X2378174Y7213244D03*
G01*
X2478173Y6514236D03*
G01*
X2478173Y6605676D03*
G01*
X2353155Y6512229D03*
G01*
X2353155Y6603669D03*
D30*
G01*
X4275452Y6856958D03*
G01*
X4366892Y6856958D03*
G01*
X8331248Y4370857D03*
G01*
X8239808Y4370857D03*
D20*
G01*
X8356292Y3113049D03*
G01*
X8356292Y3021609D03*
D30*
G01*
X8499574Y2197328D03*
G01*
X8591014Y2197328D03*
G01*
X8324009Y2191334D03*
G01*
X8232569Y2191334D03*
D20*
G01*
X196136Y1307058D03*
G01*
X196136Y1398498D03*
D12*
G01*
X1075535Y1872843D03*
G01*
X1075535Y2048840D03*
D20*
G01*
X590141Y787501D03*
G01*
X590141Y696061D03*
G01*
X-93830Y3932250D03*
G01*
X-93830Y4023690D03*
D31*
G01*
X8331299Y2372334D03*
G01*
X8427819Y2595524D03*
G01*
X8521799Y2372334D03*
D32*
G01*
X6535163Y6014846D03*
D33*
G01*
X5905167Y5594857D03*
G01*
X5905167Y6234836D03*
D32*
G01*
X6535163Y5814847D03*
D34*
G01*
X1536164Y7085964D03*
G01*
X816175Y7085964D03*
D35*
G01*
X1239669Y7335951D03*
G01*
X1112669Y7335951D03*
D12*
G01*
X-124462Y1978837D03*
G01*
X-124462Y2154834D03*
D36*
G01*
X7396528Y4961839D03*
G01*
X7220531Y4961839D03*
D20*
G01*
X7169122Y2308504D03*
G01*
X7169122Y2217064D03*
D30*
G01*
X8242881Y1828952D03*
G01*
X8151441Y1828952D03*
G01*
X7319820Y4769840D03*
G01*
X7411260Y4769840D03*
D36*
G01*
X4295162Y6417970D03*
G01*
X4471159Y6417970D03*
D37*
G01*
X5027165Y1548968D03*
G01*
X5027165Y1320368D03*
D20*
G01*
X3467173Y6304229D03*
G01*
X3467173Y6395669D03*
D37*
G01*
X995423Y5468518D03*
G01*
X995423Y5239918D03*
G01*
X-81434Y4966639D03*
G01*
X-81434Y5195239D03*
D36*
G01*
X9329493Y6286779D03*
G01*
X9505490Y6286779D03*
D30*
G01*
X9508208Y6061786D03*
G01*
X9416768Y6061786D03*
D20*
G01*
X2885158Y7309688D03*
G01*
X2885158Y7218248D03*
D36*
G01*
X3030166Y7290968D03*
G01*
X3206163Y7290968D03*
D30*
G01*
X3361712Y7332903D03*
G01*
X3453152Y7332903D03*
D12*
G01*
X3939969Y7318959D03*
G01*
X3939969Y7142962D03*
G01*
X4157266Y7316952D03*
G01*
X4157266Y7140955D03*
D20*
G01*
X1180411Y6395643D03*
G01*
X1180411Y6304203D03*
G01*
X1181427Y6084188D03*
G01*
X1181427Y6175628D03*
G01*
X2506164Y7213244D03*
G01*
X2506164Y7304684D03*
G01*
X2482161Y6731228D03*
G01*
X2482161Y6822668D03*
D30*
G01*
X2014877Y6310960D03*
G01*
X1923437Y6310960D03*
G01*
X2049879Y7259954D03*
G01*
X1958439Y7259954D03*
G01*
X960422Y1637792D03*
G01*
X1051862Y1637792D03*
D36*
G01*
X779142Y1634794D03*
G01*
X603145Y1634794D03*
D38*
G01*
X-173205Y5634354D03*
G01*
X-164315Y6303645D03*
D39*
G01*
X167154Y5641975D03*
G01*
X558314Y6320154D03*
G01*
X734844Y5641975D03*
G01*
X788184Y6320154D03*
D40*
G01*
X193824Y1901825D03*
G01*
X746274Y1901825D03*
G01*
X193824Y2155697D03*
G01*
X746274Y2155697D03*
G01*
X193824Y2409570D03*
G01*
X746274Y2409570D03*
G01*
X193824Y2663444D03*
G01*
X746274Y2663444D03*
G01*
X193824Y2917317D03*
G01*
X746274Y2917317D03*
G01*
X193824Y3171189D03*
G01*
X193824Y3425062D03*
G01*
X193824Y3932809D03*
G01*
X193824Y3678936D03*
G01*
X193824Y4186681D03*
G01*
X193824Y4440554D03*
G01*
X746274Y3171189D03*
G01*
X746274Y3425062D03*
G01*
X746274Y3678936D03*
G01*
X746274Y3932809D03*
G01*
X746274Y4186681D03*
G01*
X746274Y4440554D03*
D41*
G01*
X3908574Y1292225D03*
G01*
X3908574Y739775D03*
G01*
X3654701Y739775D03*
G01*
X3654701Y1292225D03*
G01*
X3396764Y739775D03*
G01*
X3142891Y739775D03*
G01*
X2889018Y739775D03*
G01*
X2635145Y739775D03*
G01*
X2381272Y739775D03*
G01*
X2127399Y739775D03*
G01*
X3396764Y1292225D03*
G01*
X3142891Y1292225D03*
G01*
X2635145Y1292225D03*
G01*
X2889018Y1292225D03*
G01*
X2381272Y1292225D03*
G01*
X2127399Y1292225D03*
G01*
X1873526Y739775D03*
G01*
X1873526Y1292225D03*
G01*
X1619653Y739775D03*
G01*
X1619653Y1292225D03*
G01*
X1365780Y739775D03*
G01*
X1365780Y1292225D03*
G01*
X1111907Y739775D03*
G01*
X1111907Y1292225D03*
G01*
X858034Y739775D03*
G01*
X858034Y1292225D03*
D40*
G01*
X5026174Y1904364D03*
G01*
X5578624Y1904364D03*
G01*
X5026174Y2158237D03*
G01*
X5578624Y2158237D03*
G01*
X5026174Y2412111D03*
G01*
X5578624Y2412111D03*
G01*
X5026174Y2665984D03*
G01*
X5578624Y2665984D03*
G01*
X5026174Y2919856D03*
G01*
X5578624Y2919856D03*
G01*
X5026174Y3173729D03*
G01*
X5026174Y3427603D03*
G01*
X5026174Y3935348D03*
G01*
X5026174Y3681476D03*
G01*
X5026174Y4189221D03*
G01*
X5026174Y4443095D03*
G01*
X5578624Y3173729D03*
G01*
X5578624Y3427603D03*
G01*
X5578624Y3681476D03*
G01*
X5578624Y3935348D03*
G01*
X5578624Y4189221D03*
G01*
X5578624Y4443095D03*
D42*
G01*
X8603764Y2790825D03*
G01*
X8603764Y2841040D03*
G01*
X8603764Y2891256D03*
G01*
X8603764Y2941472D03*
G01*
X8603764Y2991688D03*
G01*
X8603764Y3041878D03*
G01*
X8603764Y3092094D03*
G01*
X8603764Y3142310D03*
G01*
X8603764Y3192526D03*
G01*
X8603764Y3242741D03*
G01*
X8603764Y3292957D03*
G01*
X8603764Y3343173D03*
G01*
X8603764Y3393389D03*
G01*
X8603764Y3443604D03*
G01*
X8603764Y3493820D03*
G01*
X8603764Y3544036D03*
G01*
X8603764Y3594252D03*
G01*
X8603764Y3644468D03*
G01*
X8603764Y3694658D03*
G01*
X8603764Y3744874D03*
G01*
X8603764Y3795090D03*
G01*
X8603764Y3845305D03*
G01*
X8603764Y3895521D03*
G01*
X8603764Y3945737D03*
G01*
X8603764Y3995953D03*
G01*
X8603764Y4046169D03*
G01*
X8603764Y4096385D03*
G01*
X8603764Y4146600D03*
G01*
X8603764Y4196816D03*
G01*
X8603764Y4247032D03*
G01*
X8603764Y4297248D03*
G01*
X8603764Y4347438D03*
G01*
X8603764Y4397654D03*
G01*
X8603764Y4447870D03*
G01*
X8603764Y4498086D03*
G01*
X8603764Y4548301D03*
G01*
X8603764Y4598517D03*
G01*
X8603764Y4648733D03*
G01*
X8603764Y4698949D03*
G01*
X8603764Y4749164D03*
D43*
G01*
X8831094Y4902835D03*
G01*
X8837444Y2639695D03*
D20*
G01*
X7315121Y2215057D03*
G01*
X7315146Y2306497D03*
D36*
G01*
X4538418Y505917D03*
G01*
X4714415Y505917D03*
G01*
X5986142Y357784D03*
G01*
X5810145Y357784D03*
D44*
G01*
X8362134Y1314780D03*
G01*
X5482130Y1314780D03*
D45*
G01*
X547418Y5064912D03*
G01*
X547418Y5114925D03*
G01*
X547418Y5164912D03*
G01*
X547418Y5214924D03*
D46*
G01*
X482419Y5279923D03*
G01*
X432432Y5279923D03*
G01*
X382419Y5279923D03*
G01*
X332432Y5279923D03*
D45*
G01*
X267434Y5214924D03*
G01*
X267434Y5164912D03*
G01*
X267434Y5114925D03*
G01*
X267434Y5064912D03*
D46*
G01*
X332432Y4999913D03*
G01*
X382419Y4999913D03*
G01*
X432432Y4999913D03*
G01*
X482419Y4999913D03*
D47*
G01*
X407413Y5139918D03*
D30*
G01*
X1054148Y5032908D03*
G01*
X962708Y5032908D03*
D20*
G01*
X331416Y4802631D03*
G01*
X331416Y4711192D03*
D30*
G01*
X-149151Y4667224D03*
G01*
X-57711Y4667224D03*
G01*
X1046147Y4894910D03*
G01*
X954707Y4894910D03*
G01*
X799132Y5417921D03*
G01*
X707692Y5417921D03*
G01*
X-32870Y5411901D03*
G01*
X-124310Y5411901D03*
D12*
G01*
X-127561Y4233900D03*
G01*
X-127561Y4409922D03*
D20*
G01*
X458416Y4803622D03*
G01*
X458416Y4712182D03*
G01*
X5562419Y6699630D03*
G01*
X5562419Y6608190D03*
D48*
G01*
X-261444Y5368239D03*
G01*
X-261444Y5214569D03*
G01*
X-261444Y4789220D03*
G01*
X-261444Y4942890D03*
M02*
