G04 Layer: TopSolderMaskLayer*
G04 EasyEDA v6.5.46, 2025-01-01 16:01:39*
G04 1acd7fc2553046b79c71bda98b4923fc,10*
G04 Gerber Generator version 0.2*
G04 Scale: 100 percent, Rotated: No, Reflected: No *
G04 Dimensions in millimeters *
G04 leading zeros omitted , absolute positions ,4 integer and 5 decimal *
%FSLAX45Y45*%
%MOMM*%

%AMMACRO1*4,1,8,-0.4711,-0.6008,-0.5008,-0.5711,-0.5008,0.571,-0.4711,0.6008,0.471,0.6008,0.5008,0.571,0.5008,-0.5711,0.471,-0.6008,-0.4711,-0.6008,0*%
%AMMACRO2*4,1,8,-0.3711,-1.0508,-0.4008,-1.0211,-0.4008,1.021,-0.3711,1.0508,0.371,1.0508,0.4008,1.021,0.4008,-1.0211,0.371,-1.0508,-0.3711,-1.0508,0*%
%AMMACRO3*4,1,8,-0.3636,-0.1508,-0.3933,-0.1211,-0.3933,0.121,-0.3636,0.1508,0.3635,0.1508,0.3933,0.121,0.3933,-0.1211,0.3635,-0.1508,-0.3636,-0.1508,0*%
%AMMACRO4*4,1,8,-0.6711,-0.7508,-0.7008,-0.7211,-0.7008,0.721,-0.6711,0.7508,0.671,0.7508,0.7008,0.721,0.7008,-0.7211,0.671,-0.7508,-0.6711,-0.7508,0*%
%AMMACRO5*4,1,8,-0.8085,-0.8382,-0.8382,-0.8085,-0.8382,0.8084,-0.8085,0.8382,0.8084,0.8382,0.8382,0.8084,0.8382,-0.8085,0.8084,-0.8382,-0.8085,-0.8382,0*%
%AMMACRO6*4,1,8,-1.5211,-1.5508,-1.5508,-1.5211,-1.5508,1.521,-1.5211,1.5508,1.521,1.5508,1.5508,1.521,1.5508,-1.5211,1.521,-1.5508,-1.5211,-1.5508,0*%
%AMMACRO7*4,1,8,-0.5211,-0.1908,-0.5508,-0.161,-0.5508,0.161,-0.5211,0.1908,0.521,0.1908,0.5508,0.161,0.5508,-0.161,0.521,-0.1908,-0.5211,-0.1908,0*%
%AMMACRO8*4,1,8,-0.161,-0.5508,-0.1908,-0.5211,-0.1908,0.521,-0.161,0.5508,0.161,0.5508,0.1908,0.521,0.1908,-0.5211,0.161,-0.5508,-0.161,-0.5508,0*%
%AMMACRO9*4,1,8,-0.3211,-0.3008,-0.3508,-0.2711,-0.3508,0.271,-0.3211,0.3008,0.321,0.3008,0.3508,0.271,0.3508,-0.2711,0.321,-0.3008,-0.3211,-0.3008,0*%
%AMMACRO10*4,1,8,-0.7711,-0.6508,-0.8008,-0.6211,-0.8008,0.621,-0.7711,0.6508,0.771,0.6508,0.8008,0.621,0.8008,-0.6211,0.771,-0.6508,-0.7711,-0.6508,0*%
%AMMACRO11*4,1,8,-0.7711,-0.4008,-0.8008,-0.3711,-0.8008,0.371,-0.7711,0.4008,0.771,0.4008,0.8008,0.371,0.8008,-0.3711,0.771,-0.4008,-0.7711,-0.4008,0*%
%AMMACRO12*4,1,8,-0.7461,-0.9258,-0.7758,-0.8961,-0.7758,0.896,-0.7461,0.9258,0.746,0.9258,0.7758,0.896,0.7758,-0.8961,0.746,-0.9258,-0.7461,-0.9258,0*%
%AMMACRO13*4,1,8,-1.1711,-0.7008,-1.2008,-0.6711,-1.2008,0.671,-1.1711,0.7008,1.171,0.7008,1.2008,0.671,1.2008,-0.6711,1.171,-0.7008,-1.1711,-0.7008,0*%
%AMMACRO14*4,1,8,-1.1711,-0.7008,-1.2008,-0.671,-1.2008,0.671,-1.1711,0.7008,1.171,0.7008,1.2008,0.671,1.2008,-0.671,1.171,-0.7008,-1.1711,-0.7008,0*%
%AMMACRO15*4,1,8,-0.8211,-0.1858,-0.8508,-0.1561,-0.8508,0.156,-0.8211,0.1858,0.821,0.1858,0.8508,0.156,0.8508,-0.1561,0.821,-0.1858,-0.8211,-0.1858,0*%
%AMMACRO16*4,1,8,-0.156,-0.8508,-0.1858,-0.8211,-0.1858,0.821,-0.156,0.8508,0.156,0.8508,0.1858,0.821,0.1858,-0.8211,0.156,-0.8508,-0.156,-0.8508,0*%
%AMMACRO17*4,1,8,-0.1561,-0.8508,-0.1858,-0.8211,-0.1858,0.821,-0.1561,0.8508,0.156,0.8508,0.1858,0.821,0.1858,-0.8211,0.156,-0.8508,-0.1561,-0.8508,0*%
%AMMACRO18*4,1,8,-0.5632,-0.6429,-0.5929,-0.6132,-0.5929,0.6131,-0.5632,0.6429,0.5631,0.6429,0.5929,0.6131,0.5929,-0.6132,0.5631,-0.6429,-0.5632,-0.6429,0*%
%AMMACRO19*4,1,8,-0.7831,-0.6508,-0.8128,-0.6211,-0.8128,0.621,-0.7831,0.6508,0.783,0.6508,0.8128,0.621,0.8128,-0.6211,0.783,-0.6508,-0.7831,-0.6508,0*%
%AMMACRO20*4,1,8,-0.2711,-0.3508,-0.3008,-0.3211,-0.3008,0.321,-0.2711,0.3508,0.271,0.3508,0.3008,0.321,0.3008,-0.3211,0.271,-0.3508,-0.2711,-0.3508,0*%
%AMMACRO21*4,1,8,-0.4783,-0.6858,-0.508,-0.6561,-0.508,0.656,-0.4783,0.6858,0.4782,0.6858,0.508,0.656,0.508,-0.6561,0.4782,-0.6858,-0.4783,-0.6858,0*%
%AMMACRO22*4,1,8,-2.021,-0.6508,-2.0508,-0.6211,-2.0508,0.621,-2.021,0.6508,2.021,0.6508,2.0508,0.621,2.0508,-0.6211,2.021,-0.6508,-2.021,-0.6508,0*%
%AMMACRO23*4,1,8,-0.7711,-1.3008,-0.8008,-1.2711,-0.8008,1.271,-0.7711,1.3008,0.771,1.3008,0.8008,1.271,0.8008,-1.2711,0.771,-1.3008,-0.7711,-1.3008,0*%
%AMMACRO24*4,1,8,-0.3711,-0.8508,-0.4008,-0.8211,-0.4008,0.821,-0.3711,0.8508,0.371,0.8508,0.4008,0.821,0.4008,-0.8211,0.371,-0.8508,-0.3711,-0.8508,0*%
%AMMACRO25*4,1,8,-0.5711,-0.5008,-0.6008,-0.4711,-0.6008,0.471,-0.5711,0.5008,0.571,0.5008,0.6008,0.471,0.6008,-0.4711,0.571,-0.5008,-0.5711,-0.5008,0*%
%AMMACRO26*4,1,8,-0.6211,-0.8128,-0.6508,-0.7831,-0.6508,0.783,-0.6211,0.8128,0.621,0.8128,0.6508,0.783,0.6508,-0.7831,0.621,-0.8128,-0.6211,-0.8128,0*%
%AMMACRO27*4,1,8,-1.1211,-1.3008,-1.1508,-1.2711,-1.1508,1.271,-1.1211,1.3008,1.121,1.3008,1.1508,1.271,1.1508,-1.2711,1.121,-1.3008,-1.1211,-1.3008,0*%
%AMMACRO28*4,1,8,-0.8211,-1.3008,-0.8508,-1.2711,-0.8508,1.271,-0.8211,1.3008,0.821,1.3008,0.8508,1.271,0.8508,-1.2711,0.821,-1.3008,-0.8211,-1.3008,0*%
%AMMACRO29*4,1,8,-0.8211,-1.3008,-0.8508,-1.271,-0.8508,1.271,-0.8211,1.3008,0.821,1.3008,0.8508,1.271,0.8508,-1.271,0.821,-1.3008,-0.8211,-1.3008,0*%
%AMMACRO30*4,1,8,-1.6211,-0.5508,-1.6508,-0.5211,-1.6508,0.521,-1.6211,0.5508,1.621,0.5508,1.6508,0.521,1.6508,-0.5211,1.621,-0.5508,-1.6211,-0.5508,0*%
%AMMACRO31*4,1,8,-1.621,-0.5508,-1.6508,-0.5211,-1.6508,0.521,-1.621,0.5508,1.621,0.5508,1.6508,0.521,1.6508,-0.5211,1.621,-0.5508,-1.621,-0.5508,0*%
%AMMACRO32*4,1,8,-0.5211,-1.6508,-0.5508,-1.6211,-0.5508,1.621,-0.5211,1.6508,0.521,1.6508,0.5508,1.621,0.5508,-1.6211,0.521,-1.6508,-0.5211,-1.6508,0*%
%AMMACRO33*4,1,8,-1.6211,-2.1508,-1.6508,-2.1211,-1.6508,2.121,-1.6211,2.1508,1.621,2.1508,1.6508,2.121,1.6508,-2.1211,1.621,-2.1508,-1.6211,-2.1508,0*%
%AMMACRO34*4,1,8,-0.3711,-0.1758,-0.4008,-0.1461,-0.4008,0.146,-0.3711,0.1758,0.371,0.1758,0.4008,0.146,0.4008,-0.1461,0.371,-0.1758,-0.3711,-0.1758,0*%
%AMMACRO35*4,1,8,-0.3711,-0.1758,-0.4008,-0.146,-0.4008,0.146,-0.3711,0.1758,0.371,0.1758,0.4008,0.146,0.4008,-0.146,0.371,-0.1758,-0.3711,-0.1758,0*%
%AMMACRO36*4,1,8,-0.1461,-0.4008,-0.1758,-0.3711,-0.1758,0.371,-0.1461,0.4008,0.146,0.4008,0.1758,0.371,0.1758,-0.3711,0.146,-0.4008,-0.1461,-0.4008,0*%
%AMMACRO37*4,1,8,-0.146,-0.4008,-0.1758,-0.3711,-0.1758,0.371,-0.146,0.4008,0.146,0.4008,0.1758,0.371,0.1758,-0.3711,0.146,-0.4008,-0.146,-0.4008,0*%
%AMMACRO38*4,1,8,-0.8211,-0.8508,-0.8508,-0.8211,-0.8508,0.821,-0.8211,0.8508,0.821,0.8508,0.8508,0.821,0.8508,-0.8211,0.821,-0.8508,-0.8211,-0.8508,0*%
%AMMACRO39*4,1,8,-0.3711,-0.4008,-0.4008,-0.3711,-0.4008,0.371,-0.3711,0.4008,0.371,0.4008,0.4008,0.371,0.4008,-0.3711,0.371,-0.4008,-0.3711,-0.4008,0*%
%ADD10C,0.9016*%
%ADD11C,1.1016*%
%ADD12MACRO1*%
%ADD13MACRO2*%
%ADD14MACRO3*%
%ADD15C,0.0199*%
%ADD16MACRO4*%
%ADD17C,1.6766*%
%ADD18C,1.6764*%
%ADD19MACRO5*%
%ADD20MACRO6*%
%ADD21MACRO7*%
%ADD22MACRO8*%
%ADD23MACRO9*%
%ADD24MACRO10*%
%ADD25MACRO11*%
%ADD26MACRO12*%
%ADD27MACRO13*%
%ADD28MACRO14*%
%ADD29MACRO15*%
%ADD30MACRO16*%
%ADD31MACRO17*%
%ADD32MACRO18*%
%ADD33O,0.7111999999999999X2.1336*%
%ADD34MACRO19*%
%ADD35MACRO20*%
%ADD36MACRO21*%
%ADD37O,3.6015676000000005X1.3015976000000002*%
%ADD38MACRO22*%
%ADD39MACRO23*%
%ADD40MACRO24*%
%ADD41MACRO25*%
%ADD42MACRO26*%
%ADD43MACRO27*%
%ADD44MACRO28*%
%ADD45MACRO29*%
%ADD46C,1.6016*%
%ADD47MACRO30*%
%ADD48MACRO31*%
%ADD49MACRO32*%
%ADD50O,1.3516102X0.40159940000000005*%
%ADD51O,3.1015939999999995X2.101596*%
%ADD52C,5.4016*%
%ADD53MACRO33*%
%ADD54MACRO34*%
%ADD55MACRO35*%
%ADD56MACRO36*%
%ADD57MACRO37*%
%ADD58MACRO38*%
%ADD59MACRO39*%
%ADD60C,1.8016*%
%ADD61C,1.7016*%
%ADD62C,2.4016*%

%LPD*%
D10*
G01*
X7879433Y2227910D03*
G01*
X7956420Y2308910D03*
G01*
X8039427Y2398903D03*
D11*
G01*
X972538Y372922D03*
G01*
X603171Y7093965D03*
G01*
X10676176Y6876795D03*
G01*
X10604522Y740841D03*
G01*
X6964804Y2299792D03*
G01*
X7614790Y2183104D03*
D12*
G01*
X3724070Y7318959D03*
G01*
X3724070Y7142962D03*
D13*
G01*
X10112170Y1322958D03*
G01*
X10112170Y872972D03*
G01*
X9858170Y1322958D03*
G01*
X9858170Y872972D03*
G01*
X9604170Y1322958D03*
G01*
X9604170Y872972D03*
G01*
X9350170Y1322958D03*
G01*
X9350170Y872972D03*
G01*
X9096170Y1322958D03*
G01*
X9096170Y872972D03*
G01*
X8842170Y1322958D03*
G01*
X8842170Y872972D03*
D14*
G01*
X6261173Y6574891D03*
G01*
X6261173Y6614896D03*
G01*
X6261173Y6654901D03*
G01*
X6261173Y6694906D03*
G01*
X6261173Y6734911D03*
G01*
X6017689Y6734911D03*
G01*
X6017689Y6694906D03*
G01*
X6017689Y6654901D03*
G01*
X6017689Y6614896D03*
G01*
X6017689Y6574891D03*
D16*
G01*
X6139432Y6654901D03*
D17*
G01*
X6982152Y6992950D03*
G01*
X6982152Y6738950D03*
G01*
X7744152Y6992950D03*
D18*
G01*
X7998152Y6738950D03*
G01*
X7744152Y6738950D03*
G01*
X7490152Y6738950D03*
D19*
G01*
X7998152Y6992950D03*
D18*
G01*
X7490152Y6992950D03*
G01*
X7236152Y6738950D03*
G01*
X7236152Y6992950D03*
D20*
G01*
X3315637Y6825970D03*
D21*
G01*
X3065625Y6675958D03*
G01*
X3065625Y6725970D03*
G01*
X3065625Y6775958D03*
G01*
X3065625Y6975956D03*
G01*
X3065625Y6925969D03*
G01*
X3065625Y6875956D03*
G01*
X3065625Y6825970D03*
G01*
X3565624Y6675958D03*
G01*
X3565624Y6725970D03*
G01*
X3565624Y6775958D03*
G01*
X3565624Y6975956D03*
G01*
X3565624Y6925969D03*
G01*
X3565624Y6875956D03*
G01*
X3565624Y6825970D03*
D22*
G01*
X3165626Y7075957D03*
G01*
X3215637Y7075957D03*
G01*
X3265625Y7075957D03*
G01*
X3465624Y7075957D03*
G01*
X3415638Y7075957D03*
G01*
X3365624Y7075957D03*
G01*
X3315638Y7075957D03*
G01*
X3165626Y6575958D03*
G01*
X3215637Y6575958D03*
G01*
X3265625Y6575958D03*
G01*
X3465624Y6575958D03*
G01*
X3415638Y6575958D03*
G01*
X3365624Y6575958D03*
G01*
X3315638Y6575958D03*
D23*
G01*
X116558Y5085943D03*
G01*
X116558Y4994503D03*
D24*
G01*
X10060937Y5250814D03*
D25*
G01*
X9999977Y5920738D03*
G01*
X9999977Y5810883D03*
G01*
X9999977Y5701028D03*
G01*
X9999977Y5591173D03*
G01*
X9999977Y5481319D03*
G01*
X9999977Y5371463D03*
G01*
X9999977Y6250303D03*
G01*
X9999977Y6140448D03*
G01*
X9999977Y6030594D03*
D26*
G01*
X10058398Y6720205D03*
D27*
G01*
X11018518Y6810373D03*
D28*
G01*
X11023598Y5252085D03*
D29*
G01*
X6503794Y3342817D03*
G01*
X6503794Y3392830D03*
G01*
X6503794Y3442817D03*
G01*
X6503794Y3492830D03*
G01*
X6503794Y3542817D03*
G01*
X6503794Y3592830D03*
G01*
X6503794Y3642817D03*
G01*
X6503794Y3692829D03*
G01*
X6503794Y3742817D03*
G01*
X6503794Y3792829D03*
G01*
X6503794Y3842816D03*
G01*
X6503794Y3892829D03*
G01*
X6503794Y3942816D03*
G01*
X6503794Y3992829D03*
G01*
X6503794Y4042816D03*
G01*
X6503794Y4092829D03*
D30*
G01*
X7514791Y4301820D03*
G01*
X7464804Y4301820D03*
G01*
X7414792Y4301820D03*
D31*
G01*
X7364803Y4301820D03*
G01*
X7314791Y4301820D03*
G01*
X7264803Y4301820D03*
G01*
X7214791Y4301820D03*
G01*
X7164804Y4301820D03*
G01*
X7114791Y4301820D03*
G01*
X7064804Y4301820D03*
G01*
X7014791Y4301820D03*
G01*
X6964804Y4301820D03*
G01*
X6914791Y4301820D03*
D30*
G01*
X6864805Y4301820D03*
G01*
X6814793Y4301820D03*
G01*
X6764806Y4301820D03*
G01*
X6714793Y2682824D03*
G01*
X6764806Y2682824D03*
G01*
X6814793Y2682824D03*
G01*
X6864805Y2682824D03*
D31*
G01*
X6914791Y2682824D03*
G01*
X6964804Y2682824D03*
G01*
X7014791Y2682824D03*
G01*
X7064804Y2682824D03*
G01*
X7114791Y2682824D03*
G01*
X7164804Y2682824D03*
G01*
X7214791Y2682824D03*
G01*
X7264803Y2682824D03*
G01*
X7314791Y2682824D03*
G01*
X7364803Y2682824D03*
D30*
G01*
X7414792Y2682824D03*
G01*
X7464804Y2682824D03*
D29*
G01*
X6503794Y2892831D03*
D30*
G01*
X7564804Y4301820D03*
G01*
X7614791Y4301820D03*
G01*
X7664804Y4301820D03*
G01*
X7714791Y4301820D03*
G01*
X7764804Y4301820D03*
D31*
G01*
X7814790Y4301820D03*
G01*
X7864802Y4301820D03*
G01*
X7914789Y4301820D03*
D30*
G01*
X6714793Y4301820D03*
D29*
G01*
X6503794Y2942818D03*
G01*
X6503794Y2992831D03*
G01*
X6503794Y3042818D03*
G01*
X6503794Y3092831D03*
G01*
X6503794Y3142818D03*
G01*
X6503794Y3192830D03*
G01*
X6503794Y3242818D03*
G01*
X6503794Y3292830D03*
D31*
G01*
X7864802Y2682824D03*
G01*
X7814790Y2682824D03*
D30*
G01*
X7764804Y2682824D03*
G01*
X7714791Y2682824D03*
G01*
X7664804Y2682824D03*
G01*
X7614791Y2682824D03*
G01*
X7564804Y2682824D03*
G01*
X7514791Y2682824D03*
D31*
G01*
X7914789Y2682824D03*
D29*
G01*
X8124797Y3142818D03*
G01*
X8124797Y3092831D03*
G01*
X8124797Y3042818D03*
G01*
X8124797Y2992831D03*
G01*
X8124797Y2942818D03*
G01*
X8124797Y2892831D03*
G01*
X8124797Y3192830D03*
G01*
X8124797Y3492830D03*
G01*
X8124797Y3442817D03*
G01*
X8124797Y3392830D03*
G01*
X8124797Y3342817D03*
G01*
X8124797Y3292830D03*
G01*
X8124797Y3242818D03*
G01*
X8124797Y3542817D03*
G01*
X8124797Y3842816D03*
G01*
X8124797Y3792829D03*
G01*
X8124797Y3742817D03*
G01*
X8124797Y3692829D03*
G01*
X8124797Y3642817D03*
G01*
X8124797Y3592830D03*
G01*
X8124797Y3892829D03*
G01*
X8124797Y4092829D03*
G01*
X8124797Y4042816D03*
G01*
X8124797Y3992829D03*
G01*
X8124797Y3942816D03*
D23*
G01*
X5791451Y6796633D03*
G01*
X5791451Y6705193D03*
D32*
G01*
X403528Y1401064D03*
G01*
X592757Y1158493D03*
G01*
X592757Y1401064D03*
G01*
X403528Y1158493D03*
D33*
G01*
X1795675Y6514566D03*
G01*
X1922675Y7073366D03*
G01*
X1795675Y7073366D03*
G01*
X2176675Y7073366D03*
G01*
X2176675Y6514566D03*
G01*
X1922675Y6514566D03*
G01*
X2049675Y6514566D03*
G01*
X2049675Y7073366D03*
D34*
G01*
X6034427Y7024903D03*
G01*
X6263027Y7024903D03*
D23*
G01*
X556435Y5517642D03*
G01*
X556409Y5426201D03*
G01*
X429435Y5432196D03*
G01*
X429435Y5523636D03*
G01*
X2758158Y7218248D03*
G01*
X2758158Y7309688D03*
D35*
G01*
X9419791Y5795949D03*
G01*
X9511230Y5795949D03*
G01*
X9510240Y5923965D03*
G01*
X9418800Y5923965D03*
G01*
X2716883Y6864959D03*
G01*
X2625443Y6864959D03*
D23*
G01*
X3164151Y6396685D03*
G01*
X3164151Y6305245D03*
D35*
G01*
X4275452Y6984949D03*
G01*
X4366893Y6984949D03*
G01*
X4366893Y6730949D03*
G01*
X4275452Y6730949D03*
G01*
X4367883Y6602958D03*
G01*
X4276443Y6602958D03*
D23*
G01*
X1036419Y6399631D03*
G01*
X1036419Y6308191D03*
G01*
X1036419Y6079185D03*
G01*
X1036419Y6170625D03*
G01*
X2634155Y7305675D03*
G01*
X2634155Y7214235D03*
G01*
X2378174Y7304684D03*
G01*
X2378174Y7213244D03*
G01*
X2478173Y6514236D03*
G01*
X2478173Y6605676D03*
G01*
X2353155Y6512229D03*
G01*
X2353155Y6603669D03*
D35*
G01*
X4275452Y6856958D03*
G01*
X4366893Y6856958D03*
G01*
X8331248Y4370857D03*
G01*
X8239809Y4370857D03*
D23*
G01*
X8356292Y3113049D03*
G01*
X8356292Y3021609D03*
D35*
G01*
X8499574Y2197328D03*
G01*
X8591015Y2197328D03*
G01*
X8324009Y2191334D03*
G01*
X8232570Y2191334D03*
D23*
G01*
X196136Y1307058D03*
G01*
X196136Y1398498D03*
D12*
G01*
X1075535Y1872842D03*
G01*
X1075535Y2048840D03*
D23*
G01*
X590141Y787501D03*
G01*
X590141Y696061D03*
G01*
X-93830Y3932250D03*
G01*
X-93830Y4023690D03*
D36*
G01*
X8331299Y2372334D03*
G01*
X8427819Y2595524D03*
G01*
X8521799Y2372334D03*
D37*
G01*
X6535163Y6014846D03*
D38*
G01*
X5905168Y5594857D03*
G01*
X5905168Y6234836D03*
D37*
G01*
X6535163Y5814847D03*
D39*
G01*
X1536165Y7085963D03*
G01*
X816175Y7085963D03*
D40*
G01*
X1239669Y7335951D03*
G01*
X1112669Y7335951D03*
D12*
G01*
X-124462Y1978837D03*
G01*
X-124462Y2154833D03*
D41*
G01*
X7396529Y4961837D03*
G01*
X7220532Y4961837D03*
D23*
G01*
X7169122Y2308504D03*
G01*
X7169122Y2217064D03*
D35*
G01*
X8242882Y1828952D03*
G01*
X8151441Y1828952D03*
G01*
X7319820Y4769840D03*
G01*
X7411261Y4769840D03*
D41*
G01*
X4295162Y6417969D03*
G01*
X4471159Y6417969D03*
D42*
G01*
X5027165Y1548968D03*
G01*
X5027165Y1320368D03*
D23*
G01*
X3467173Y6304229D03*
G01*
X3467173Y6395669D03*
D42*
G01*
X995423Y5468518D03*
G01*
X995423Y5239918D03*
G01*
X-81434Y4966639D03*
G01*
X-81434Y5195239D03*
D41*
G01*
X9329494Y6286778D03*
G01*
X9505491Y6286778D03*
D35*
G01*
X9508208Y6061786D03*
G01*
X9416768Y6061786D03*
D23*
G01*
X2885158Y7309688D03*
G01*
X2885158Y7218248D03*
D41*
G01*
X3030167Y7290967D03*
G01*
X3206164Y7290967D03*
D35*
G01*
X3361712Y7332903D03*
G01*
X3453154Y7332903D03*
D12*
G01*
X3939970Y7318959D03*
G01*
X3939970Y7142962D03*
G01*
X4157266Y7316952D03*
G01*
X4157266Y7140954D03*
D23*
G01*
X1180411Y6395643D03*
G01*
X1180411Y6304203D03*
G01*
X1181427Y6084189D03*
G01*
X1181427Y6175629D03*
G01*
X2506164Y7213244D03*
G01*
X2506164Y7304684D03*
G01*
X2482161Y6731228D03*
G01*
X2482161Y6822668D03*
D35*
G01*
X2014879Y6310960D03*
G01*
X1923437Y6310960D03*
G01*
X2049879Y7259954D03*
G01*
X1958440Y7259954D03*
G01*
X960422Y1637792D03*
G01*
X1051863Y1637792D03*
D41*
G01*
X779143Y1634794D03*
G01*
X603147Y1634794D03*
D43*
G01*
X-173205Y5634353D03*
G01*
X-164315Y6303644D03*
D44*
G01*
X167154Y5641974D03*
G01*
X558314Y6320153D03*
D45*
G01*
X734844Y5641975D03*
D44*
G01*
X788184Y6320153D03*
D46*
G01*
X-123675Y5972175D03*
G01*
X587524Y5972175D03*
D47*
G01*
X193824Y1901824D03*
G01*
X746274Y1901824D03*
G01*
X193824Y2155698D03*
G01*
X746274Y2155698D03*
G01*
X193824Y2409571D03*
G01*
X746274Y2409571D03*
G01*
X193824Y2663443D03*
G01*
X746274Y2663443D03*
G01*
X193824Y2917316D03*
G01*
X746274Y2917316D03*
G01*
X193824Y3171190D03*
G01*
X193824Y3425063D03*
G01*
X193824Y3932808D03*
G01*
X193824Y3678935D03*
G01*
X193824Y4186682D03*
G01*
X193824Y4440555D03*
G01*
X746274Y3171190D03*
G01*
X746274Y3425063D03*
G01*
X746274Y3678935D03*
D48*
G01*
X746276Y3932808D03*
D47*
G01*
X746274Y4186682D03*
G01*
X746274Y4440555D03*
D49*
G01*
X3908574Y1292225D03*
G01*
X3908574Y739775D03*
G01*
X3654701Y739775D03*
G01*
X3654701Y1292225D03*
G01*
X3396764Y739775D03*
G01*
X3142891Y739775D03*
G01*
X2889018Y739775D03*
G01*
X2635145Y739775D03*
G01*
X2381272Y739775D03*
G01*
X2127399Y739775D03*
G01*
X3396764Y1292225D03*
G01*
X3142891Y1292225D03*
G01*
X2635145Y1292225D03*
G01*
X2889018Y1292225D03*
G01*
X2381272Y1292225D03*
G01*
X2127399Y1292225D03*
G01*
X1873526Y739775D03*
G01*
X1873526Y1292225D03*
G01*
X1619653Y739775D03*
G01*
X1619653Y1292225D03*
G01*
X1365780Y739775D03*
G01*
X1365780Y1292225D03*
G01*
X1111907Y739775D03*
G01*
X1111907Y1292225D03*
G01*
X858034Y739775D03*
G01*
X858034Y1292225D03*
D47*
G01*
X5026174Y1904365D03*
G01*
X5578624Y1904365D03*
G01*
X5026174Y2158238D03*
G01*
X5578624Y2158238D03*
G01*
X5026174Y2412110D03*
G01*
X5578624Y2412110D03*
G01*
X5026174Y2665983D03*
G01*
X5578624Y2665983D03*
D48*
G01*
X5026176Y2919857D03*
D47*
G01*
X5578624Y2919857D03*
G01*
X5026174Y3173730D03*
G01*
X5026174Y3427602D03*
G01*
X5026174Y3935349D03*
G01*
X5026174Y3681475D03*
G01*
X5026174Y4189222D03*
G01*
X5026174Y4443094D03*
G01*
X5578624Y3173730D03*
G01*
X5578624Y3427602D03*
G01*
X5578624Y3681475D03*
G01*
X5578624Y3935349D03*
G01*
X5578624Y4189222D03*
G01*
X5578624Y4443094D03*
D50*
G01*
X8603764Y2790825D03*
G01*
X8603764Y2841040D03*
G01*
X8603764Y2891256D03*
G01*
X8603764Y2941472D03*
G01*
X8603764Y2991688D03*
G01*
X8603764Y3041878D03*
G01*
X8603764Y3092094D03*
G01*
X8603764Y3142310D03*
G01*
X8603764Y3192526D03*
G01*
X8603764Y3242741D03*
G01*
X8603764Y3292957D03*
G01*
X8603764Y3343173D03*
G01*
X8603764Y3393389D03*
G01*
X8603764Y3443604D03*
G01*
X8603764Y3493820D03*
G01*
X8603764Y3544036D03*
G01*
X8603764Y3594252D03*
G01*
X8603764Y3644468D03*
G01*
X8603764Y3694658D03*
G01*
X8603764Y3744874D03*
G01*
X8603764Y3795090D03*
G01*
X8603764Y3845305D03*
G01*
X8603764Y3895521D03*
G01*
X8603764Y3945737D03*
G01*
X8603764Y3995953D03*
G01*
X8603764Y4046169D03*
G01*
X8603764Y4096385D03*
G01*
X8603764Y4146600D03*
G01*
X8603764Y4196816D03*
G01*
X8603764Y4247032D03*
G01*
X8603764Y4297248D03*
G01*
X8603764Y4347438D03*
G01*
X8603764Y4397654D03*
G01*
X8603764Y4447870D03*
G01*
X8603764Y4498086D03*
G01*
X8603764Y4548301D03*
G01*
X8603764Y4598517D03*
G01*
X8603764Y4648733D03*
G01*
X8603764Y4698949D03*
G01*
X8603764Y4749164D03*
D51*
G01*
X8831094Y4902835D03*
G01*
X8837444Y2639695D03*
D52*
G01*
X54124Y391795D03*
G01*
X11252984Y398145D03*
G01*
X11249174Y7108825D03*
G01*
X40154Y7085964D03*
D23*
G01*
X7315121Y2215057D03*
G01*
X7315146Y2306497D03*
D41*
G01*
X4538419Y505917D03*
G01*
X4714416Y505917D03*
G01*
X5986143Y357783D03*
G01*
X5810147Y357783D03*
D53*
G01*
X8362134Y1314780D03*
G01*
X5482130Y1314780D03*
D54*
G01*
X547419Y5064912D03*
D55*
G01*
X547419Y5114924D03*
D54*
G01*
X547419Y5164912D03*
G01*
X547419Y5214924D03*
D56*
G01*
X482419Y5279922D03*
G01*
X432432Y5279922D03*
G01*
X382419Y5279922D03*
D57*
G01*
X332432Y5279922D03*
D54*
G01*
X267434Y5214924D03*
G01*
X267434Y5164912D03*
D55*
G01*
X267434Y5114924D03*
D54*
G01*
X267434Y5064912D03*
D57*
G01*
X332432Y4999912D03*
D56*
G01*
X382419Y4999912D03*
G01*
X432432Y4999912D03*
G01*
X482419Y4999912D03*
D58*
G01*
X407413Y5139918D03*
D35*
G01*
X1054148Y5032908D03*
G01*
X962709Y5032908D03*
D23*
G01*
X331416Y4802631D03*
G01*
X331416Y4711192D03*
D35*
G01*
X-149151Y4667224D03*
G01*
X-57710Y4667224D03*
G01*
X1046147Y4894910D03*
G01*
X954707Y4894910D03*
G01*
X799132Y5417921D03*
G01*
X707693Y5417921D03*
G01*
X-32868Y5411901D03*
G01*
X-124310Y5411901D03*
D12*
G01*
X-127561Y4233899D03*
G01*
X-127561Y4409922D03*
D23*
G01*
X458416Y4803622D03*
G01*
X458416Y4712182D03*
G01*
X5562419Y6699630D03*
G01*
X5562419Y6608190D03*
D59*
G01*
X-261443Y5368237D03*
G01*
X-261443Y5214567D03*
G01*
X-261443Y4789220D03*
G01*
X-261443Y4942889D03*
D60*
G01*
X5240169Y7085964D03*
D61*
G01*
X5494169Y7085964D03*
G01*
X4986169Y7085964D03*
D18*
G01*
X1303195Y1578787D03*
G01*
X1557195Y1578787D03*
D60*
G01*
X5242125Y391795D03*
D61*
G01*
X5496125Y391795D03*
G01*
X4988125Y391795D03*
D62*
G01*
X1129078Y4394733D03*
G01*
X2126104Y5373370D03*
G01*
X2420236Y4413122D03*
G01*
X1404846Y2143302D03*
G01*
X1654451Y3647312D03*
G01*
X2401872Y3121939D03*
G01*
X3276546Y2985465D03*
M02*
